<?xml version="1.0" standalone="no"?>
<!DOCTYPE svg PUBLIC "-//W3C//DTD SVG 20010904//EN"
 "http://www.w3.org/TR/2001/REC-SVG-20010904/DTD/svg10.dtd">
<svg version="1.0" xmlns="http://www.w3.org/2000/svg"
 width="1280.000000pt" height="720.000000pt" viewBox="0 0 1280.000000 720.000000"
 preserveAspectRatio="xMidYMid meet">
<metadata>
Created by potrace 1.13, written by Peter Selinger 2001-2015
</metadata>
<g transform="translate(0.000000,720.000000) scale(0.100000,-0.100000)"
fill="#000000" stroke="none">
<path d="M0 6884 c0 -292 1 -318 17 -330 17 -12 17 -13 1 -19 -17 -7 -18 -59
-18 -909 1 -743 3 -896 14 -871 l13 30 0 -32 c0 -20 -5 -33 -13 -33 -9 0 -12
-43 -12 -180 0 -152 2 -179 13 -170 8 7 23 9 33 6 11 -4 27 -4 36 0 16 6 16 8
-1 26 -16 18 -16 19 3 12 10 -4 25 -11 31 -17 9 -6 15 -4 19 8 5 12 9 13 14 4
5 -7 2 -18 -6 -26 -17 -17 -18 -43 -2 -43 6 0 8 -3 5 -7 -9 -8 24 -32 44 -33
21 0 33 30 19 44 -5 5 -10 19 -10 31 0 12 -5 26 -11 32 -8 8 -8 13 0 17 6 4
11 0 11 -9 0 -12 4 -14 18 -6 12 6 30 7 48 1 16 -4 25 -9 19 -9 -5 -1 -3 -6 5
-12 11 -7 12 -12 3 -15 -7 -3 -9 -12 -6 -20 3 -8 0 -14 -7 -14 -6 0 -8 -5 -4
-12 5 -8 2 -9 -10 -5 -10 4 -24 -1 -36 -13 -27 -27 -80 -26 -114 1 -21 16 -24
24 -15 30 8 4 10 11 7 14 -4 4 -12 4 -19 -1 -7 -4 -27 -8 -45 -9 -37 -1 -49
-9 -39 -24 4 -7 12 -8 24 -2 10 6 23 6 32 0 7 -5 10 -9 4 -9 -5 -1 4 -8 20
-17 l30 -16 -30 -9 c-16 -5 -36 -12 -44 -14 -11 -3 -10 -9 3 -29 9 -13 12 -26
7 -29 -12 -8 -21 4 -21 26 0 10 -6 18 -12 18 -9 0 -8 4 2 11 13 9 13 10 0 6
-21 -5 -24 -51 -6 -70 20 -20 20 -31 1 -23 -10 4 -15 -1 -15 -14 0 -11 6 -20
13 -20 8 0 7 -4 -3 -10 -9 -6 -10 -10 -3 -10 6 0 19 -3 27 -6 12 -5 15 -2 10
12 -4 14 -3 16 4 5 5 -7 15 -10 22 -6 9 6 9 9 -1 16 -8 5 -9 9 -3 9 5 0 19 -7
30 -15 19 -14 19 -14 -1 -15 -16 0 -21 -6 -19 -27 2 -41 2 -42 24 -36 11 3 20
0 20 -6 0 -6 -9 -11 -20 -11 -11 0 -20 -5 -20 -10 0 -6 12 -8 28 -5 15 3 20 2
12 -2 -8 -3 -20 -13 -26 -21 -6 -8 -16 -12 -22 -8 -6 3 -14 1 -18 -5 -3 -6 -1
-15 6 -19 8 -5 10 -15 5 -26 -5 -11 -7 -23 -6 -27 1 -5 -3 -6 -9 -2 -5 3 -10
13 -10 21 0 19 -10 18 -26 -3 -8 -11 -13 -44 -14 -80 0 -53 3 -63 18 -63 16
-1 16 -1 0 -11 -16 -9 -18 -29 -18 -179 0 -126 3 -170 12 -170 9 0 9 -3 0 -12
-8 -8 -12 -54 -12 -140 0 -105 3 -128 14 -128 8 0 18 -5 22 -12 5 -8 0 -9 -14
-6 -17 5 -22 2 -22 -13 0 -11 7 -19 16 -19 8 0 12 -5 9 -10 -4 -6 -11 -8 -16
-5 -5 4 -9 -16 -8 -47 1 -29 3 -45 6 -35 2 9 9 17 14 17 15 0 10 -40 -6 -56
-13 -14 -15 -192 -15 -1485 l0 -1469 1954 0 c1553 0 1955 3 1959 13 4 9 6 9 6
0 1 -10 907 -13 4441 -13 l4440 0 0 2101 c0 1386 -4 2098 -10 2094 -6 -3 -10
-1 -10 4 0 6 4 11 10 11 6 0 10 425 10 1185 0 1047 -2 1185 -15 1185 -8 0 -15
5 -15 10 0 6 7 10 15 10 12 0 14 44 15 300 l0 300 -2814 0 c-2242 0 -2815 -3
-2819 -12 -4 -10 -6 -10 -6 0 -1 17 -1151 18 -1151 0 0 -9 -3 -9 -12 0 -18 18
-4188 17 -4207 0 -11 -10 -13 -10 -7 0 6 9 -175 12 -888 12 l-895 0 -1 -316z
m1300 -124 c12 0 19 4 16 8 -3 5 0 9 7 9 7 0 19 4 27 7 11 5 16 0 17 -14 1
-12 -4 -23 -11 -26 -16 -6 -4 -78 17 -103 10 -12 8 -13 -13 -6 -14 4 -27 11
-30 16 -6 8 -34 6 -89 -7 -20 -4 -22 -2 -16 13 12 29 11 67 -2 80 -6 7 -9 22
-6 33 5 18 7 18 34 5 15 -8 37 -15 49 -15z m5213 -1609 c11 -2 8 -51 -3 -51
-5 0 -10 -10 -10 -22 0 -19 -2 -20 -10 -8 -7 11 -10 7 -10 -17 0 -38 2 -39 25
-17 9 9 13 24 10 35 -4 13 -2 19 9 19 9 0 16 5 16 11 0 5 4 8 10 4 5 -3 7 -12
3 -20 -3 -9 1 -15 11 -15 9 0 16 5 16 11 0 15 26 39 34 32 3 -4 -2 -15 -11
-25 -13 -14 -14 -21 -5 -30 9 -9 12 -8 12 5 0 9 5 17 11 17 6 0 8 -8 4 -19 -4
-15 -2 -19 12 -16 10 2 26 4 36 4 10 1 15 6 12 11 -4 6 -11 8 -16 5 -11 -8
-12 6 0 24 6 9 11 10 15 2 4 -6 16 -11 27 -11 19 0 19 -1 5 -22 -9 -12 -15
-32 -15 -43 1 -17 2 -17 6 -2 2 9 9 15 14 11 15 -9 49 6 49 22 0 8 9 14 20 14
12 0 20 -7 20 -17 0 -10 5 -25 11 -33 9 -12 10 -11 6 8 -6 27 7 28 33 2 23
-23 42 -26 34 -7 -3 8 2 20 11 27 10 8 15 9 15 1 0 -6 7 -11 16 -11 11 0 14 4
7 13 -5 6 -8 22 -7 35 1 25 -6 28 -25 10 -11 -11 -13 -10 -7 5 3 10 6 26 6 35
0 12 3 13 12 4 8 -8 15 -9 25 0 11 8 12 7 7 -6 -8 -20 9 -21 26 -1 15 18 33 9
27 -14 -2 -9 3 -23 11 -30 12 -12 13 -11 7 10 -5 18 -4 21 4 9 18 -25 13 -43
-9 -37 -14 4 -20 0 -20 -12 0 -10 -7 -18 -15 -18 -9 0 -14 6 -11 14 3 7 -1 13
-8 13 -9 0 -12 -7 -9 -20 3 -13 14 -20 29 -20 13 0 24 -5 24 -11 0 -6 -9 -8
-22 -4 -16 6 -20 4 -15 -9 3 -8 2 -18 -3 -21 -6 -4 -10 1 -10 9 0 9 -4 16 -10
16 -5 0 -10 -9 -10 -20 0 -11 7 -20 16 -20 9 0 12 -5 8 -12 -6 -10 -4 -10 7
-2 8 6 25 10 39 8 18 -3 21 -2 10 5 -8 5 -18 7 -22 5 -4 -3 -8 -2 -8 3 0 15
49 32 54 19 2 -6 5 0 6 14 1 16 4 20 7 10 9 -22 21 -28 47 -23 18 4 23 10 19
26 -3 16 -2 18 5 9 14 -20 45 -11 59 18 21 42 15 -3 -8 -54 -11 -26 -24 -44
-29 -41 -5 3 -14 -5 -21 -17 -12 -22 -11 -22 7 -9 36 28 61 56 57 67 -2 7 8
12 22 12 14 0 24 -3 21 -5 -3 -3 1 -11 7 -18 9 -10 15 -10 26 -1 12 9 13 7 9
-11 -4 -13 -2 -23 3 -23 5 0 9 5 9 10 0 6 6 10 14 10 8 0 16 5 18 12 3 7 10 8
17 4 9 -6 10 -11 2 -15 -6 -4 5 -7 24 -7 31 0 32 1 14 14 -23 16 -26 37 -4 28
13 -4 13 -2 5 14 -13 25 -13 33 2 24 17 -11 81 -11 96 0 11 7 12 3 6 -20 -4
-16 -11 -31 -16 -33 -5 -1 -2 -12 8 -22 15 -16 15 -19 1 -25 -21 -8 -32 -55
-15 -65 22 -14 30 -10 23 12 -6 18 -5 19 13 10 23 -12 55 -4 45 12 -4 6 2 8
15 5 15 -4 19 -2 15 8 -9 24 13 15 24 -9 7 -14 8 -30 2 -38 -7 -11 -11 -11
-22 5 -8 11 -19 16 -26 11 -26 -15 17 -37 68 -36 28 1 27 0 35 29 5 13 3 22
-3 22 -6 0 -10 -3 -10 -7 5 -29 -2 -36 -17 -15 -8 12 -13 26 -10 31 3 5 0 11
-8 14 -15 6 -16 23 -2 46 8 13 -13 36 -23 25 -3 -3 0 -9 8 -13 9 -6 8 -9 -6
-13 -13 -4 -19 0 -20 13 -1 11 3 19 9 19 5 0 8 6 5 14 -3 8 -1 17 6 19 15 5
47 -30 48 -52 0 -11 2 -12 6 -3 4 10 8 9 19 -5 12 -16 13 -16 14 -1 0 9 -4 20
-10 23 -19 12 -10 25 18 26 15 0 21 3 15 6 -22 8 -14 23 12 23 19 0 25 -5 25
-21 0 -13 4 -18 13 -13 10 6 10 4 0 -7 -18 -18 -16 -30 3 -22 14 5 15 3 6 -13
-9 -16 -7 -20 9 -20 22 0 24 9 9 37 -9 16 -7 21 15 29 14 5 25 17 25 26 0 10
-5 14 -15 10 -17 -6 -20 12 -5 34 9 13 11 13 20 0 5 -8 10 -11 10 -7 0 5 10 1
22 -7 12 -9 37 -16 54 -16 26 0 36 -7 53 -35 19 -33 19 -35 2 -35 -10 0 -21
-3 -24 -7 -4 -3 -20 -7 -37 -7 -23 -1 -30 3 -30 18 0 11 7 28 17 38 9 11 11
18 5 18 -7 0 -12 -5 -12 -11 0 -8 -4 -9 -13 0 -8 6 -18 7 -22 3 -5 -4 -5 -2
-1 5 3 6 2 14 -4 18 -6 4 -10 -7 -10 -28 0 -40 -8 -51 -27 -36 -8 7 -13 8 -13
1 0 -5 14 -15 30 -21 17 -5 30 -13 30 -17 0 -3 -6 -4 -14 -1 -21 8 -28 -4 -9
-18 11 -8 13 -17 7 -26 -12 -20 -14 -38 -3 -45 10 -6 3 -24 -10 -24 -12 0 -9
64 3 72 6 4 7 10 3 14 -4 4 -14 -1 -22 -13 -18 -26 -65 -28 -65 -2 0 10 -5 21
-10 24 -7 4 -9 -2 -5 -18 10 -37 -14 -44 -26 -8 -10 29 -29 43 -29 21 0 -5 5
-10 11 -10 8 0 10 -14 6 -41 -6 -43 15 -100 28 -79 6 9 9 9 15 0 5 -9 13 -9
27 -2 15 9 23 7 37 -9 9 -11 14 -24 11 -28 -2 -5 6 -16 18 -24 30 -20 32 -50
3 -42 -20 6 -20 5 2 -14 13 -11 17 -21 11 -23 -7 -2 -9 -13 -4 -27 4 -13 10
-20 14 -15 3 5 13 10 21 12 8 2 2 -8 -13 -22 -16 -15 -40 -26 -55 -26 l-27 0
25 -13 c21 -11 26 -11 33 0 5 7 12 11 17 8 4 -3 20 -1 33 4 18 7 27 7 30 -2 2
-8 9 -6 22 6 9 10 23 16 31 13 7 -3 17 1 23 8 6 7 25 10 47 8 25 -3 32 -7 23
-13 -10 -6 -11 -11 -2 -20 17 -17 49 -6 45 15 -2 11 2 23 10 27 9 6 4 12 -19
21 -45 17 -41 27 9 25 25 -2 49 3 59 11 15 13 15 16 0 31 -26 26 -49 32 -55
15 -3 -8 -1 -14 5 -14 5 0 4 -6 -3 -13 -10 -11 -15 -7 -30 22 -17 34 -16 59 2
31 7 -11 10 -7 10 15 0 17 4 26 8 20 4 -5 18 -19 31 -30 l24 -20 -5 22 c-4 13
-1 24 8 27 9 3 11 0 7 -11 -4 -10 -2 -14 5 -9 6 3 13 2 17 -4 3 -5 -1 -10 -9
-10 -16 0 -21 -12 -9 -23 3 -4 12 -2 19 4 19 15 94 19 94 4 0 -20 -12 -25 -28
-12 -13 10 -14 9 -10 -3 3 -8 15 -14 27 -13 22 3 27 -12 12 -36 -14 -21 -41
-5 -47 29 -5 24 -9 28 -20 19 -18 -15 -18 -29 -1 -29 17 0 42 -45 33 -59 -8
-12 -1 -13 32 -4 18 4 20 8 10 14 -10 7 -10 9 0 9 6 0 12 12 12 28 0 20 7 30
28 40 17 8 28 9 30 2 2 -5 17 -10 33 -10 21 0 27 -4 23 -14 -4 -11 -12 -13
-30 -6 -15 6 -24 6 -24 0 0 -6 8 -10 18 -11 15 0 15 -1 -2 -8 -19 -7 -19 -8
-1 -15 10 -4 21 -2 25 5 6 8 9 8 14 0 11 -17 -20 -24 -53 -13 -25 9 -29 8 -24
-4 3 -8 -1 -14 -11 -14 -10 0 -13 -5 -9 -16 5 -15 7 -15 15 0 12 22 25 20 33
-4 4 -11 10 -18 15 -15 13 8 41 -6 34 -17 -4 -5 -11 -5 -18 1 -13 11 -26 5
-26 -11 0 -5 4 -7 9 -4 11 7 25 -49 16 -64 -3 -5 -1 -10 5 -10 6 0 8 -4 5 -10
-3 -5 -2 -10 4 -10 10 0 7 41 -5 79 -4 11 1 9 16 -4 20 -18 20 -18 20 6 1 22
1 23 11 5 9 -14 8 -20 -2 -27 -7 -4 -17 -5 -21 -3 -4 3 -8 -1 -8 -10 0 -27 12
-46 29 -45 10 0 11 2 4 6 -15 5 -18 33 -4 33 6 0 25 -13 43 -30 18 -16 38 -30
45 -30 21 0 15 10 -12 20 -14 5 -25 15 -25 21 0 8 4 8 15 -1 18 -15 20 1 3 18
-13 13 -8 15 16 6 9 -3 16 -12 16 -19 0 -7 7 -18 15 -25 9 -7 13 -15 10 -18
-3 -3 3 -14 12 -24 12 -13 14 -21 6 -29 -13 -13 -6 -39 9 -39 6 0 6 6 -1 14
-14 17 -8 21 39 30 26 5 31 4 20 -3 -25 -17 14 -14 58 5 l37 16 -30 9 c-16 5
-37 7 -45 4 -8 -2 -5 3 8 11 12 9 22 23 22 31 0 9 6 13 14 10 8 -3 17 2 21 11
3 9 1 18 -4 20 -6 2 -9 8 -5 13 3 5 -2 12 -10 15 -9 3 -16 16 -15 28 0 20 1
20 8 1 5 -11 18 -29 30 -39 16 -15 18 -22 10 -33 -17 -20 -4 -27 22 -13 19 10
24 10 34 -4 7 -8 14 -14 17 -11 2 3 5 -2 5 -10 0 -9 -6 -14 -14 -11 -8 3 -12
2 -9 -3 12 -19 44 -19 49 0 3 11 2 19 -3 19 -4 0 -5 12 -2 28 2 15 1 24 -3 20
-5 -4 -14 -3 -22 3 -10 9 -13 8 -13 -2 0 -8 -8 1 -16 19 -9 17 -22 32 -28 32
-6 0 -4 5 4 10 23 15 29 12 23 -10 -5 -17 -3 -18 21 -7 14 7 24 17 21 24 -2 7
0 15 5 18 5 3 10 -5 12 -17 2 -14 13 -25 28 -29 17 -5 19 -7 7 -8 -10 -1 -15
-5 -12 -11 3 -5 1 -10 -4 -10 -6 0 -11 -7 -11 -16 0 -18 36 -54 54 -54 6 0 4
-5 -4 -10 -8 -5 -10 -10 -4 -10 16 0 23 10 17 26 -3 8 -13 14 -22 14 -13 0
-14 2 -1 9 8 6 17 8 20 6 3 -2 5 17 4 42 -2 40 0 44 18 40 15 -4 18 -2 12 16
-3 12 -10 26 -15 32 -12 12 -12 78 0 71 4 -3 6 -17 4 -31 -5 -24 -4 -24 25
-14 40 14 52 28 52 59 0 6 7 10 15 10 8 0 15 -7 15 -15 0 -8 4 -15 9 -15 15 0
23 18 11 25 -5 3 -10 10 -10 16 0 10 40 -10 52 -26 4 -5 8 -6 8 -2 0 5 5 5 11
1 8 -4 7 -9 -2 -15 -10 -6 -11 -9 -1 -9 6 0 12 -12 13 -27 l1 -28 14 30 13 30
-1 -32 c-1 -18 -5 -33 -9 -33 -20 0 -39 14 -40 29 0 12 -2 12 -9 -4 -12 -29
-12 -29 11 -54 18 -19 19 -25 8 -32 -12 -7 -12 -9 0 -9 8 0 22 7 32 16 16 14
18 14 29 -6 7 -14 15 -18 23 -13 17 13 36 10 47 -7 14 -22 12 -30 -6 -30 -11
0 -14 6 -10 23 3 12 3 16 0 10 -3 -7 -13 -13 -21 -13 -9 0 -13 -6 -10 -14 4
-10 1 -13 -9 -9 -7 3 -14 11 -14 19 0 8 -10 14 -24 14 -27 0 -42 -15 -26 -25
16 -10 12 -55 -4 -55 -8 0 -18 5 -21 10 -4 6 -3 9 2 8 4 -2 9 2 11 7 2 6 -4
12 -13 13 -13 3 -15 -2 -10 -32 6 -28 4 -37 -10 -42 -9 -4 -21 -2 -28 5 -8 8
-6 11 7 11 28 0 13 25 -17 28 -15 2 -25 8 -22 13 4 5 -3 9 -15 9 -27 0 -22
-21 8 -36 12 -6 19 -14 15 -17 -11 -11 -35 -8 -52 7 -12 10 -22 11 -41 3 -19
-8 -21 -11 -9 -14 11 -3 15 -11 12 -24 -7 -24 -8 -24 -34 2 -25 25 -45 20 -42
-10 2 -12 0 -20 -5 -18 -36 19 -84 38 -88 35 -2 -3 14 -12 37 -22 34 -15 38
-20 27 -33 -12 -15 -13 -15 -16 0 -2 10 -9 14 -20 10 -24 -9 -33 -26 -19 -36
7 -5 -4 -6 -26 -2 l-39 6 21 -22 c12 -13 21 -30 21 -38 0 -14 -2 -14 -11 -1
-8 12 -9 11 -6 -5 2 -11 9 -19 15 -17 15 3 16 -24 2 -33 -6 -4 -8 -11 -4 -16
3 -6 14 -1 24 11 10 12 20 16 22 10 2 -6 11 -8 22 -4 14 5 15 9 4 15 -10 6 -8
13 10 29 18 17 22 18 22 5 0 -9 5 -13 10 -10 6 4 8 10 6 14 -3 4 4 8 15 8 10
1 19 -5 19 -13 0 -8 5 -14 10 -14 6 0 10 -4 10 -10 0 -5 -10 -10 -22 -10 -22
-1 -22 -1 -3 -12 26 -15 36 -30 30 -45 -2 -7 1 -12 8 -10 7 1 11 -4 9 -10 -3
-19 4 -16 27 9 17 17 23 19 36 8 12 -10 15 -10 15 1 0 11 2 11 10 -1 8 -12 10
-11 10 8 0 25 -10 28 -29 10 -10 -11 -11 -9 -5 7 7 19 6 18 -18 -2 -21 -20
-53 -34 -35 -16 4 3 -1 11 -10 18 -15 11 -15 14 0 36 20 28 22 69 5 70 -10 0
-10 2 0 6 6 2 12 11 12 19 0 8 9 14 21 14 15 0 19 -5 15 -15 -4 -10 1 -15 14
-15 12 0 17 5 14 13 -3 10 4 14 26 14 30 0 39 -10 20 -22 -6 -4 -8 -10 -5 -15
3 -5 -5 -12 -19 -16 -22 -5 -41 -45 -28 -59 11 -11 45 -4 73 16 32 22 38 39
14 39 -8 0 -15 5 -15 11 0 5 5 7 10 4 6 -3 10 -1 10 6 0 8 4 8 15 -1 13 -11
17 -8 26 20 7 20 14 28 19 20 4 -6 10 -11 14 -11 19 3 26 0 26 -12 0 -7 16
-21 35 -30 22 -11 35 -24 35 -36 0 -14 5 -18 20 -14 11 3 20 0 20 -6 0 -6 -5
-11 -11 -11 -5 0 -7 -4 -4 -10 3 -5 17 -10 31 -10 15 0 24 -6 24 -16 0 -8 14
-29 30 -46 32 -32 32 -48 -1 -48 -11 0 -17 5 -14 10 3 6 -1 10 -9 10 -8 0 -18
-4 -21 -10 -3 -5 -1 -10 5 -10 6 0 9 -4 6 -8 -3 -5 8 -6 25 -4 31 5 34 -3 23
-45 -6 -24 -26 -33 -22 -11 4 19 -40 22 -57 4 -18 -18 -19 -28 -2 -24 18 4 66
-42 60 -58 -3 -8 2 -17 11 -20 12 -5 46 -56 46 -71 0 -1 -8 -3 -17 -3 -16 -1
-16 -2 -2 -10 11 -6 15 -19 12 -37 -3 -19 -1 -24 4 -15 11 15 53 25 53 12 0
-5 6 -7 13 -4 17 6 47 -57 40 -85 -3 -12 -9 -21 -13 -21 -13 0 -8 -54 7 -77 8
-12 12 -26 9 -32 -3 -5 3 -7 14 -4 11 3 20 0 20 -6 0 -6 -9 -11 -21 -11 -11 0
-17 -4 -14 -10 3 -6 -1 -7 -9 -4 -9 3 -16 10 -16 16 0 5 -5 6 -10 3 -6 -4 -8
-10 -5 -15 3 -5 -3 -14 -14 -19 -25 -14 -35 8 -12 27 14 12 12 13 -11 8 -38
-9 -110 15 -103 33 3 8 0 18 -7 23 -19 11 -60 10 -53 -2 3 -5 -1 -10 -9 -10
-9 0 -16 8 -16 18 0 11 -7 18 -20 18 -25 0 -26 -13 -2 -19 13 -4 11 -5 -5 -6
-28 -1 -31 -21 -3 -21 11 0 20 -7 20 -15 0 -9 -6 -15 -12 -14 -31 4 -62 -2
-51 -9 18 -11 -13 -71 -35 -67 -20 3 -18 42 4 66 13 15 13 17 -1 23 -9 3 -25
6 -36 6 -11 0 -19 7 -19 16 0 8 -5 12 -10 9 -6 -4 -8 -11 -5 -16 4 -5 1 -9 -4
-9 -6 0 -16 9 -23 20 -7 11 -16 20 -19 20 -4 0 -5 -9 -2 -20 3 -11 0 -20 -6
-20 -6 0 -11 15 -11 33 0 28 -4 33 -22 33 -15 -1 -22 5 -23 24 -1 14 3 29 9
33 7 5 6 7 -4 6 -35 -3 -71 2 -66 9 6 9 -23 26 -61 37 -13 4 -23 10 -23 15 0
4 9 6 20 3 28 -7 25 10 -4 23 -23 11 -25 10 -31 -27 -7 -41 -27 -55 -22 -17 2
17 -5 23 -31 29 -26 5 -32 4 -28 -7 3 -8 2 -14 -3 -14 -5 0 -11 -16 -13 -35
-4 -32 -2 -35 23 -35 22 0 27 -5 27 -25 0 -21 -4 -24 -26 -18 -17 4 -23 2 -18
-6 4 -6 2 -11 -4 -11 -6 0 -10 -10 -9 -22 4 -25 -7 -48 -22 -48 -5 0 -9 11 -9
24 0 24 -33 46 -47 32 -4 -3 -1 -6 5 -6 7 0 12 -7 12 -16 0 -13 -3 -14 -14 -5
-9 7 -17 8 -20 3 -3 -6 1 -12 9 -16 22 -8 18 -26 -5 -26 -11 0 -20 -4 -20 -10
0 -5 -14 -10 -30 -10 -22 0 -33 -6 -40 -22 -5 -13 -9 -17 -9 -10 -1 7 -5 10
-11 7 -12 -7 -14 -46 -2 -44 19 3 22 -3 12 -22 -9 -16 -18 -19 -38 -15 -15 3
-21 3 -14 0 6 -3 10 -10 6 -15 -7 -13 -41 -11 -64 3 -16 10 -23 9 -40 -7 -13
-12 -24 -15 -28 -9 -8 11 -63 13 -56 2 2 -3 0 -17 -5 -30 -7 -16 -10 -18 -10
-6 -1 11 -6 15 -16 12 -20 -8 -19 6 3 22 16 12 15 13 -5 14 -18 0 -20 4 -14
28 6 19 3 30 -8 39 -14 11 -13 12 6 13 28 0 33 9 20 40 -5 14 -9 35 -8 47 1
12 -5 34 -13 50 -11 20 -15 23 -16 11 0 -22 -7 -23 -26 -3 -9 8 -12 19 -9 25
3 5 -1 10 -10 10 -11 0 -15 -5 -12 -14 4 -10 1 -13 -8 -10 -8 3 -11 13 -7 22
5 16 5 16 -11 0 -19 -18 -23 -33 -7 -23 6 3 10 -1 10 -9 0 -22 -27 -20 -33 2
-4 13 -5 12 -6 -5 0 -12 4 -34 9 -49 9 -23 9 -25 -4 -15 -8 7 -20 10 -26 6 -5
-3 -10 -1 -10 4 0 23 -32 10 -48 -19 -20 -35 -35 -37 -62 -10 -27 27 -26 34
15 75 29 29 33 38 23 49 -12 12 -38 6 -58 -14 -10 -10 -60 -6 -60 5 0 5 -4 4
-9 -4 -5 -8 -14 -10 -21 -6 -10 6 -9 11 4 21 10 7 13 15 7 18 -18 12 -1 34 22
29 13 -3 18 -1 12 4 -5 4 -11 15 -13 23 -7 28 -34 51 -56 44 -20 -6 -20 -6 -2
9 13 10 17 20 12 33 -7 18 -8 18 -24 -2 -10 -11 -24 -18 -31 -16 -10 3 -12 0
-8 -12 5 -14 2 -17 -15 -14 -13 2 -24 11 -26 21 -3 15 0 18 16 13 11 -4 23 -3
26 2 6 11 -31 94 -47 104 -16 10 -26 0 -20 -21 6 -24 -17 -32 -46 -17 -20 11
-21 14 -7 25 19 16 22 36 4 25 -19 -12 -58 -14 -58 -3 0 6 -5 7 -11 3 -8 -4
-4 -13 12 -25 13 -10 20 -21 16 -25 -4 -4 -7 -2 -7 5 0 7 -4 9 -10 6 -5 -3
-10 -15 -10 -26 0 -10 -4 -19 -10 -19 -19 0 -10 -21 15 -32 20 -9 22 -14 14
-29 -5 -11 -15 -19 -21 -19 -7 0 -7 4 1 14 14 17 -8 29 -30 15 -8 -5 -9 -9 -4
-9 6 0 1 -7 -9 -15 -22 -17 -71 -21 -61 -5 3 6 0 10 -8 10 -10 0 -13 -7 -10
-20 4 -17 0 -20 -26 -20 -23 0 -29 -4 -25 -15 4 -10 13 -13 25 -10 12 4 19 2
19 -6 0 -7 -3 -9 -7 -6 -3 4 -17 -8 -31 -26 -14 -17 -22 -23 -18 -13 4 13 0
23 -14 33 -25 17 -28 48 -4 39 14 -6 15 -4 4 9 -11 13 -15 13 -21 3 -7 -10 -9
-9 -9 4 0 11 -5 15 -15 12 -8 -4 -15 -1 -15 6 0 6 -4 8 -10 5 -17 -11 -11 -25
15 -35 14 -5 25 -12 25 -15 0 -4 -5 -3 -11 1 -6 3 -14 2 -18 -4 -11 -18 -51
-2 -51 19 0 11 -5 19 -11 19 -6 0 -9 -6 -6 -14 3 -8 -1 -17 -9 -20 -25 -10
-52 -7 -56 6 -3 7 -12 9 -23 4 -17 -6 -16 -9 10 -26 32 -21 57 -67 31 -57 -8
3 -17 3 -20 -1 -4 -3 -28 -6 -54 -7 -26 0 -53 -4 -59 -8 -9 -5 -13 -3 -13 7 0
9 -6 16 -12 16 -10 0 -10 2 0 8 9 6 4 14 -17 30 -16 11 -31 19 -34 16 -8 -8
18 -53 39 -69 18 -14 17 -14 -8 -15 -15 0 -32 -8 -37 -17 -6 -10 -11 -13 -11
-6 0 6 -9 9 -22 6 -23 -5 -23 -5 -3 10 23 18 20 24 -15 30 -14 2 -19 2 -12 0
17 -6 15 -20 -5 -32 -16 -8 -14 -10 10 -16 15 -4 27 -11 27 -16 0 -6 -8 -5
-19 1 -27 14 -36 13 -21 -5 6 -8 8 -20 4 -26 -4 -8 -3 -9 4 -5 7 4 12 3 12 -2
0 -22 -39 -19 -57 4 -26 35 -50 30 -44 -8 1 -11 -1 -10 -42 7 -44 18 -50 19
-41 3 5 -10 4 -10 -6 -1 -21 19 -87 -9 -92 -39 -3 -17 -6 -15 -21 10 -16 29
-16 31 0 48 16 16 16 16 -5 10 -13 -5 -22 -3 -22 3 0 6 7 11 15 11 8 0 15 5
15 10 0 6 -11 10 -25 10 -14 0 -24 3 -24 8 4 21 -2 46 -9 37 -4 -5 -15 -16
-25 -24 -15 -12 -17 -12 -11 3 4 10 0 18 -10 22 -9 3 -16 15 -16 25 0 10 -7
19 -15 19 -8 0 -15 5 -15 11 0 6 7 9 15 5 8 -3 15 -3 15 0 0 7 -27 34 -31 31
-3 -1 1 3 8 9 11 9 11 14 0 23 -8 6 -18 7 -23 3 -4 -4 -2 1 5 11 11 14 11 17
-2 17 -10 0 -13 6 -10 20 3 11 10 17 17 13 6 -3 7 -2 3 3 -5 5 -12 9 -15 10
-4 0 -16 4 -26 9 -14 6 -23 3 -32 -10 -12 -17 -14 -17 -14 -2 0 18 -55 51 -70
42 -6 -4 -26 -1 -46 5 -28 10 -38 9 -47 0 -9 -10 -7 -11 11 -5 20 6 22 3 21
-27 0 -18 -3 -27 -6 -20 -2 6 -9 10 -14 6 -5 -3 -9 2 -9 10 0 9 -9 16 -21 16
-11 0 -18 -4 -14 -9 6 -10 -11 -24 -35 -28 -8 -1 -18 3 -22 10 -16 25 -17 -2
-1 -33 14 -30 17 -32 24 -14 6 18 7 18 14 2 10 -26 -1 -47 -23 -45 -13 1 -18
6 -14 16 3 8 1 12 -4 8 -6 -3 -23 3 -40 14 -16 10 -41 19 -57 19 -24 0 -27 -3
-23 -27 6 -32 26 -54 33 -35 6 14 23 6 23 -11 0 -19 -58 -12 -83 10 -12 11
-28 18 -34 16 -8 -3 -13 3 -13 14 0 15 -2 16 -10 3 -8 -13 -10 -12 -10 3 0 9
-4 17 -10 17 -5 0 -10 -4 -10 -10 0 -5 -5 -10 -12 -10 -9 0 -9 3 0 12 17 17
15 28 -6 28 -15 0 -18 -7 -17 -35 2 -31 0 -35 -18 -29 -11 4 -23 1 -28 -7 -4
-7 -11 -10 -16 -5 -4 4 0 12 10 17 19 11 14 29 -9 29 -9 0 -12 -5 -8 -11 4 -7
0 -10 -11 -7 -23 4 -30 73 -10 102 22 31 19 36 -17 25 -18 -5 -34 -9 -35 -9
-2 0 -3 12 -3 28 1 24 2 25 14 10 7 -10 20 -18 28 -18 21 0 28 32 12 48 -18
16 -24 15 -24 -5 0 -12 -3 -14 -11 -6 -6 6 -9 19 -7 29 4 23 -37 59 -54 47
-21 -13 -56 -10 -51 4 3 7 21 13 40 13 21 0 32 4 28 11 -4 6 -20 8 -38 4 -24
-5 -28 -4 -17 4 8 6 11 11 6 11 -5 0 -3 7 4 15 10 12 10 15 -2 15 -8 0 -18 -3
-22 -7 -4 -5 -17 -8 -29 -9 -12 -1 -30 -5 -40 -9 -13 -6 -16 -4 -11 9 4 11 1
16 -10 16 -9 0 -16 5 -16 10 0 6 5 10 10 10 6 0 10 5 10 11 0 6 -9 8 -20 4
-16 -5 -20 -2 -20 17 0 13 3 18 8 12 4 -7 23 -12 42 -12 19 1 42 -2 52 -6 11
-5 18 -1 23 14 4 12 4 24 1 27 -3 4 -6 -1 -6 -11 0 -9 -4 -15 -10 -11 -5 3 -7
12 -4 19 7 19 -54 27 -71 9 -8 -7 -18 -13 -22 -12 -25 4 -34 -2 -28 -21 4 -11
2 -20 -4 -20 -6 0 -11 5 -11 11 0 8 -5 8 -15 -1 -8 -7 -15 -17 -15 -22 0 -6 7
-5 15 2 8 7 15 10 15 7 0 -3 3 -12 6 -21 5 -12 -1 -14 -27 -11 -19 2 -38 10
-44 18 -7 9 -22 13 -43 9 -37 -5 -39 -9 -14 -29 11 -9 12 -12 2 -8 -8 4 -4 -2
10 -14 l25 -20 -31 2 c-23 1 -30 6 -26 16 4 10 1 13 -11 8 -9 -3 -19 -2 -22 3
-4 6 -19 10 -36 10 -16 0 -29 5 -29 10 0 13 -60 50 -80 49 -11 0 -11 -2 -2 -6
21 -8 -32 -43 -59 -38 -13 3 -25 9 -27 14 -2 5 -19 7 -38 4 -33 -4 -35 -3 -29
16 6 20 4 21 -21 15 -19 -5 -25 -4 -20 5 4 6 2 11 -3 11 -6 0 -11 -6 -11 -13
0 -9 -12 -13 -35 -12 -20 1 -38 -2 -41 -6 -3 -5 4 -9 15 -9 29 0 51 -11 51
-25 0 -7 -8 -12 -17 -10 -29 4 -36 -6 -16 -22 15 -12 15 -14 2 -10 -9 3 -22 0
-28 -6 -8 -8 -11 -8 -11 2 0 10 -3 11 -13 2 -8 -6 -17 -7 -21 -3 -5 4 -6 -2
-4 -12 3 -17 -3 -20 -39 -20 -43 -1 -55 -9 -29 -19 7 -3 19 0 25 6 8 8 14 8
23 -2 7 -7 9 -12 3 -11 -24 5 -35 -1 -35 -20 0 -11 7 -20 16 -20 8 0 13 -4 9
-10 -3 -5 -12 -7 -20 -3 -9 3 -15 -1 -15 -9 0 -18 -38 -54 -46 -45 -4 4 -8 23
-10 44 -3 28 -2 34 6 23 8 -13 10 -13 10 3 0 9 -8 18 -17 18 -17 1 -17 2 0 6
9 2 17 10 17 16 0 16 -47 50 -71 52 -22 2 -51 25 -31 25 27 0 9 20 -34 36 -35
13 -44 21 -41 36 3 10 1 15 -4 12 -5 -3 -23 4 -39 16 -16 12 -34 19 -39 15 -6
-3 -15 4 -21 15 -12 22 -73 29 -85 10 -3 -5 -13 -10 -21 -10 -8 0 -12 5 -9 10
3 6 1 10 -4 10 -17 0 -13 -14 10 -33 11 -10 18 -21 14 -25 -3 -3 -11 0 -16 8
-8 11 -9 8 -4 -13 6 -27 4 -28 -23 -23 -15 4 -39 3 -51 -2 -22 -8 -22 -9 -6
-26 10 -9 15 -20 12 -23 -7 -6 -33 17 -35 32 -1 6 -10 11 -22 13 -11 2 -20 7
-20 12 0 14 32 21 45 10 9 -7 15 -8 19 -1 4 6 -8 14 -25 19 -31 7 -53 32 -30
32 6 0 11 -4 11 -10 0 -5 7 -10 16 -10 11 0 15 6 11 19 -3 12 1 22 10 25 8 4
12 13 9 23 -20 67 -19 72 10 79 27 7 27 7 5 15 -12 5 -20 13 -16 18 3 6 12 8
19 5 8 -3 17 0 22 7 5 8 2 11 -8 6 -9 -3 -21 0 -28 6 -10 9 -11 9 -6 0 3 -6 2
-15 -4 -18 -8 -5 -8 -11 0 -20 8 -9 6 -14 -5 -19 -8 -3 -15 -13 -15 -22 0 -10
-5 -14 -15 -10 -10 4 -15 -1 -15 -14 0 -17 -3 -18 -25 -8 -14 6 -25 17 -25 24
0 6 -7 14 -15 18 -9 3 -15 0 -15 -9 0 -8 -5 -15 -11 -15 -6 0 -9 7 -6 15 7 16
-9 30 -17 16 -4 -5 -19 -3 -36 6 -17 8 -27 19 -23 25 4 8 0 9 -11 5 -10 -4
-15 -3 -11 3 3 6 -1 13 -9 16 -9 3 -16 13 -16 21 0 8 5 11 11 7 7 -4 7 1 -1
16 -11 20 -10 22 4 17 13 -5 16 -3 12 11 -3 9 -1 24 4 32 8 12 10 8 11 -15 1
-16 1 -43 0 -58 -1 -27 0 -28 36 -21 34 6 70 24 49 24 -5 0 -3 7 4 15 21 25
-2 42 -36 26 -15 -6 -28 -10 -31 -8 -9 9 -11 47 -2 42 5 -4 9 -1 9 4 0 6 5 11
11 11 5 0 7 -4 4 -10 -3 -5 -1 -10 5 -10 20 0 6 32 -18 41 -15 6 -21 5 -17 -1
3 -6 2 -10 -3 -10 -6 0 -12 7 -16 15 -3 8 -13 15 -23 15 -15 0 -15 2 2 14 19
14 19 14 0 36 -16 18 -16 20 -2 14 9 -3 17 -2 17 4 0 5 10 8 23 7 12 -1 28 -3
35 -4 6 0 12 -14 12 -31 0 -29 6 -33 40 -31 8 0 10 -2 4 -5 -9 -4 -9 -11 0
-29 14 -31 26 -32 27 -2 1 16 2 18 6 5 2 -10 8 -18 12 -18 4 0 7 -22 6 -48 -1
-31 3 -49 10 -49 7 0 11 12 9 30 -3 23 -1 28 12 23 9 -3 20 -6 25 -6 5 0 9 -7
9 -15 0 -8 5 -15 10 -15 17 0 11 18 -14 43 -12 13 -26 30 -30 38 -3 8 -4 4 -2
-8 2 -13 1 -23 -4 -23 -10 0 -20 37 -12 44 10 11 52 6 52 -5 0 -7 12 -9 31 -7
28 4 30 3 24 -19 -4 -16 -1 -23 9 -23 8 0 16 -3 19 -7 2 -5 1 -1 -1 7 -3 8 -5
25 -5 38 1 13 -5 22 -14 22 -8 0 -17 9 -20 19 -3 11 -11 17 -18 15 -7 -3 -16
-1 -20 5 -3 7 0 8 9 5 9 -3 16 -1 16 5 0 6 -4 11 -10 11 -5 0 -10 7 -10 15 0
26 19 16 33 -17 20 -48 40 -62 66 -46 25 15 26 24 6 44 -8 9 -14 23 -14 32 1
15 2 15 6 0 2 -10 8 -18 13 -18 12 0 35 42 32 58 -3 15 14 16 23 2 4 -7 14 -3
25 10 11 13 21 17 25 10 9 -14 -4 -32 -18 -24 -7 4 -2 -3 11 -15 12 -12 22
-28 22 -36 0 -8 6 -15 14 -15 9 0 12 7 9 20 -5 17 -3 18 21 7 21 -9 26 -18 23
-35 -3 -13 2 -30 11 -38 13 -14 13 -17 1 -26 -12 -8 -12 -9 1 -5 8 2 14 11 14
20 -2 15 3 16 45 8 2 -1 -2 -8 -9 -16 -10 -13 -9 -15 9 -15 11 0 21 5 21 11 0
5 5 7 12 3 8 -5 9 -2 5 10 -5 13 -3 17 11 14 9 -2 16 -11 16 -21 -1 -9 3 -17
10 -17 6 0 5 -4 -3 -9 -11 -7 -10 -11 6 -19 12 -7 19 -20 18 -34 -1 -13 3 -26
9 -30 8 -5 7 -11 -2 -20 -18 -18 -15 -27 9 -21 13 4 18 11 14 21 -3 8 0 21 7
29 10 12 9 18 -7 30 -14 11 -16 17 -7 20 18 7 15 30 -5 42 -17 10 -17 10 1 11
16 0 17 2 5 17 -8 10 -9 14 -2 10 6 -4 14 -3 17 2 10 16 -12 22 -32 10 -12 -8
-18 -20 -15 -33 3 -19 2 -18 -9 2 -10 21 -9 26 13 44 16 13 20 21 12 25 -20 8
-15 33 7 33 10 0 23 7 28 15 5 10 15 13 25 9 9 -3 15 -10 12 -14 -3 -5 -1 -11
5 -15 13 -8 13 -25 -1 -25 -5 0 -7 5 -4 10 3 6 1 10 -4 10 -6 0 -11 -6 -12
-12 0 -10 -2 -10 -6 0 -7 19 -20 14 -26 -9 -3 -12 -3 -18 0 -15 4 3 13 0 21
-7 12 -9 16 -9 19 1 3 6 9 12 15 12 6 0 8 -7 5 -14 -4 -11 -1 -13 10 -9 12 5
14 3 8 -7 -5 -9 -4 -11 3 -6 9 5 9 13 2 26 -14 26 -12 40 5 40 7 0 18 7 23 16
7 13 11 6 16 -28 4 -29 12 -45 21 -45 18 0 20 14 3 20 -10 4 -10 7 0 18 16 18
15 29 -4 29 -11 0 -14 6 -9 21 5 16 4 19 -5 14 -9 -5 -11 -4 -6 3 4 7 4 17 0
24 -4 7 -9 24 -10 38 -3 23 -2 24 11 7 7 -11 11 -25 8 -33 -3 -8 2 -16 10 -20
9 -3 13 -13 10 -25 -3 -10 0 -19 6 -19 6 0 11 -7 11 -16 0 -9 5 -14 13 -11 46
20 67 35 76 54 7 15 16 20 26 17 10 -4 15 0 15 10 0 9 8 16 20 16 11 0 20 5
20 10 0 6 8 10 17 10 15 0 14 2 -3 14 -10 8 -16 18 -12 22 4 4 14 1 22 -5 8
-7 20 -11 28 -10 22 4 48 -12 48 -30 0 -13 -4 -12 -18 6 -16 20 -18 20 -32 5
-13 -14 -12 -15 3 -9 19 7 21 0 7 -23 -5 -9 -5 -19 1 -26 15 -19 -42 -35 -65
-19 -10 8 -13 16 -7 19 5 4 12 2 16 -3 8 -15 32 -3 38 19 3 13 0 17 -9 13 -8
-3 -14 -9 -14 -13 0 -4 -11 -5 -25 -2 -18 3 -25 0 -25 -12 0 -9 -8 -17 -17
-17 -17 -1 -17 -2 0 -6 12 -3 16 -10 12 -24 -4 -13 -2 -19 9 -19 9 0 16 -6 17
-12 0 -7 4 -3 9 9 7 16 14 21 26 16 12 -4 15 -3 10 5 -4 7 -2 12 3 12 6 0 11
-4 11 -10 0 -5 7 -10 15 -10 8 0 15 -4 15 -10 0 -5 4 -10 10 -10 16 0 -1 30
-19 31 -13 1 -13 2 2 6 19 5 20 41 2 56 -5 5 0 6 11 2 31 -8 41 34 14 57 l-20
17 20 6 c11 3 20 11 20 16 0 6 -4 7 -10 4 -6 -3 -7 1 -4 10 4 10 13 13 26 9
17 -5 19 -2 14 14 -6 19 -5 19 17 9 14 -6 22 -17 20 -24 -3 -7 -9 -10 -14 -7
-5 3 -9 -5 -9 -16 0 -15 -5 -20 -15 -17 -19 8 -31 -11 -16 -26 6 -6 11 -23 11
-38 0 -18 6 -28 20 -32 11 -3 23 -1 26 4 3 5 -2 9 -10 9 -9 0 -16 7 -16 15 0
8 5 15 10 15 6 0 10 7 10 15 0 8 6 15 13 15 9 0 8 3 -2 9 -18 11 1 47 29 54
16 4 20 1 18 -11 -2 -10 -11 -16 -21 -14 -23 4 -22 -2 8 -34 18 -19 25 -22 25
-11 0 8 -6 17 -12 20 -9 3 -7 9 6 19 12 9 16 21 12 34 -3 10 -5 21 -4 24 1 3
-4 16 -11 29 -11 19 -11 23 1 19 7 -3 14 -19 16 -36 2 -20 10 -33 23 -37 10
-4 16 -11 13 -17 -4 -6 -10 -5 -15 3 -6 10 -9 7 -9 -10 0 -13 3 -22 6 -18 3 3
19 -9 36 -26 16 -18 28 -27 26 -22 -3 11 38 56 49 54 31 -5 45 2 40 21 -6 22
8 37 18 20 10 -17 45 -12 39 5 -4 8 -1 15 5 15 6 0 11 -4 11 -8 0 -5 7 -17 16
-28 14 -18 15 -18 8 6 -4 14 -13 30 -22 36 -12 9 -10 13 12 27 14 9 31 17 38
17 11 0 10 -2 0 -9 -10 -6 -10 -10 3 -21 13 -11 15 -9 15 14 0 14 2 26 4 26 2
0 11 3 19 6 13 4 14 -1 7 -30 -8 -38 -1 -45 24 -21 17 17 26 19 26 6 0 -5 -9
-12 -19 -16 -24 -7 -37 -41 -22 -59 6 -8 8 -21 5 -31 -6 -15 -4 -16 15 -5 l23
12 -22 15 -22 15 32 30 c29 26 36 28 59 19 29 -12 113 -12 105 0 -2 4 0 10 5
13 5 4 11 -2 14 -11 3 -16 5 -16 12 2 5 11 13 24 19 28 6 4 -2 5 -19 1 -20 -4
-26 -3 -17 4 11 7 8 11 -12 14 -18 4 -26 1 -26 -8 0 -8 5 -14 11 -14 5 0 7 -5
4 -10 -4 -6 -11 -7 -17 -4 -7 4 -8 2 -4 -4 4 -7 -1 -10 -14 -9 -11 1 -20 5
-20 9 0 4 -13 8 -28 8 -37 0 -44 8 -31 33 8 14 8 21 0 27 -8 5 -7 15 4 36 13
25 22 19 15 -11 -1 -5 -4 -25 -6 -44 -4 -29 -3 -32 11 -21 8 7 15 21 15 31 0
22 11 24 28 7 8 -8 12 -9 12 -1 0 6 8 9 18 7 9 -3 27 4 40 16 25 24 31 10 6
-15 -19 -19 -15 -25 18 -29 13 -1 29 -5 34 -9 6 -3 20 0 30 9 18 14 18 15 -6
9 -23 -6 -23 -5 5 14 40 28 46 27 91 -16 21 -21 35 -33 31 -27 -4 8 6 14 28
18 19 4 35 12 36 19 1 7 4 1 8 -13 l7 -25 6 23 c4 13 1 28 -7 36 -12 11 -12
16 1 32 14 18 14 18 12 -6 -2 -16 2 -25 12 -25 8 -1 14 -7 12 -14 -2 -8 4 -10
17 -6 17 5 20 2 18 -21 -1 -15 4 -29 12 -32 9 -3 11 1 6 17 -7 23 -15 154 -8
134 3 -7 11 -13 19 -13 7 0 11 6 8 14 -4 11 0 13 16 9 14 -4 18 -8 10 -13 -7
-5 -9 -16 -5 -29 3 -12 10 -19 15 -16 5 3 6 13 3 21 -5 14 -3 15 15 5 28 -15
35 -14 28 4 -3 8 -1 15 4 15 6 0 10 -5 10 -11 0 -8 4 -8 14 0 16 14 27 61 13
58 -5 -1 -11 3 -14 9 -3 10 13 11 50 5z m-2450 -248 c10 -12 13 -28 10 -46 -4
-23 -12 -28 -44 -33 -36 -6 -39 -9 -39 -40 0 -31 2 -33 29 -29 24 3 30 -1 34
-21 3 -20 2 -22 -10 -12 -8 6 -13 7 -12 2 2 -5 -5 -24 -14 -42 -16 -29 -19
-31 -33 -17 -9 8 -21 15 -27 15 -7 0 -4 5 6 11 13 8 22 7 33 -1 8 -7 14 -8 14
-2 0 5 -6 15 -14 21 -18 15 -46 2 -75 -35 -24 -30 -42 -24 -23 6 7 12 8 20 2
20 -5 0 -10 -4 -10 -10 0 -12 -21 -5 -87 28 -33 16 -49 30 -46 39 3 8 -2 13
-13 13 -9 0 -15 3 -11 6 8 9 48 -6 42 -16 -9 -15 26 -34 76 -40 37 -5 49 -3
49 7 0 7 -10 14 -22 14 l-23 2 23 4 c14 3 22 12 22 24 0 10 2 19 4 19 2 0 11
3 19 6 8 3 24 -4 35 -16 l19 -21 6 51 c7 57 1 80 -20 80 -8 0 -11 5 -8 10 4 6
11 8 16 5 5 -4 17 -1 26 4 26 15 48 13 66 -6z m-1460 -240 c-5 -12 -3 -14 8
-8 12 7 11 6 -1 -9 -8 -11 -16 -14 -18 -7 -4 12 -32 16 -32 4 0 -3 7 -14 15
-23 12 -13 12 -24 4 -54 -14 -52 -7 -66 36 -66 19 0 35 -5 35 -11 0 -6 -7 -9
-15 -5 -15 5 -22 -9 -7 -17 4 -2 0 -2 -8 1 -15 4 -41 5 -92 3 -16 -1 -28 -6
-28 -12 0 -5 8 -9 18 -8 35 3 43 -2 58 -36 18 -43 18 -46 -1 -39 -10 4 -15 0
-15 -10 0 -10 7 -16 16 -14 9 2 23 -7 31 -20 15 -21 15 -22 -8 -18 -13 2 -23
9 -21 15 3 14 -25 15 -33 1 -3 -5 -1 -10 6 -10 7 0 4 -6 -6 -14 -25 -18 -38
-10 -25 14 14 26 12 70 -2 70 -10 0 -10 2 -1 8 9 6 7 13 -8 26 -12 9 -24 15
-27 11 -4 -3 0 -10 8 -16 13 -8 11 -13 -9 -30 -19 -15 -26 -17 -32 -7 -6 9 -9
7 -9 -7 0 -17 -2 -17 -10 -5 -8 12 -10 11 -10 -7 0 -13 5 -23 11 -23 5 0 7 -5
4 -11 -5 -6 -12 -4 -20 8 -7 10 -17 15 -21 10 -4 -4 -2 -13 4 -19 13 -13 16
-32 4 -24 -4 2 -14 1 -22 -4 -11 -7 -12 -12 -3 -21 15 -15 90 -22 98 -9 3 6
-1 10 -9 10 -9 0 -16 5 -16 11 0 7 10 5 25 -5 15 -10 34 -14 48 -11 13 4 31 7
40 9 9 1 20 5 23 9 12 12 34 8 30 -5 -1 -7 -1 -10 1 -5 3 4 20 7 39 7 21 0 33
-4 29 -10 -10 -15 18 -12 43 6 12 8 27 12 32 9 6 -3 10 -1 10 4 0 6 -6 11 -12
11 -9 0 -9 3 -2 8 6 4 13 15 17 25 5 13 13 16 26 12 11 -3 22 -1 26 5 3 5 0
10 -8 10 -8 0 -17 6 -20 14 -3 7 -15 16 -27 19 -17 4 -20 1 -18 -15 2 -14 -6
-23 -28 -33 -29 -12 -32 -11 -29 3 1 10 -6 29 -17 44 -11 17 -15 29 -8 33 6 4
8 11 5 16 -3 5 1 6 10 3 9 -4 13 -9 10 -12 -8 -8 26 -42 36 -36 13 8 11 68 -3
82 -9 9 -8 12 5 12 10 0 30 12 44 28 28 29 28 31 6 -40 -4 -15 -3 -19 5 -14 7
4 12 14 12 22 0 18 8 18 26 -1 9 -8 27 -15 42 -16 24 0 25 -1 7 -9 -16 -7 -17
-9 -3 -9 9 -1 24 6 33 15 19 19 33 11 17 -9 -9 -11 -6 -14 18 -14 17 0 33 -2
36 -5 9 -9 -29 -48 -46 -48 -12 0 -12 2 -2 9 10 6 9 10 -7 14 -32 8 -26 -21 7
-34 15 -7 22 -13 15 -16 -7 -3 -13 -11 -13 -19 0 -9 -4 -13 -9 -10 -5 3 -13 0
-19 -7 -9 -10 -1 -12 34 -12 26 1 49 -4 56 -12 7 -9 7 -13 0 -13 -6 0 -12 4
-14 9 -1 4 -12 5 -23 0 -19 -7 -19 -8 3 -8 12 -1 22 -5 22 -10 0 -14 29 -22
58 -14 27 7 27 7 4 12 -13 3 -23 10 -22 14 1 5 -7 15 -17 22 -17 13 -17 15 0
32 10 10 17 13 17 5 0 -7 8 -12 18 -11 10 0 12 3 5 6 -7 2 -13 14 -13 25 0 14
-5 18 -15 14 -8 -3 -15 -1 -15 5 0 16 29 22 45 9 34 -28 56 18 26 54 -11 13
-9 16 13 22 15 3 35 18 46 31 12 16 20 20 21 12 0 -8 2 -22 4 -32 2 -12 -1
-17 -10 -14 -7 3 -18 0 -24 -6 -21 -21 -11 -25 21 -9 18 8 56 16 86 16 41 1
57 6 68 20 10 15 14 16 14 5 0 -8 -5 -20 -12 -27 -9 -9 -7 -12 9 -12 12 0 25
-5 29 -12 5 -7 0 -9 -14 -6 -14 4 -19 2 -16 -7 3 -7 -3 -15 -13 -18 -13 -3
-11 -5 7 -6 36 -2 58 -22 50 -45 -6 -18 -7 -18 -23 4 -9 13 -19 21 -22 19 -2
-3 5 -15 16 -28 11 -12 18 -29 15 -37 -3 -7 -1 -14 4 -14 6 0 10 -7 10 -16 0
-10 6 -14 15 -11 8 4 17 2 20 -3 4 -6 14 -10 23 -10 14 0 14 2 3 9 -11 7 -9
10 8 16 11 3 21 11 21 17 0 7 -4 7 -13 -1 -11 -8 -18 -7 -31 7 -9 10 -13 22
-9 25 3 4 1 7 -6 7 -7 0 -11 -6 -8 -14 3 -8 -1 -17 -9 -20 -16 -6 -20 29 -5
39 6 3 8 14 6 24 -3 17 1 19 33 15 35 -5 36 -4 18 10 -11 9 -16 19 -13 23 4 4
14 -3 22 -14 16 -22 50 -27 73 -10 8 7 12 5 12 -7 0 -9 6 -16 13 -16 8 0 7 -4
-3 -10 -12 -8 -12 -10 5 -10 11 0 26 9 33 21 l14 21 20 -21 c15 -17 17 -25 8
-36 -6 -8 -9 -19 -5 -24 3 -6 -3 -16 -15 -23 -11 -7 -20 -17 -20 -22 0 -4 7
-3 15 4 12 10 16 9 21 -4 3 -9 13 -16 21 -16 9 0 13 6 9 15 -3 8 -2 15 3 15 5
0 11 -9 14 -20 4 -15 0 -20 -14 -20 -10 0 -18 -6 -16 -12 1 -7 -4 -12 -12 -10
-18 4 -51 -27 -51 -48 0 -10 -7 -20 -15 -24 -17 -6 -45 19 -45 40 0 8 -4 14
-10 14 -5 0 -10 5 -10 10 0 21 20 9 26 -15 3 -14 9 -25 13 -25 15 0 20 13 11
29 -7 13 -2 20 23 31 29 13 30 14 9 21 -12 5 -22 13 -22 19 0 16 -19 12 -47
-10 -14 -11 -37 -20 -52 -21 -22 0 -23 -1 -7 -8 18 -7 18 -8 2 -14 -11 -4 -14
-12 -10 -19 6 -10 3 -9 -9 0 -18 15 -37 8 -37 -14 0 -8 -6 -14 -14 -14 -8 0
-17 -6 -19 -12 -3 -8 -6 -5 -6 5 -1 15 -8 18 -33 15 -26 -2 -35 2 -45 22 -10
21 -13 22 -19 7 -3 -10 -17 -17 -31 -17 -20 0 -24 4 -20 20 3 11 1 20 -4 20
-4 0 -6 7 -3 15 4 8 2 15 -4 15 -14 0 -19 -19 -16 -58 1 -23 -4 -37 -19 -48
-22 -16 -21 -16 8 -11 41 7 65 -6 39 -22 -16 -9 -16 -12 -5 -20 10 -6 5 -11
-19 -16 -24 -5 -29 -10 -19 -16 11 -7 10 -9 -3 -9 -10 0 -18 -6 -18 -14 0 -8
-6 -16 -12 -18 -7 -3 -13 -13 -13 -23 0 -10 -6 -20 -14 -23 -10 -3 -12 1 -9
16 7 27 -17 51 -34 34 -9 -9 -9 -12 1 -12 8 0 11 -6 7 -15 -3 -9 0 -25 7 -36
10 -16 9 -21 -3 -29 -23 -15 -30 -12 -31 13 -1 16 -2 18 -6 5 -2 -10 -12 -18
-21 -18 -15 -1 -15 -2 1 -11 24 -14 21 -28 -8 -35 -14 -3 -25 -10 -25 -15 0
-5 -11 -7 -24 -3 -25 6 -66 -27 -66 -53 0 -8 -4 -11 -10 -8 -5 3 -10 -1 -10
-9 0 -8 9 -16 21 -18 l20 -3 -21 -22 c-14 -15 -16 -23 -8 -23 8 0 14 -9 14
-20 0 -11 -6 -20 -13 -20 -7 0 -13 -6 -14 -12 0 -7 -4 -4 -8 7 -7 17 -9 15
-13 -13 -3 -21 0 -32 8 -32 6 0 17 -7 24 -15 10 -12 10 -15 -4 -15 -9 0 -16
-4 -16 -9 0 -5 -9 -11 -20 -14 -21 -5 -28 9 -8 15 7 3 5 7 -6 11 -9 4 -15 3
-12 -2 12 -18 -46 -22 -65 -5 -12 11 -19 13 -19 5 0 -7 -5 -9 -10 -6 -8 5 -7
11 1 21 7 9 8 14 1 14 -6 0 -14 -4 -17 -10 -9 -15 -45 12 -45 33 0 10 -5 15
-11 12 -6 -4 -8 -14 -5 -24 5 -14 4 -13 -8 2 -7 9 -21 17 -30 17 -9 0 -16 4
-16 8 0 5 10 8 23 7 12 -1 32 3 45 8 l23 11 -23 13 c-13 7 -18 12 -12 13 8 0
5 13 -7 37 -27 53 -59 71 -59 32 0 -13 -8 -23 -21 -26 -14 -4 -17 -8 -9 -13
17 -11 1 -33 -18 -25 -8 3 -19 0 -24 -7 -6 -10 -8 -9 -8 3 0 9 -7 19 -15 23
-8 3 -15 10 -15 17 0 6 6 9 14 6 18 -7 42 18 26 28 -5 3 -15 3 -21 -1 -6 -3
-15 -1 -19 6 -12 19 -41 5 -33 -16 5 -14 3 -15 -15 -5 -25 13 -35 14 -28 3 5
-9 -28 -42 -43 -42 -4 0 -8 14 -9 31 -1 26 3 30 18 26 13 -3 17 0 13 9 -3 8
-12 13 -21 12 -8 -2 -17 2 -19 9 -3 7 3 9 17 6 20 -5 21 -4 9 15 -10 15 -17
18 -26 11 -9 -8 -20 -4 -40 15 -30 28 -28 31 11 16 28 -10 33 -5 14 13 -7 7
-28 12 -46 13 -35 1 -50 10 -38 21 4 4 16 2 26 -5 26 -16 30 -15 30 4 0 18
-27 43 -46 44 -7 0 -14 -9 -17 -20 -3 -11 -13 -20 -24 -20 -18 -1 -76 -29 -60
-30 5 0 1 -8 -8 -17 -14 -14 -20 -14 -37 -4 -16 10 -19 10 -12 -1 6 -10 4 -10
-9 1 -9 7 -14 18 -10 24 4 6 -2 8 -15 5 -24 -7 -25 -6 -16 16 3 9 12 16 20 16
8 0 14 5 14 10 0 7 -6 7 -20 0 -11 -6 -20 -8 -20 -5 0 3 -6 0 -14 -7 -8 -7
-12 -16 -10 -20 2 -4 -11 -12 -30 -19 -19 -7 -33 -16 -30 -21 9 -14 -13 -9
-26 7 -7 8 -19 15 -27 15 -11 0 -8 -6 8 -20 19 -15 21 -19 7 -20 -9 0 -23 7
-32 15 -8 8 -17 15 -20 15 -3 0 -3 -7 0 -15 7 -17 -11 -21 -21 -4 -4 6 -13 8
-21 5 -8 -3 -14 -1 -14 4 0 6 9 10 20 10 13 0 20 7 20 20 0 15 -7 20 -29 20
-17 0 -32 4 -35 9 -3 4 -16 6 -29 4 -14 -3 -31 2 -40 11 -9 10 -17 12 -19 5
-4 -13 -58 9 -58 24 0 5 -7 7 -15 3 -9 -3 -15 0 -15 10 0 8 4 13 9 9 5 -3 13
0 16 6 4 6 -2 13 -14 16 -12 3 -21 12 -21 19 0 17 -16 18 -24 2 -3 -7 -4 13
-3 45 3 44 1 57 -9 53 -8 -3 -11 0 -7 10 6 16 29 19 38 4 4 -6 11 -7 17 -4 5
4 -2 14 -17 24 l-27 18 28 -2 c16 -1 43 -9 59 -18 17 -8 36 -13 43 -11 6 3 12
0 12 -5 0 -5 7 -13 15 -16 11 -4 15 0 13 12 -4 21 -43 43 -63 35 -8 -3 -15 0
-15 6 0 6 8 11 18 11 13 0 14 2 3 9 -10 7 -8 12 10 24 12 9 25 14 29 12 4 -2
7 2 7 8 0 7 -8 14 -18 14 -10 1 -18 -3 -16 -10 1 -6 -6 -13 -15 -15 -23 -5
-13 27 14 46 19 14 25 52 8 52 -6 0 -14 -8 -17 -17 -15 -41 -43 -32 -43 14 0
17 -4 21 -17 16 -12 -5 -15 -2 -10 10 6 16 -9 23 -36 18 -18 -3 0 22 21 30 17
7 20 5 15 -9 -6 -14 -4 -15 9 -4 12 10 17 10 27 -1 6 -8 8 -16 5 -19 -3 -3 0
-9 6 -13 6 -3 10 -3 9 2 -3 19 2 23 21 13 16 -9 18 -8 14 5 -4 10 0 15 10 15
9 0 15 -5 13 -12 -1 -6 7 -14 17 -16 14 -3 17 0 13 11 -3 9 -1 18 6 21 7 2 0
5 -15 5 -19 1 -28 6 -28 17 0 10 -6 14 -14 11 -10 -4 -12 0 -9 14 3 10 10 19
15 19 5 0 6 9 3 20 -5 14 -2 20 9 20 9 0 16 -6 16 -14 0 -23 26 -26 43 -5 16
18 16 19 -5 19 -34 0 -14 10 26 14 20 1 39 -1 42 -6 3 -4 -2 -8 -11 -8 -12 0
-15 -5 -11 -16 3 -9 6 -18 6 -20 0 -3 5 -2 10 1 6 3 10 -1 10 -9 0 -11 -6 -13
-29 -6 -15 4 -33 5 -40 1 -12 -8 -10 -58 3 -79 4 -7 3 -12 -3 -12 -6 0 -8 -7
-5 -15 4 -10 0 -15 -12 -16 -16 -1 -17 -2 -2 -6 11 -3 15 -10 11 -21 -3 -9 5
-5 18 11 45 52 115 51 158 -1 13 -16 13 -16 7 2 -4 13 -2 17 7 13 8 -3 14 1
14 9 0 7 -4 11 -9 8 -16 -10 -58 6 -58 21 0 11 -5 12 -26 5 -14 -6 -40 -9 -57
-9 -18 1 -25 3 -16 6 20 5 32 40 15 46 -6 3 6 4 26 4 21 -1 34 -3 30 -6 -11
-9 -14 -33 -2 -26 15 9 51 -5 44 -17 -5 -7 -2 -8 6 -3 7 4 16 2 22 -6 7 -11 8
-9 6 6 -2 15 2 20 16 18 18 -1 45 22 46 39 0 4 -12 9 -27 11 -24 3 -22 4 8 6
26 1 36 -3 36 -14 0 -8 -4 -15 -9 -15 -5 0 -7 -4 -4 -9 3 -5 21 -9 40 -8 33 1
34 2 30 31 -4 23 -3 27 4 16 6 -8 8 -18 6 -22 -3 -4 1 -8 10 -8 8 0 17 -6 19
-12 4 -10 8 -9 16 2 6 8 10 20 10 25 0 6 -3 4 -6 -2 -6 -17 -23 -17 -23 0 0
20 -38 38 -68 31 -26 -5 -26 -5 -7 11 20 16 30 16 69 -1 16 -6 18 -4 13 9 -3
9 -2 17 3 17 6 0 10 -3 10 -7 0 -5 13 -17 27 -27 23 -17 26 -17 20 -3 -4 10
-2 17 5 17 6 0 1 9 -11 19 -15 13 -18 22 -11 26 6 4 12 5 13 4 1 -2 7 -13 13
-24 6 -11 10 -30 9 -42 -1 -13 2 -23 7 -23 4 0 7 -6 5 -12 -1 -8 8 -13 21 -12
12 0 22 -3 22 -8 0 -4 -10 -8 -22 -9 -13 0 -17 -3 -11 -6 10 -3 10 -10 2 -24
-5 -11 -7 -24 -3 -30 4 -7 -5 -9 -25 -6 -17 3 -29 2 -26 -3 3 -4 -4 -10 -15
-13 -23 -6 -27 -27 -5 -27 8 0 15 4 15 8 0 8 23 12 80 14 19 1 29 3 22 6 -6 2
-10 8 -6 13 3 5 0 9 -6 9 -6 0 -8 5 -5 10 10 17 21 11 35 -17 12 -26 13 -27
20 -8 5 14 2 22 -9 27 -10 4 -11 7 -3 7 7 1 29 8 50 18 20 9 43 15 51 14 7 -1
10 2 6 8 -3 6 -13 11 -21 11 -8 0 -14 7 -14 15 0 8 5 15 10 15 6 0 10 5 10 11
0 6 -9 8 -20 4 -16 -5 -20 -2 -20 16 0 18 2 19 15 9 13 -11 18 -10 30 6 17 22
19 7 5 -30 -8 -23 -7 -26 18 -32 15 -4 29 -11 32 -15 3 -4 12 -4 20 1 12 8 12
10 -2 15 -15 6 -15 8 3 26 23 23 53 15 46 -13 -5 -16 0 -18 34 -16 23 2 39 8
39 16 0 6 -4 12 -10 12 -5 0 -10 7 -10 15 0 8 -4 15 -10 15 -5 0 -10 10 -10
23 -1 58 -4 66 -22 56 -14 -7 -16 -6 -12 6 4 8 16 15 28 16 11 0 35 9 51 19
17 10 31 19 32 19 1 1 -1 -6 -4 -16z m-1536 -369 c12 -12 18 -12 23 -3 4 6 12
9 18 5 6 -3 13 -2 17 4 10 16 19 12 32 -17 11 -23 10 -28 -9 -45 -24 -21 -49
-23 -66 -6 -13 13 -15 8 -6 -16 4 -10 18 -16 40 -16 33 0 41 -13 35 -52 0 -5
6 -8 14 -8 8 0 15 -4 15 -10 0 -9 -34 -15 -72 -12 -13 1 -18 -6 -18 -23 0 -16
6 -25 16 -25 8 0 12 -5 9 -10 -4 -6 -11 -8 -16 -4 -5 3 -16 0 -24 -6 -10 -9
-15 -9 -15 -1 0 12 -46 26 -72 22 -13 -2 -18 5 -18 23 0 26 -15 43 -24 27 -4
-5 -2 -12 4 -16 19 -12 11 -45 -10 -45 -11 0 -20 7 -20 15 0 8 -4 15 -10 15
-5 0 -10 -9 -10 -20 0 -20 36 -43 53 -33 4 2 7 0 7 -5 0 -5 10 -12 23 -16 31
-9 4 -25 -35 -21 -19 3 -28 0 -28 -10 0 -23 -20 -28 -39 -11 -10 9 -21 13 -24
9 -12 -12 -7 -22 8 -17 8 4 15 2 15 -2 0 -13 -20 -41 -20 -28 0 6 -11 16 -25
22 -14 6 -25 17 -25 24 0 18 34 87 43 88 4 0 18 9 30 21 20 19 21 20 2 13 -11
-4 -24 -10 -30 -14 -9 -6 -28 -6 -40 0 -3 1 -9 3 -14 4 -20 2 -23 16 -4 16 12
0 23 6 26 14 3 9 15 12 31 9 15 -3 26 -1 26 6 0 6 7 11 16 11 8 0 12 -4 9 -10
-10 -15 5 -12 22 6 10 10 19 12 26 5 5 -5 16 -6 26 -1 9 5 31 14 48 20 19 7
30 17 26 23 -5 8 -8 7 -11 -1 -2 -7 -19 -12 -38 -12 -29 0 -34 3 -33 23 0 12
3 16 6 10 8 -22 21 -14 32 19 9 24 8 33 -1 39 -10 6 -8 12 7 23 26 20 33 20
52 0z m9219 -19 c-3 -8 -1 -15 5 -15 6 0 9 -7 5 -15 -7 -19 -2 -19 16 -1 20
20 58 30 58 15 0 -9 4 -8 15 1 12 10 15 9 15 -5 0 -14 -6 -16 -29 -12 -19 4
-31 2 -34 -7 -4 -9 7 -13 39 -13 38 -1 43 2 41 20 -1 11 4 22 11 24 7 3 12 -4
12 -17 0 -15 5 -20 14 -17 8 3 17 1 20 -6 3 -7 4 3 3 22 -1 20 3 36 11 38 7 3
10 -1 6 -11 -4 -11 -1 -16 11 -16 9 0 13 5 10 10 -11 18 21 11 42 -9 12 -11
23 -18 26 -15 2 3 2 -7 0 -21 -7 -35 22 -44 48 -16 22 23 35 26 44 11 3 -5 -1
-10 -9 -10 -18 0 -21 -16 -6 -25 6 -3 10 -2 10 4 0 5 6 8 13 7 21 -3 38 -17
32 -27 -4 -5 3 -9 14 -9 13 0 21 7 22 18 0 13 2 14 6 2 4 -8 15 -21 25 -28 10
-7 16 -17 14 -21 -3 -4 4 -12 15 -19 14 -9 19 -9 19 -1 0 8 6 7 17 -2 15 -12
16 -12 9 6 -18 44 -18 55 -3 55 8 0 22 3 31 6 24 9 32 -24 10 -42 -11 -9 -13
-13 -6 -9 7 4 16 -3 21 -17 11 -29 6 -38 -21 -38 -14 0 -18 -5 -14 -16 4 -10
-1 -22 -11 -31 -13 -10 -14 -16 -6 -19 7 -3 9 -12 6 -20 -7 -20 -24 -17 -21 4
2 11 -3 16 -13 14 -9 -1 -19 4 -22 12 -3 8 -15 12 -31 9 -15 -3 -31 1 -41 10
-18 19 -19 28 -2 26 34 -4 70 2 61 10 -5 5 -25 6 -44 2 -26 -5 -35 -12 -36
-28 -1 -11 -4 -25 -7 -31 -4 -5 8 -13 27 -16 26 -5 36 -13 40 -32 5 -19 11
-24 24 -20 13 5 13 3 -2 -9 -20 -15 -20 -15 0 -16 15 -1 15 -2 3 -6 -11 -3
-15 -11 -11 -25 2 -11 1 -23 -4 -27 -6 -3 -17 -22 -27 -41 -16 -34 -15 -35 3
-38 11 -2 20 -7 20 -12 0 -5 -7 -7 -15 -4 -8 4 -15 1 -15 -5 0 -6 -6 -11 -13
-11 -15 0 -42 47 -38 67 1 6 -3 14 -9 18 -5 3 -10 2 -10 -4 0 -5 -9 -13 -20
-16 -15 -5 -19 -12 -15 -25 3 -10 2 -21 -3 -24 -5 -3 -7 -16 -5 -29 3 -13 -2
-29 -10 -35 -12 -10 -13 -19 -4 -48 9 -29 8 -37 -4 -45 -10 -6 -11 -9 -1 -9 7
0 10 -4 7 -10 -3 -5 -2 -10 4 -10 5 0 13 5 16 10 10 17 35 11 33 -7 -3 -45 3
-74 15 -70 6 2 11 16 9 30 -3 30 13 44 33 27 22 -18 -17 -86 -54 -93 -33 -7
-71 1 -71 15 0 6 -11 3 -25 -6 -13 -9 -33 -16 -45 -16 -11 0 -20 -5 -20 -10 0
-12 -41 -3 -79 16 -14 8 -31 14 -37 14 -7 0 -14 7 -18 15 -4 11 -17 13 -51 10
-34 -4 -45 -1 -45 9 0 8 -6 17 -12 19 -9 4 -9 8 -3 14 6 4 11 16 11 25 2 17
-18 15 -43 -4 -7 -6 -14 -4 -20 5 -4 7 -17 17 -28 21 -20 8 -20 8 -1 15 17 7
18 8 3 14 -12 4 -17 18 -17 42 0 52 16 78 43 69 19 -6 20 -5 10 8 -7 8 -10 18
-6 21 3 4 1 7 -6 7 -7 0 -11 6 -8 14 3 8 0 17 -8 20 -13 5 -10 46 4 46 3 0 12
4 20 9 12 8 12 12 -2 26 -9 9 -21 23 -26 32 -8 15 -11 15 -23 2 -8 -8 -14 -24
-13 -36 1 -21 -21 -40 -33 -28 -3 3 1 5 8 5 7 0 11 2 8 5 -3 3 -13 3 -22 -1
-21 -8 -2 -34 25 -34 25 0 24 -17 0 -25 -20 -6 -48 -61 -37 -72 3 -3 6 -2 6 3
0 5 14 9 30 10 17 1 30 -2 30 -5 -1 -15 -30 -42 -38 -37 -5 3 -12 -4 -15 -15
-9 -35 -43 -20 -40 18 2 19 -3 33 -11 36 -12 5 -13 13 -7 46 1 2 9 -3 19 -10
16 -13 16 -13 2 5 -11 14 -12 20 -3 23 14 5 6 33 -9 33 -6 0 -8 -6 -6 -12 3
-7 -2 -21 -12 -30 -16 -17 -17 -17 -30 7 -7 14 -20 25 -28 25 -9 0 -24 8 -34
17 -11 10 -19 13 -18 8 4 -20 -1 -23 -35 -15 -19 4 -33 4 -30 0 7 -11 -43 -22
-66 -15 -20 7 -26 30 -9 40 6 3 10 15 10 26 0 11 7 22 15 25 8 4 15 12 15 20
0 8 4 14 9 14 5 0 7 -8 4 -19 -6 -23 14 -38 30 -22 9 9 7 10 -8 5 -14 -5 -9 3
14 26 21 21 30 35 22 38 -9 3 -9 7 1 20 11 13 11 14 0 8 -11 -6 -13 -1 -11 25
2 19 8 37 14 41 5 4 -1 11 -15 16 -22 8 -20 9 19 16 23 3 39 11 36 16 -3 6 1
10 9 10 9 0 16 -5 16 -11 0 -6 7 -3 16 5 17 18 54 22 54 6 0 -5 -9 -10 -21
-10 -11 0 -18 -3 -15 -8 7 -11 96 -2 96 11 0 6 -3 8 -6 4 -8 -7 -34 17 -34 32
0 6 -4 11 -10 11 -5 0 -10 -4 -10 -9 0 -5 -8 -7 -19 -4 -10 3 -22 0 -25 -6
-11 -16 -26 -13 -26 5 0 11 -6 15 -20 11 -11 -3 -20 -1 -20 3 0 5 20 12 45 16
25 3 45 11 45 16 0 6 12 8 30 5 25 -5 30 -3 30 12 0 14 5 18 21 14 15 -4 17
-8 8 -14 -8 -4 -11 -10 -8 -14 5 -4 85 -13 137 -15 22 0 13 -20 -10 -20 -36 0
-5 -22 34 -24 44 -3 58 3 51 21 -4 11 -2 14 5 9 7 -4 12 -2 12 4 0 7 -7 9 -15
6 -8 -3 -22 -9 -30 -12 -9 -4 -17 1 -21 10 -3 9 -14 16 -24 16 -10 0 -23 7
-30 15 -15 18 -42 19 -58 3 -9 -9 -12 -8 -12 6 0 9 4 15 9 12 5 -3 11 1 15 9
3 8 17 15 30 15 17 0 24 -4 20 -13 -3 -8 4 -13 17 -14 16 -2 19 1 11 9 -14 14
-4 38 15 38 9 0 13 -6 9 -15z m-9053 -42 c-7 -2 -13 -9 -13 -15 0 -6 7 -7 16
-4 24 9 74 -16 74 -36 0 -10 7 -18 15 -18 8 0 15 -6 15 -12 0 -9 3 -8 10 2 8
12 10 12 15 -2 4 -9 18 -19 31 -22 14 -4 22 -11 19 -16 -3 -6 -1 -10 4 -10 15
0 13 -22 -5 -45 -12 -17 -16 -18 -24 -5 -5 8 -11 12 -14 9 -3 -2 -1 -11 4 -18
7 -12 13 -12 42 2 l33 16 6 -37 c4 -20 6 -38 5 -38 0 -1 -16 -5 -33 -9 -23 -4
-33 -3 -33 6 0 8 -12 10 -40 6 -21 -3 -40 -1 -42 5 -6 16 -55 -12 -67 -38 -13
-30 -27 -31 -41 -3 -9 16 -18 19 -36 15 -17 -5 -24 -2 -24 9 0 15 -4 17 -51
18 -21 1 -25 5 -21 25 4 19 9 22 28 18 14 -4 24 -2 24 4 0 5 12 10 26 10 15 0
23 4 19 11 -4 6 -13 8 -21 5 -27 -10 -9 19 20 31 33 15 39 16 33 6 -3 -5 8 -8
24 -9 15 -1 26 3 23 7 -3 5 -12 9 -20 9 -8 0 -12 4 -9 10 3 5 -6 12 -20 16
-13 3 -22 10 -19 15 3 5 -2 9 -11 9 -12 0 -15 5 -9 22 8 26 43 58 64 57 10 0
11 -2 3 -6z m3851 -88 c4 -14 11 -23 16 -20 6 3 10 1 10 -4 0 -6 7 -11 16 -11
8 0 12 5 9 10 -9 14 8 13 23 -2 9 -9 12 -9 12 3 0 12 2 12 10 -1 8 -12 10 -12
10 5 0 14 3 16 9 7 9 -14 32 -13 43 3 5 6 8 5 8 -2 0 -7 -10 -21 -22 -33 -19
-17 -19 -20 -5 -21 9 -1 22 -3 27 -4 6 -1 17 -3 25 -4 8 0 12 -7 9 -16 -5 -11
-2 -13 10 -9 11 4 16 0 16 -14 0 -26 19 -39 31 -21 7 11 9 10 9 -4 0 -10 7
-20 16 -24 8 -3 13 -11 10 -18 -3 -8 2 -16 11 -19 21 -9 31 3 13 14 -8 6 -12
10 -8 10 3 0 14 3 24 7 13 5 15 3 9 -8 -8 -12 -6 -12 9 0 16 13 16 15 1 24
-15 8 -15 10 2 23 22 16 63 18 63 3 0 -6 7 -8 15 -5 9 3 18 -1 21 -9 7 -17 24
-20 24 -6 0 6 -13 18 -30 28 -34 20 -39 32 -12 32 9 -1 27 2 38 6 16 5 23 2
27 -14 2 -11 0 -22 -7 -25 -6 -2 -3 -5 7 -5 9 -1 17 -6 17 -12 0 -5 -4 -7 -10
-4 -5 3 -10 -1 -10 -9 0 -9 -8 -16 -17 -17 -11 0 -13 -3 -5 -6 6 -2 9 -9 6
-15 -4 -6 1 -8 14 -4 15 5 22 2 27 -14 3 -11 15 -20 26 -20 10 0 19 -2 19 -3
0 -13 -33 -67 -40 -67 -5 0 -7 -6 -4 -14 3 -8 0 -17 -5 -21 -6 -3 -9 -11 -6
-16 3 -5 -1 -6 -9 -3 -9 3 -16 1 -16 -5 0 -6 -7 -11 -15 -11 -8 0 -15 7 -15
15 0 8 -4 15 -10 15 -5 0 -10 -5 -10 -11 0 -13 -53 -2 -58 12 -2 5 -17 9 -33
9 -16 0 -29 4 -29 9 0 5 -10 12 -22 14 -15 3 -10 5 13 6 34 1 36 3 33 31 -2
17 1 30 7 30 5 0 4 6 -3 14 -7 7 -18 11 -25 9 -6 -3 -22 1 -35 7 -19 10 -21
10 -10 -1 14 -15 16 -33 3 -24 -5 3 -12 -4 -16 -15 -7 -21 -25 -28 -25 -10 0
6 -12 8 -27 5 -23 -4 -25 -4 -8 4 11 5 16 10 10 11 -5 1 -1 5 10 10 20 8 20 8
1 16 -12 5 -21 3 -24 -4 -2 -6 -11 -8 -20 -5 -9 3 -14 3 -10 -2 8 -9 -15 -35
-31 -35 -14 0 -14 -21 0 -40 8 -12 9 -10 4 8 -5 16 -2 22 8 22 9 0 18 6 20 13
3 6 3 -4 0 -23 -3 -27 -2 -31 6 -20 9 13 11 12 11 -5 -1 -31 -24 -57 -38 -43
-9 9 -15 9 -24 -1 -11 -10 -9 -12 7 -9 13 2 20 -3 20 -12 0 -8 5 -19 10 -23 6
-6 6 -10 -2 -14 -7 -2 -13 -9 -13 -14 0 -6 6 -7 12 -2 7 4 26 7 43 6 16 -1 22
1 12 3 -9 3 -15 9 -12 14 3 5 12 7 20 3 17 -6 20 -43 4 -43 -8 0 -7 -6 2 -16
13 -15 11 -17 -18 -12 -27 4 -33 0 -47 -29 -16 -33 -30 -41 -41 -24 -3 5 5 13
17 17 21 6 21 7 3 20 -10 7 -18 27 -19 44 -1 39 -10 38 -30 -4 -20 -42 -20
-41 0 -61 20 -20 11 -45 -16 -45 -21 0 -27 -14 -10 -25 13 -8 13 -25 1 -25
-13 0 -80 43 -81 52 0 10 42 48 53 48 6 0 2 -9 -8 -20 -15 -17 -16 -20 -3 -20
24 0 41 27 34 55 -4 16 -2 25 5 25 6 0 8 7 5 17 -4 9 -1 20 6 24 10 6 8 12 -7
24 -11 9 -14 14 -7 10 22 -11 19 60 -4 86 -8 8 -14 23 -14 33 0 21 -19 41 -40
41 -8 0 -14 8 -14 18 1 9 -2 17 -7 17 -5 0 -9 6 -9 13 0 7 -7 22 -15 33 -13
16 -16 17 -24 4 -8 -12 -12 -9 -21 17 -7 18 -20 35 -31 38 -10 4 -19 10 -19
15 0 5 -3 16 -7 26 -5 14 -2 16 14 12 24 -6 56 9 48 23 -3 5 1 6 9 3 9 -3 23
1 31 10 23 22 32 20 39 -9z m-4714 -10 c7 -4 25 -8 39 -9 19 -1 26 -6 24 -21
-1 -10 8 -27 19 -37 12 -10 18 -21 15 -24 -3 -4 -17 7 -31 22 -13 16 -28 25
-32 21 -5 -4 -2 -12 6 -17 8 -6 11 -10 6 -10 -18 0 29 -29 47 -30 9 0 23 11
29 25 8 18 19 25 37 24 l26 -1 -27 -11 c-22 -11 -24 -15 -14 -29 12 -16 15
-15 43 11 21 19 36 25 45 20 7 -5 23 -9 36 -9 14 0 21 -4 16 -11 -4 -6 -20 -9
-39 -6 -26 4 -37 0 -60 -25 -16 -17 -31 -26 -33 -19 -6 18 -18 13 -18 -9 0
-11 7 -20 15 -20 24 0 5 -11 -25 -15 -35 -4 -77 31 -54 45 17 11 9 13 -14 4
-12 -5 -13 -10 -5 -27 9 -16 9 -19 -3 -14 -23 8 -39 -7 -41 -38 -2 -25 -8 -30
-42 -38 -24 -5 -49 -4 -62 2 -13 6 -28 8 -35 6 -24 -9 -41 10 -29 33 19 35 14
50 -14 44 -15 -2 -25 0 -25 7 0 6 -10 10 -22 8 -13 -2 -17 -2 -11 0 7 3 13 9
13 14 0 12 50 3 64 -11 17 -17 42 -11 56 15 16 30 25 31 43 5 11 -16 21 -19
42 -14 26 6 27 6 16 -17 -11 -21 -11 -22 2 -7 8 10 16 15 19 12 3 -2 4 9 2 26
-2 19 0 29 6 25 18 -11 11 4 -12 25 -12 11 -16 20 -10 20 7 0 12 5 12 10 0 21
-20 9 -26 -16 -4 -17 -2 -29 7 -35 7 -4 10 -11 6 -15 -3 -4 -12 -2 -19 4 -7 5
-24 12 -37 14 -34 4 -38 26 -7 38 17 6 24 14 20 25 -3 8 -9 15 -13 15 -4 0 -8
6 -8 14 0 15 34 15 57 1z m122 -252 c29 -18 30 -20 25 -80 -4 -51 -2 -63 12
-67 9 -3 4 -4 -11 -2 -16 2 -33 -3 -39 -10 -9 -11 -7 -14 11 -14 19 0 21 -2
10 -15 -8 -10 -17 -12 -22 -7 -14 14 -50 2 -44 -14 4 -10 -3 -14 -27 -13 -18
0 -26 3 -19 6 17 7 15 21 -6 47 -14 18 -23 21 -40 15 -12 -5 -22 -4 -22 0 0 5
6 11 13 14 6 2 9 7 6 11 -3 3 -13 4 -22 0 -13 -4 -14 -10 -7 -24 6 -10 10 -21
10 -24 0 -6 -50 -5 -63 1 -12 7 21 46 50 59 l28 12 -37 1 c-39 1 -52 19 -20
28 10 2 22 18 28 35 7 26 17 34 54 44 66 17 98 16 132 -3z m2971 -17 c10 -8
15 -20 11 -30 -4 -12 0 -16 16 -16 17 0 20 4 15 21 -5 15 -4 19 4 14 7 -4 18
-2 25 5 14 10 55 8 76 -5 6 -4 17 -2 24 4 10 9 15 8 20 -5 5 -13 9 -14 20 -5
11 9 21 6 45 -15 17 -14 30 -34 29 -43 -2 -11 6 -17 25 -19 15 -2 27 -7 27
-11 0 -5 -11 -6 -25 -3 -21 4 -25 1 -25 -21 0 -34 10 -58 21 -51 5 3 9 -2 9
-10 0 -8 -4 -18 -10 -21 -15 -10 -12 -23 8 -28 9 -3 -2 -5 -25 -6 -23 0 -43
-6 -46 -13 -2 -7 -8 -9 -13 -5 -4 4 -3 17 4 27 17 28 15 43 -7 37 -10 -2 -26
0 -35 5 -12 7 -16 5 -16 -12 0 -14 6 -20 21 -20 18 0 19 -2 9 -15 -7 -8 -24
-16 -39 -16 -18 -1 -20 -3 -8 -6 10 -3 16 -11 13 -18 -3 -9 2 -11 15 -8 13 4
25 -2 35 -16 9 -12 26 -21 42 -21 26 -1 62 -20 62 -34 0 -3 -5 -6 -11 -6 -6 0
-22 -9 -36 -20 -14 -11 -23 -20 -19 -20 4 0 2 -9 -4 -21 -10 -17 -14 -18 -27
-7 -14 11 -15 10 -8 -11 5 -17 4 -22 -6 -19 -8 3 -14 11 -14 19 0 8 -13 16
-30 19 -23 4 -30 11 -29 27 0 13 -4 19 -13 16 -7 -3 -13 -1 -13 5 0 5 -13 12
-30 14 -30 5 -41 -6 -17 -15 7 -3 5 -6 -5 -6 -10 -1 -18 6 -18 14 0 8 -4 15
-10 15 -5 0 -10 12 -11 28 0 23 -1 24 -8 7 -7 -17 -9 -16 -16 13 -9 41 -2 49
33 36 18 -7 37 -7 57 -1 21 7 30 7 33 -1 2 -7 11 -12 20 -12 15 1 15 2 0 11
-10 5 -18 17 -18 24 0 8 -5 15 -11 15 -5 0 -7 -4 -4 -10 3 -5 -1 -10 -9 -10
-20 0 -21 16 -1 24 21 8 19 44 -2 49 -15 4 -14 5 2 6 12 0 27 -5 34 -11 10
-11 11 -10 6 3 -3 9 -20 19 -37 23 -21 4 -29 10 -24 21 4 11 -2 15 -20 15 -25
0 -54 20 -54 37 0 4 -10 14 -22 22 -18 11 -22 11 -30 -3 -7 -13 -13 -14 -31
-5 -18 9 -20 9 -9 -2 16 -18 15 -29 -3 -29 -18 0 -21 50 -4 67 6 6 12 19 14
29 2 11 4 20 4 22 3 8 59 -1 74 -12z m4181 -102 c9 -3 14 -10 11 -14 -3 -5 -1
-11 5 -15 16 -10 12 -35 -6 -35 -9 0 -14 -6 -11 -12 2 -7 -2 -21 -11 -30 -14
-16 -13 -18 1 -18 10 0 17 7 17 15 0 8 5 15 11 15 5 0 8 4 4 10 -5 9 35 22
106 34 27 5 40 2 56 -13 11 -11 25 -17 29 -13 5 4 2 -1 -6 -11 -11 -15 -22
-18 -52 -13 -37 6 -38 5 -28 -14 8 -15 8 -20 -2 -21 -9 0 -8 -2 2 -6 8 -4 21
-12 28 -20 11 -11 9 -13 -12 -13 -16 0 -26 6 -26 15 0 8 -7 15 -15 15 -8 0
-15 -5 -15 -11 0 -5 -4 -7 -10 -4 -5 3 -10 -1 -10 -11 0 -14 3 -14 15 -4 19
16 32 6 17 -13 -9 -10 -4 -13 21 -12 18 0 40 -3 49 -7 20 -9 13 -38 -8 -38
-19 0 -54 -32 -54 -49 0 -11 -5 -8 -16 7 -8 12 -20 20 -25 17 -5 -4 -9 -1 -9
4 0 6 -7 11 -15 11 -9 0 -15 9 -14 23 0 12 3 16 6 9 2 -6 9 -10 14 -6 27 16
-16 89 -46 78 -13 -6 -14 -9 -3 -16 9 -7 5 -8 -13 -4 -21 4 -27 1 -36 -22 -10
-26 -11 -26 -12 -4 l-1 23 -29 -20 c-15 -11 -31 -18 -35 -14 -3 3 -6 2 -6 -4
0 -6 -14 -13 -31 -17 -29 -5 -31 -9 -25 -36 6 -34 -1 -38 -20 -12 -12 15 -13
14 -14 -11 0 -24 -3 -27 -20 -22 -15 5 -18 3 -14 -9 8 -22 -16 -20 -43 3 -18
15 -21 24 -14 47 4 16 5 38 0 49 -4 11 -8 14 -8 8 -1 -7 -10 -13 -20 -13 -11
0 -22 6 -24 13 -4 9 -8 8 -17 -3 -10 -12 -11 -11 -7 8 4 17 -1 26 -21 36 l-26
13 23 13 c18 9 26 9 39 -3 31 -26 48 -32 28 -9 -11 12 -15 22 -9 22 12 0 38
-29 46 -50 4 -12 6 -11 6 3 1 10 6 15 11 12 6 -3 10 1 10 9 0 17 29 36 55 36
8 0 20 -12 26 -27 l11 -28 13 25 c7 14 11 29 7 35 -3 5 2 3 12 -5 10 -8 14
-16 7 -18 -7 -2 -7 -9 2 -23 15 -24 27 -24 27 0 0 11 5 23 10 26 8 5 7 11 -1
21 -9 11 -9 23 1 54 11 34 16 38 40 35 18 -2 32 3 41 16 15 22 13 21 33 13z
m-3284 -244 c0 -23 25 -53 52 -63 10 -4 15 -12 12 -20 -4 -10 4 -16 25 -19 21
-3 31 0 31 8 0 11 6 11 27 3 15 -6 31 -15 35 -21 5 -9 10 -9 20 -1 10 8 18 8
32 -3 14 -10 22 -11 27 -3 5 8 8 8 13 0 4 -6 -4 -16 -18 -23 -14 -6 -26 -15
-26 -20 0 -10 -26 -39 -35 -38 -20 1 -25 -2 -25 -17 0 -14 -3 -13 -23 5 -30
28 -39 28 -27 -2 5 -13 6 -26 3 -29 -3 -3 6 -3 19 0 18 4 20 3 8 -6 -12 -9
-11 -11 8 -11 13 0 20 -4 17 -10 -3 -5 2 -22 12 -36 l18 -27 -34 6 c-29 6 -32
5 -21 -9 11 -12 10 -18 -3 -32 -16 -15 -17 -15 -17 9 0 16 -10 31 -27 42 -24
15 -25 17 -5 12 16 -5 22 -2 22 10 0 8 -6 18 -14 21 -8 3 -12 12 -9 20 3 7 -2
20 -10 29 -17 17 -31 20 -22 5 10 -16 -21 -12 -35 5 -7 8 -18 15 -24 15 -6 -1
-1 -9 12 -19 12 -11 22 -25 22 -31 0 -9 5 -9 17 1 15 12 16 12 10 -3 -4 -12 0
-19 15 -24 30 -9 1 -25 -31 -17 -17 4 -22 2 -17 -6 4 -6 14 -11 22 -11 8 0 13
-4 10 -9 -4 -5 3 -7 14 -4 14 4 20 0 20 -11 0 -10 -4 -15 -9 -12 -15 10 -40
-5 -34 -20 3 -8 -1 -14 -11 -14 -9 0 -16 5 -16 11 0 8 -4 8 -14 0 -11 -9 -15
-9 -19 1 -3 7 -6 3 -6 -9 -1 -12 -6 -25 -13 -29 -7 -4 -8 -3 -4 4 4 7 1 12 -6
12 -9 0 -9 3 2 10 12 8 10 10 -9 8 -30 -4 -40 21 -12 29 24 6 25 8 11 33 -6
12 -18 17 -32 15 l-21 -4 21 20 c26 23 26 25 8 32 -10 4 -13 1 -10 -7 6 -16
-43 -10 -53 7 -4 6 -1 7 6 3 8 -5 12 -3 10 5 -1 8 -1 22 0 32 1 19 13 13 49
-26 9 -10 24 -22 33 -27 12 -7 15 -4 13 13 -1 12 -3 30 -3 40 -1 14 -6 17 -21
12 -22 -7 -29 18 -9 31 8 4 7 9 -2 16 -11 7 -11 11 -1 15 6 2 12 11 12 18 0 7
6 15 13 18 9 3 9 8 -2 21 -8 9 -20 15 -28 12 -9 -4 -13 3 -13 19 0 14 -4 25
-10 25 -24 0 5 29 33 33 18 2 35 5 40 5 4 1 7 -7 7 -18z m4402 -24 c5 -9 20
-16 33 -16 14 0 25 -4 25 -10 0 -5 -10 -10 -22 -10 -17 0 -19 -3 -9 -9 15 -10
51 -3 51 10 0 14 23 10 45 -7 20 -16 20 -16 -2 -9 -13 3 -31 1 -40 -5 -17 -11
-17 -11 0 -6 9 3 29 1 44 -5 20 -7 28 -6 35 3 4 7 8 11 9 8 0 -3 2 -13 4 -22
2 -10 -2 -18 -8 -18 -11 -1 -50 -70 -43 -77 2 -2 15 6 29 18 l27 20 0 -21 c0
-13 -8 -24 -19 -27 -11 -3 -22 -14 -24 -25 -4 -13 -10 -17 -18 -12 -9 5 -10 2
-6 -9 3 -10 2 -17 -4 -17 -6 0 -6 -6 0 -19 9 -16 7 -18 -19 -17 -27 1 -56 16
-32 16 19 0 14 17 -6 22 -24 7 -50 -13 -45 -32 4 -13 3 -13 -6 0 -6 8 -8 23
-5 33 3 9 0 17 -6 17 -6 0 -8 5 -4 12 4 7 3 8 -4 4 -6 -4 -9 -13 -6 -20 3 -8
0 -17 -7 -22 -9 -5 -10 -2 -6 9 3 9 1 19 -4 23 -6 3 -2 12 11 21 16 11 25 12
33 4 15 -15 30 -14 20 2 -4 6 -6 20 -5 29 2 10 -1 26 -7 35 -10 17 -10 17 -12
-2 -1 -11 -1 -23 0 -27 3 -20 -16 -5 -27 22 -14 31 -36 40 -45 18 -3 -7 -6 -2
-7 12 -3 43 -8 63 -21 70 -8 6 -6 11 7 19 11 6 13 11 7 11 -7 0 -13 7 -13 15
0 20 90 12 102 -9z m-2375 -141 c-8 -6 -18 -21 -22 -34 -6 -20 -4 -23 9 -18 9
4 16 2 16 -3 0 -6 9 -10 20 -10 11 0 20 -7 20 -15 0 -18 -21 -20 -38 -3 -10
10 -15 10 -22 -2 -12 -19 -13 -50 -2 -50 5 0 14 -12 20 -26 7 -14 8 -23 2 -19
-5 3 -10 -1 -10 -10 0 -9 9 -19 21 -22 13 -4 18 -11 14 -21 -4 -12 -3 -12 9
-3 17 14 31 -1 22 -24 -3 -9 0 -15 8 -15 9 0 12 8 9 23 -4 21 -4 22 11 3 14
-17 16 -18 16 -3 0 9 5 17 11 17 5 0 7 5 4 10 -3 6 1 10 10 10 13 0 14 -4 5
-20 -9 -16 -8 -22 5 -26 8 -3 15 -11 15 -16 0 -6 -6 -6 -15 2 -11 9 -20 8 -43
-6 -33 -19 -88 -13 -75 9 4 7 -1 5 -11 -3 -18 -14 -18 -15 3 -20 12 -3 21 -9
19 -15 -2 -5 -6 -9 -10 -8 -13 5 -9 -15 5 -21 6 -3 1 -3 -13 0 -14 3 -33 14
-42 25 -9 11 -19 16 -22 11 -3 -5 4 -15 15 -22 26 -19 24 -30 -6 -30 -14 0
-25 -5 -25 -11 0 -7 -9 -9 -22 -5 -13 4 -27 8 -33 9 -20 5 -35 19 -30 27 3 5
-4 11 -14 15 -12 4 -18 12 -14 21 3 8 -1 14 -11 14 -18 0 -21 17 -6 40 6 10
10 11 10 3 0 -7 7 -13 16 -13 8 0 12 5 8 11 -4 8 0 9 15 4 25 -8 28 10 4 24
-17 9 -17 11 2 28 21 19 28 35 29 71 1 12 7 22 14 22 20 0 14 41 -8 47 -11 3
-20 9 -20 14 0 13 18 11 26 -2 4 -8 10 -5 17 7 6 11 10 21 8 23 -6 8 19 16 53
16 27 0 33 -3 23 -10z m-4227 -25 c0 -5 7 -10 16 -10 8 0 13 -4 9 -9 -3 -6 3
-14 12 -20 10 -6 13 -11 6 -11 -7 0 -10 -7 -6 -17 5 -12 2 -15 -10 -10 -9 3
-17 2 -17 -3 0 -6 -6 -10 -14 -10 -9 0 -12 -7 -9 -21 5 -18 3 -20 -18 -14 -18
5 -21 4 -9 -4 10 -7 11 -11 3 -11 -7 0 -13 -7 -13 -15 0 -8 9 -15 20 -15 14 0
18 -5 13 -17 -4 -11 -3 -14 6 -9 7 5 20 1 30 -8 17 -15 19 -15 24 -1 4 8 16
15 27 15 20 0 20 -1 -4 -24 -15 -13 -26 -28 -26 -34 0 -6 -6 -9 -13 -6 -14 5
-44 -22 -34 -32 5 -5 46 14 57 27 3 3 14 9 24 13 20 7 20 7 0 -15 l-19 -21 35
6 c19 3 29 3 22 0 -6 -3 -10 -9 -8 -12 2 -4 -27 -7 -65 -8 -38 0 -69 4 -69 9
0 5 -7 4 -15 -3 -12 -10 -15 -10 -15 4 0 10 9 16 24 16 14 0 28 5 32 11 4 8
-9 10 -45 8 -45 -4 -51 -2 -51 16 0 15 -3 17 -9 7 -6 -10 -10 -8 -14 8 -3 12
-10 19 -16 15 -6 -3 -11 -1 -11 4 0 6 9 11 20 11 13 0 18 5 14 15 -4 10 0 13
15 10 12 -2 22 0 22 6 5 39 20 69 35 69 8 0 14 5 14 10 0 6 7 10 16 10 10 0
14 6 11 14 -3 7 -1 18 5 24 8 8 7 13 -5 18 -18 7 -23 24 -7 24 6 0 10 -4 10
-10z m5232 -110 c5 0 6 9 3 20 -7 23 10 28 19 5 3 -8 12 -15 20 -15 8 0 16 -5
18 -12 3 -7 11 -9 24 -3 10 4 25 7 32 6 6 -1 12 3 12 8 0 13 62 11 79 -3 12
-9 13 -8 8 7 -3 9 -2 17 3 17 6 0 10 -4 10 -10 0 -5 6 -7 14 -4 19 7 29 -25
12 -42 -17 -16 -56 -19 -56 -4 0 6 -5 10 -11 10 -18 0 -34 -24 -33 -47 1 -26
-6 -29 -24 -11 -9 9 -12 9 -12 0 0 -7 5 -12 10 -12 6 0 10 -7 10 -15 0 -8 6
-16 13 -17 6 0 17 -2 22 -3 6 -2 16 -3 23 -4 6 0 12 -13 12 -28 0 -19 -3 -24
-9 -15 -6 11 -10 10 -15 -3 -3 -10 -12 -15 -20 -12 -8 3 -16 1 -18 -5 -5 -14
-52 -3 -72 17 -19 20 -24 19 -47 -7 -10 -13 -18 -17 -19 -11 0 9 -10 11 -31 6
-18 -3 -40 0 -55 8 -22 11 -27 11 -34 -1 -7 -11 -10 -11 -10 -2 0 12 -58 11
-79 -2 -12 -8 -34 31 -26 44 4 6 10 8 15 5 5 -3 12 0 16 6 3 6 0 15 -7 20 -9
6 -10 9 -2 9 6 0 15 -4 18 -10 9 -14 26 -12 23 3 -4 21 21 57 37 51 8 -3 22 2
32 12 16 16 18 16 21 2 4 -21 31 -32 37 -15 13 40 10 52 -15 50 -37 -3 -72 6
-65 17 4 6 11 7 17 4 8 -5 9 -1 4 11 -5 15 -4 16 8 6 16 -13 32 1 21 19 -3 6
1 7 9 4 10 -4 16 -1 17 7 0 8 7 -3 16 -23 8 -21 19 -38 25 -38z m-1722 -23 c0
-8 9 -24 20 -37 30 -34 22 -57 -9 -27 -11 10 -12 7 -6 -13 4 -14 13 -28 19
-32 7 -5 5 -8 -6 -8 -11 0 -15 -5 -12 -15 4 -9 10 -11 17 -4 48 40 61 49 64
45 3 -2 -5 -14 -16 -25 -11 -11 -18 -27 -15 -36 8 -19 20 -19 28 0 8 21 29 19
44 -5 14 -23 37 -27 28 -5 -3 8 -1 15 4 15 5 0 12 -9 15 -20 4 -11 11 -18 16
-15 5 4 9 1 9 -6 0 -7 3 -10 6 -6 3 3 20 1 36 -5 29 -10 30 -12 13 -24 -15
-11 -18 -26 -17 -85 2 -43 -1 -68 -7 -64 -6 3 -8 12 -4 20 3 8 0 15 -5 15 -13
0 -34 -69 -25 -83 3 -6 1 -7 -5 -3 -6 3 -15 -2 -21 -11 -6 -10 -11 -12 -11 -5
0 6 -4 12 -10 12 -6 0 -9 -6 -7 -12 1 -9 -10 -13 -33 -13 -45 0 -53 4 -41 19
8 9 7 13 -4 13 -16 0 -28 -24 -19 -38 3 -5 12 -9 20 -9 21 0 18 -46 -5 -69
-11 -11 -17 -22 -13 -25 3 -3 0 -6 -8 -6 -10 0 -10 -3 0 -15 7 -8 19 -15 28
-15 8 0 12 -3 8 -7 -4 -5 -13 -8 -19 -8 -5 0 -12 -6 -14 -12 -3 -7 2 -13 11
-13 20 0 20 -7 1 -26 -17 -18 -37 -10 -28 11 3 11 -2 15 -18 15 -19 0 -21 -2
-9 -10 13 -8 12 -10 -2 -10 -10 0 -18 -7 -18 -15 0 -9 -6 -12 -15 -9 -12 5
-13 9 -4 21 9 10 9 17 1 25 -9 9 -12 8 -12 -5 0 -9 -4 -17 -9 -17 -5 0 -11
-12 -13 -27 -2 -22 -8 -28 -28 -28 -14 0 -27 -3 -30 -7 -3 -4 -18 -1 -33 7
-19 9 -27 10 -27 2 0 -7 -3 -8 -10 -1 -7 7 -6 20 4 40 10 18 12 32 6 38 -14
14 -12 43 3 49 7 3 6 6 -5 6 -9 1 -19 -3 -22 -7 -3 -5 -23 -9 -45 -10 -50 -2
-63 22 -20 37 16 5 29 16 28 23 0 10 -2 10 -6 1 -7 -19 -33 -16 -33 3 0 9 9
18 20 21 22 6 26 18 10 28 -5 3 -10 1 -10 -4 0 -6 -9 -11 -20 -11 -11 0 -20
-5 -20 -11 0 -5 -4 -7 -10 -4 -5 3 -10 2 -10 -4 0 -5 6 -12 13 -14 7 -4 6 -6
-5 -6 -9 -1 -18 5 -21 12 -4 12 -41 -21 -50 -46 -3 -9 -8 -9 -17 0 -10 10 -10
18 0 42 7 17 16 31 21 31 5 0 9 10 9 23 0 17 2 19 9 8 8 -12 11 -9 17 13 5 20
2 31 -12 41 -18 14 -18 14 1 15 16 0 13 4 -12 20 -20 12 -33 28 -33 40 0 21
24 28 35 10 8 -14 35 6 35 26 0 7 12 20 28 28 15 8 21 15 13 16 -7 0 -11 6 -8
13 3 8 -4 12 -22 11 -14 -1 -28 -3 -31 -4 -3 -1 -9 -2 -14 -1 -5 1 -12 -2 -15
-7 -5 -9 -49 -16 -75 -13 -11 1 13 31 26 31 5 0 6 -6 2 -12 -5 -8 -1 -7 10 2
17 13 17 14 -1 21 -14 5 -12 7 11 10 16 2 31 10 32 17 1 7 0 8 -3 2 -6 -13
-43 -13 -43 1 0 5 14 15 30 20 31 11 41 29 15 29 -8 0 -15 -4 -15 -10 0 -5 -4
-10 -10 -10 -16 0 -12 14 11 39 12 13 24 19 28 14 7 -11 51 -12 51 -2 0 4 -7
14 -15 23 -9 9 -11 17 -5 21 5 3 10 1 10 -5 0 -7 9 -9 23 -6 12 3 16 3 10 0
-22 -10 -14 -20 27 -34 22 -7 40 -17 40 -21 0 -5 11 -8 25 -7 30 3 34 18 5 18
-11 0 -20 5 -20 12 0 6 3 8 7 5 3 -4 15 0 25 10 17 15 19 15 32 -3 8 -11 18
-15 23 -10 4 5 2 11 -5 13 -9 4 -6 11 9 24 16 14 26 16 33 9 8 -8 7 -13 -3
-19 -9 -6 -10 -11 -2 -15 6 -4 11 -4 11 1 0 8 47 33 63 33 4 0 5 -5 2 -10 -4
-6 -11 -7 -17 -4 -7 4 -8 2 -4 -4 7 -12 36 -5 36 9 0 5 -9 14 -20 21 -25 16
-26 45 -2 51 29 8 32 7 32 -6z m536 -213 c-3 -8 0 -14 7 -15 9 0 9 -2 0 -6 -7
-2 -13 -12 -13 -21 0 -12 3 -13 11 -5 14 14 39 6 34 -10 -3 -7 11 -23 30 -37
19 -14 35 -31 35 -38 0 -9 7 -11 20 -7 12 4 20 2 20 -5 0 -14 -25 -40 -38 -40
-16 0 -24 -33 -10 -41 8 -5 14 -3 16 6 2 8 10 11 17 9 10 -4 6 -13 -17 -34
-17 -16 -36 -26 -42 -24 -7 3 -11 -9 -11 -31 0 -19 3 -35 8 -35 4 0 7 5 7 12
0 8 3 9 10 2 16 -16 1 -46 -20 -39 -10 3 -21 1 -25 -5 -3 -5 -1 -10 4 -10 6 0
11 -7 11 -15 0 -8 -4 -15 -10 -15 -9 0 -14 17 -13 48 1 6 -7 12 -18 12 -21 0
-34 16 -19 25 13 8 3 25 -16 25 -8 0 -14 -10 -14 -25 0 -15 6 -25 14 -25 7 0
19 -6 26 -14 9 -12 7 -15 -12 -13 -13 0 -29 9 -36 19 -16 22 -32 23 -32 3 0
-8 -4 -15 -10 -15 -5 0 -10 -4 -10 -10 0 -5 8 -10 18 -10 29 0 57 -37 54 -71
-2 -18 1 -29 9 -29 7 0 10 -3 7 -6 -4 -3 -16 0 -28 6 -20 11 -21 10 -11 -9 6
-11 11 -22 11 -25 0 -12 -32 -5 -46 9 -17 17 -49 21 -39 5 3 -6 -4 -10 -17
-10 -32 0 -61 -22 -63 -48 -1 -14 4 -20 17 -19 21 1 24 13 6 21 -9 3 -7 9 6
20 11 9 23 16 28 16 13 0 9 -28 -4 -33 -8 -3 -6 -6 4 -6 12 -1 15 -6 11 -17
-5 -13 -7 -13 -14 -2 -7 10 -9 9 -9 -4 0 -10 -8 -18 -17 -18 -14 -1 -12 -4 7
-15 22 -12 23 -14 8 -20 -10 -4 -16 -11 -13 -15 3 -5 -2 -15 -10 -23 -20 -21
-19 -29 3 -23 9 2 31 7 48 11 31 6 31 5 29 -32 -2 -21 2 -42 9 -46 7 -5 3 -7
-9 -5 -14 3 -19 11 -18 26 2 13 -1 21 -7 17 -5 -3 -8 0 -5 7 4 9 -6 13 -35 13
-22 0 -40 -4 -40 -10 0 -5 -7 3 -15 19 -8 15 -12 32 -9 37 3 5 1 9 -4 9 -6 0
-12 -7 -16 -15 -3 -8 -11 -15 -17 -15 -9 0 -9 4 0 14 9 11 9 16 0 22 -7 4 -16
-1 -21 -10 -8 -14 -13 -15 -24 -5 -11 9 -18 8 -31 -2 -15 -12 -16 -12 -10 4 3
9 2 17 -4 17 -6 0 -7 5 -3 12 4 7 3 8 -5 4 -6 -4 -9 -12 -6 -17 4 -5 0 -9 -7
-9 -7 0 -1 -8 12 -17 54 -37 57 -54 12 -65 -26 -7 -46 19 -31 43 5 7 9 9 9 4
0 -6 9 -16 21 -23 14 -9 20 -10 17 -2 -2 6 -18 21 -37 32 l-33 22 7 -23 c4
-14 3 -21 -2 -18 -6 4 -15 -5 -21 -18 -9 -19 -9 -24 1 -22 6 1 15 9 19 17 6
11 7 10 5 -4 -3 -24 -41 -31 -58 -10 -16 20 -19 55 -6 72 8 10 5 14 -11 19
-24 6 -30 23 -9 23 8 0 7 3 -3 10 -13 8 -12 11 4 23 17 12 17 14 1 30 -15 16
-15 17 4 17 12 0 21 -6 21 -15 0 -8 4 -15 9 -15 4 0 6 10 4 23 -6 29 22 56 39
39 7 -7 21 -12 33 -11 11 0 14 3 7 6 -6 2 -9 10 -6 15 4 7 2 8 -5 4 -17 -11
-71 16 -71 36 0 10 7 18 15 18 8 0 15 -4 15 -10 0 -5 5 -10 11 -10 5 0 7 5 3
11 -4 7 -8 27 -10 45 -2 26 0 32 12 27 12 -4 13 -1 4 22 -15 39 -12 47 10 33
11 -7 20 -22 21 -33 0 -11 3 -14 6 -7 8 20 26 13 20 -9 -3 -13 -1 -19 6 -16 7
2 13 16 15 30 2 15 8 27 13 27 6 0 8 9 4 20 -7 23 9 58 19 42 4 -6 13 -9 21
-5 22 8 18 -7 -7 -30 -19 -17 -20 -19 -4 -13 12 4 23 0 32 -11 13 -17 13 -17
14 0 0 10 5 15 10 12 6 -4 8 -10 5 -15 -3 -4 2 -7 11 -6 8 1 19 8 24 15 4 8
13 10 19 7 32 -20 -16 35 -63 72 -16 12 -22 22 -15 22 10 0 11 2 2 8 -8 5 -7
14 4 32 8 14 12 17 9 8 -3 -12 0 -18 9 -18 8 0 15 1 15 3 0 1 4 16 9 34 8 27
7 31 -7 26 -12 -5 -14 -2 -9 11 4 10 3 15 -3 11 -6 -3 -10 2 -10 13 0 15 7 19
33 18 24 -1 32 -5 31 -18 -1 -13 5 -17 27 -14 16 2 34 -3 40 -10 16 -19 32
-17 25 3 -4 9 -1 20 6 25 8 5 1 6 -17 2 -22 -4 -26 -3 -15 5 12 8 11 13 -6 28
-16 14 -19 23 -13 41 10 26 13 27 33 6 12 -12 16 -12 16 -2 0 10 2 10 9 -1 11
-18 31 -5 31 20 0 12 4 17 11 14 6 -4 8 -13 5 -21z m2004 -59 c10 -13 9 -15
-9 -15 -11 0 -21 -5 -21 -11 0 -6 9 -9 19 -6 14 3 18 1 14 -10 -5 -13 -3 -13
17 -3 l22 12 -18 -31 c-10 -18 -20 -27 -22 -21 -5 15 -31 -20 -32 -42 0 -10 6
-18 14 -18 11 0 12 -5 3 -24 -15 -31 -27 -24 -27 15 0 16 -4 29 -9 29 -6 0 -8
-22 -6 -50 4 -49 -9 -77 -21 -46 -3 9 -11 13 -16 10 -6 -4 -8 1 -4 12 5 15 1
19 -18 19 -23 0 -24 -1 -8 -19 16 -18 16 -18 -5 -5 -28 17 -29 24 -3 42 11 8
17 16 14 19 -8 8 47 49 57 42 5 -3 9 -1 9 5 0 5 -6 12 -12 14 -10 4 -9 8 2 16
12 8 11 14 -9 35 -14 14 -22 28 -19 31 3 3 11 -1 18 -10 7 -8 17 -15 23 -15 6
0 8 3 4 6 -6 6 13 33 24 34 4 0 12 -7 19 -15z m-848 -44 c12 -14 13 -21 5 -24
-7 -2 10 -7 36 -11 40 -6 46 -10 37 -22 -10 -11 -9 -15 4 -20 9 -3 16 -13 16
-22 0 -8 10 0 23 18 12 19 35 37 51 41 31 9 48 3 30 -9 -5 -4 -11 -18 -12 -32
-1 -18 1 -21 8 -10 5 8 12 11 16 7 4 -4 13 -2 20 4 17 14 45 4 42 -13 -2 -7 3
-12 10 -10 16 3 15 -10 -3 -34 -13 -18 -14 -18 -8 6 l6 25 -22 -22 c-11 -12
-21 -27 -21 -33 0 -6 -15 -9 -37 -7 -44 5 -65 -1 -57 -15 4 -7 -5 -8 -26 -3
-23 5 -30 4 -26 -4 4 -6 2 -11 -5 -11 -7 0 -4 -6 7 -14 12 -10 23 -11 31 -5 7
6 13 6 17 1 11 -18 -35 -21 -72 -5 -20 8 -58 16 -84 18 -39 2 -48 0 -48 -14 0
-13 -2 -13 -9 -2 -14 22 -2 49 20 44 10 -3 19 0 19 6 0 8 13 9 42 5 36 -6 41
-5 35 10 -4 10 -3 15 3 11 14 -9 12 6 -5 35 -8 14 -14 19 -15 12 0 -10 -3 -10
-15 2 -19 18 -19 26 -2 26 8 0 14 7 14 15 0 8 -8 15 -18 15 -18 0 -39 27 -39
49 0 17 14 13 32 -8z m-685 -101 c15 0 23 -5 21 -12 -3 -7 2 -19 10 -27 10
-10 11 -16 3 -19 -21 -7 -12 -32 12 -29 16 1 22 -3 22 -17 0 -11 6 -21 13 -24
19 -6 47 -65 33 -70 -6 -2 -11 -12 -11 -23 0 -10 -5 -19 -11 -19 -12 0 -49 38
-49 51 0 4 -3 15 -7 25 -4 12 -3 15 5 10 7 -4 12 -1 12 9 0 13 -7 15 -35 9
-29 -5 -35 -3 -35 10 0 10 -5 14 -11 11 -6 -4 -16 1 -23 11 -18 24 -55 28 -78
8 -10 -10 -18 -13 -18 -8 0 18 42 45 71 46 16 1 29 5 29 11 0 5 7 3 17 -4 15
-13 15 -12 5 8 -7 12 -12 32 -11 45 0 13 3 17 6 11 2 -7 16 -13 30 -13z m1285
-188 c-10 -3 -7 -9 8 -19 16 -11 25 -12 33 -4 13 13 27 14 27 2 0 -5 -9 -11
-20 -14 -21 -5 -27 -31 -10 -42 14 -8 13 -55 -1 -55 -8 0 -8 -5 1 -15 10 -13
9 -15 -11 -16 -13 0 -18 -3 -11 -6 17 -7 15 -23 -4 -23 -8 0 -12 -4 -9 -10 4
-6 -5 -10 -21 -10 -22 0 -25 2 -14 15 9 10 9 15 1 15 -6 0 -10 3 -9 8 1 4 -3
17 -10 28 -6 12 -8 25 -4 29 4 5 1 5 -5 1 -8 -4 -13 -2 -13 6 0 10 -3 9 -9 -2
-7 -10 -4 -18 10 -27 11 -9 17 -23 15 -36 -4 -27 -22 -23 -19 4 2 10 -1 19 -6
19 -9 0 -22 -71 -14 -80 2 -2 8 2 13 10 6 8 10 11 10 5 0 -18 -15 -32 -33 -32
-14 0 -17 6 -13 23 4 13 1 26 -4 29 -6 4 -8 11 -5 16 4 5 1 9 -4 9 -6 0 -10
-10 -8 -21 1 -15 -4 -23 -18 -25 -11 -1 -30 -6 -42 -9 -25 -8 -26 -6 -17 19 3
9 9 14 13 11 4 -2 8 2 8 10 0 8 -6 16 -14 19 -7 3 -13 -1 -13 -9 0 -27 -19
-16 -22 13 -2 15 -8 26 -15 25 -7 -2 -13 6 -13 17 0 32 22 70 42 70 10 0 18 5
18 11 0 5 5 7 11 3 7 -4 7 -9 2 -13 -14 -9 -25 -44 -12 -35 7 4 9 0 5 -14 -4
-13 -1 -22 9 -26 9 -3 15 0 15 10 0 8 5 12 10 9 6 -3 10 1 10 9 0 8 9 18 20
21 11 3 20 11 20 18 0 6 6 2 14 -9 8 -10 18 -16 22 -11 4 4 2 7 -4 7 -6 0 -9
7 -6 15 4 8 -1 17 -10 21 -9 3 -16 11 -16 16 0 6 7 7 15 4 9 -3 18 1 21 8 8
21 34 28 52 14 13 -11 14 -9 8 17 l-8 30 24 -25 c16 -18 19 -26 10 -28z
m-1681 -151 c15 24 22 0 9 -31 -7 -18 -22 -33 -36 -36 -13 -3 -24 -10 -24 -16
0 -11 42 0 51 14 3 5 13 6 23 2 14 -5 14 -9 4 -22 -11 -14 -10 -15 7 -8 13 5
17 4 10 -3 -5 -5 -26 -13 -45 -16 -19 -3 -38 -11 -42 -18 -6 -9 -11 -8 -19 3
-9 12 -10 11 -6 -7 6 -28 2 -29 -24 -4 -32 29 -59 33 -59 9 0 -17 -2 -18 -15
-8 -13 11 -12 15 10 36 14 12 21 25 16 28 -13 9 -41 -4 -41 -19 0 -6 -9 -20
-20 -30 -16 -14 -23 -16 -32 -7 -12 12 -10 13 15 16 6 0 12 14 13 31 1 16 6
31 13 33 6 2 9 8 6 13 -9 14 26 -2 73 -33 40 -28 61 -29 25 -2 -17 12 -16 13
2 8 25 -6 75 11 75 26 0 6 -5 8 -12 4 -8 -5 -9 -2 -5 10 4 10 7 23 8 29 0 7 3
7 6 -2 4 -11 7 -11 14 0z m-906 -854 c-2 -7 15 -28 38 -47 23 -19 36 -28 30
-19 -14 17 -8 29 14 29 7 0 13 -6 13 -14 0 -9 10 -13 33 -11 17 2 44 3 60 4
17 1 27 7 27 17 0 8 4 13 9 10 5 -3 8 -40 7 -81 -1 -57 2 -75 12 -75 8 0 12
-6 9 -14 -3 -8 -1 -17 6 -20 7 -2 5 -5 -5 -5 -9 -1 -19 7 -21 17 -4 13 -5 13
-6 -4 -1 -26 30 -56 36 -36 3 6 13 12 24 12 14 0 19 -7 19 -25 0 -20 -5 -25
-25 -25 -14 0 -35 9 -46 19 -25 23 -65 32 -96 20 -15 -6 -30 -5 -42 2 -22 14
-71 -14 -71 -41 0 -27 -47 -33 -54 -7 -7 28 1 37 30 37 22 0 24 4 24 49 0 28
5 53 10 56 14 9 12 61 -3 77 -29 30 -58 79 -52 88 8 14 25 3 20 -13z"/>
<path d="M9109 4207 c12 -15 11 -17 -3 -17 -9 0 -16 -7 -16 -15 0 -7 -8 -19
-17 -24 -10 -6 -13 -11 -6 -11 6 0 11 -13 11 -31 -1 -36 28 -72 41 -51 7 11 9
11 14 -2 4 -9 -1 -21 -12 -28 -33 -24 -30 -33 10 -32 26 0 39 -4 39 -13 0 -18
13 -16 43 7 14 11 31 20 39 20 10 0 9 -3 -2 -10 -12 -7 -10 -9 7 -7 18 1 21 6
16 29 -3 18 -1 28 6 28 7 0 6 9 -5 25 -17 27 -54 34 -54 11 0 -9 7 -12 18 -10
13 4 17 -1 18 -20 1 -15 -2 -26 -7 -26 -5 0 -9 5 -9 10 0 6 -9 10 -20 10 -11
0 -20 4 -20 9 0 5 -3 16 -6 24 -3 9 3 17 18 21 22 7 22 7 3 16 -11 5 -27 9
-35 9 -13 1 -13 0 0 -9 9 -6 11 -10 3 -10 -7 0 -10 -7 -7 -15 5 -11 -1 -15
-18 -15 -13 0 -28 4 -33 9 -6 5 -19 12 -30 15 -11 3 -6 4 12 2 27 -2 30 0 22
15 -6 12 -5 19 4 22 7 2 8 8 3 13 -5 5 -11 4 -13 -3 -3 -7 -14 -12 -26 -12
-18 1 -19 2 -4 6 12 3 16 10 13 20 -4 11 -2 13 9 9 9 -3 24 3 35 14 12 12 15
20 8 20 -7 0 -24 3 -38 7 -22 6 -24 5 -11 -10z"/>
<path d="M8470 4173 c-6 -18 -18 -33 -25 -33 -18 0 -28 -32 -14 -41 7 -4 9
-14 6 -24 -4 -9 -12 -13 -18 -9 -11 7 -29 -12 -29 -31 0 -5 5 -3 10 5 6 10 10
11 10 3 0 -7 9 -13 20 -13 12 0 20 7 20 16 0 13 4 11 18 -7 30 -41 45 -81 31
-89 -8 -5 -8 -10 -1 -14 6 -4 9 -13 6 -20 -3 -8 -1 -17 5 -21 7 -3 11 3 11 15
0 12 4 18 11 15 6 -4 8 -14 4 -24 -5 -13 -4 -13 6 -4 10 10 9 16 -5 32 -13 15
-14 20 -4 24 10 3 10 9 1 24 -9 16 -9 23 0 32 9 9 9 14 -1 20 -11 7 -10 10 3
15 9 3 21 4 26 1 10 -7 1 24 -13 42 -6 7 -4 14 4 19 9 6 4 10 -17 14 -24 5
-29 10 -28 28 2 12 -1 22 -6 22 -5 0 -11 8 -14 18 -3 12 -7 9 -17 -15z"/>
<path d="M8173 3985 c4 -8 2 -17 -3 -20 -6 -4 -10 -13 -10 -21 0 -8 5 -12 10
-9 6 3 10 1 10 -5 0 -6 5 -8 10 -5 17 10 11 -18 -10 -53 -20 -32 -20 -33 -1
-53 11 -12 24 -18 30 -15 5 4 12 2 16 -4 3 -5 18 -7 33 -4 15 4 24 3 19 -1 -4
-5 0 -16 9 -26 9 -10 17 -30 17 -44 0 -14 3 -25 7 -25 4 0 13 -13 20 -30 7
-16 14 -30 15 -30 1 0 23 9 48 20 29 13 56 18 71 14 16 -4 33 0 48 10 21 15
21 16 3 18 -11 0 -27 1 -35 0 -9 -1 -16 7 -16 17 0 13 8 19 23 19 13 0 23 -4
23 -8 0 -5 8 -7 18 -5 9 2 21 4 25 4 5 1 6 5 3 10 -12 19 39 19 77 0 46 -22
47 -22 47 -11 0 5 -10 14 -23 21 -13 7 -24 19 -24 26 0 8 4 12 8 10 3 -3 12 1
18 8 17 22 -8 44 -56 50 -39 5 -43 3 -43 -16 0 -17 -2 -19 -9 -8 -5 8 -7 21
-3 29 4 11 0 14 -15 10 -11 -3 -27 0 -37 7 -9 7 -26 11 -36 8 -11 -3 -20 0
-20 6 0 6 9 11 20 11 27 0 25 13 -4 26 -21 10 -23 9 -19 -10 4 -17 3 -18 -6
-6 -5 8 -13 12 -16 8 -6 -6 11 -31 48 -70 9 -10 13 -18 8 -18 -5 0 -18 -3 -28
-6 -12 -4 -14 -3 -6 3 8 6 9 14 3 23 -6 8 -10 11 -10 5 0 -5 -5 -3 -10 5 -7
12 -10 8 -10 -15 0 -29 0 -29 -20 -10 -20 21 -18 71 3 58 6 -4 8 2 5 15 -3 12
-3 23 1 25 3 2 1 3 -5 1 -5 -1 -21 4 -34 11 -22 12 -22 13 -4 23 15 8 16 13 7
21 -7 6 -11 8 -9 5 3 -3 -3 -14 -12 -24 -11 -14 -20 -16 -33 -10 -12 7 -19 6
-23 -3 -5 -9 -7 -9 -12 1 -3 6 -12 12 -20 12 -8 0 -14 5 -14 10 0 6 -11 8 -27
4 -22 -6 -25 -4 -20 10 4 11 1 16 -9 16 -10 0 -14 -6 -11 -15z"/>
<path d="M2169 4344 c-6 -7 -18 -10 -26 -7 -10 4 -14 2 -10 -4 4 -6 0 -14 -9
-17 -12 -4 -15 -2 -10 9 3 9 0 15 -9 15 -9 0 -14 -8 -12 -22 1 -17 -3 -23 -15
-22 -12 1 -18 -6 -19 -20 0 -11 -3 -15 -6 -8 -2 6 -14 12 -24 12 -11 0 -17 -4
-14 -10 3 -5 -1 -10 -11 -10 -12 0 -15 -6 -11 -21 3 -12 0 -22 -9 -26 -8 -3
-14 -11 -14 -19 0 -25 17 -15 31 18 11 27 14 28 19 12 4 -10 2 -27 -4 -37 -8
-14 -8 -20 4 -27 12 -8 12 -10 -5 -10 -18 -1 -17 -2 5 -15 14 -8 21 -15 15
-15 -13 0 16 -20 30 -20 6 0 3 5 -5 10 -13 8 -13 10 0 10 11 0 11 3 2 12 -7 7
-12 17 -12 23 0 5 4 4 8 -3 5 -8 16 -10 27 -6 15 6 11 10 -21 20 -21 6 -31 12
-22 13 9 1 24 11 32 23 l15 21 11 -28 c6 -15 13 -25 17 -22 3 3 2 14 -2 24
-11 25 -13 53 -4 53 4 0 9 -6 12 -12 7 -22 48 22 41 44 -3 11 1 20 11 24 13 6
14 8 3 15 -23 15 47 10 85 -6 41 -17 71 -20 44 -4 -9 6 -15 14 -12 20 4 5 2 9
-4 9 -5 0 -11 -5 -13 -11 -2 -5 -11 -7 -20 -4 -9 4 -15 12 -12 19 6 16 -63 16
-77 0z"/>
</g>
</svg>
