<?xml version="1.0" standalone="no"?>
<!DOCTYPE svg PUBLIC "-//W3C//DTD SVG 20010904//EN"
 "http://www.w3.org/TR/2001/REC-SVG-20010904/DTD/svg10.dtd">
<svg version="1.0" xmlns="http://www.w3.org/2000/svg"
 width="1280.000000pt" height="960.000000pt" viewBox="0 0 1280.000000 960.000000"
 preserveAspectRatio="xMidYMid meet">
<metadata>
Created by potrace 1.13, written by Peter Selinger 2001-2015
</metadata>
<g transform="translate(0.000000,960.000000) scale(0.100000,-0.100000)"
fill="#000000" stroke="none">
<path d="M0 6571 l1 -3030 39 2 c22 1 45 -4 52 -11 9 -9 0 -10 -40 -5 l-52 6
0 -71 c0 -66 2 -72 23 -76 48 -10 346 -28 356 -21 6 3 11 2 11 -3 0 -6 6 -10
12 -9 50 2 81 -4 72 -13 -9 -9 -62 -6 -283 15 -105 11 -42 -6 75 -20 66 -8
169 -21 229 -29 176 -25 191 -26 175 -19 -8 3 -20 12 -27 18 -7 7 -34 13 -60
13 -104 1 -108 1 -95 14 14 14 137 13 242 -2 40 -6 82 -8 92 -4 12 3 18 1 16
-7 -4 -15 85 -35 184 -42 36 -3 70 -7 75 -10 4 -3 34 -8 65 -11 31 -3 65 -9
74 -13 14 -5 16 -3 10 12 -6 17 -5 18 11 3 13 -11 50 -17 127 -22 60 -3 107
-4 104 -1 -2 3 -18 6 -34 7 -37 2 -49 9 -34 18 7 4 31 5 53 2 26 -3 38 -1 34
5 -4 7 9 10 37 9 28 0 42 -5 39 -12 -2 -6 3 -14 11 -17 10 -4 13 -1 9 9 -5 13
1 14 32 8 21 -4 40 -3 44 3 9 14 65 27 56 13 -3 -5 1 -10 9 -10 9 0 16 6 16
14 0 9 7 12 20 9 23 -6 26 -19 8 -26 -7 -3 -1 -6 15 -6 15 -1 27 4 27 9 0 6 7
10 15 10 8 0 15 -4 15 -9 0 -14 42 -21 62 -10 12 6 18 6 18 -1 0 -5 7 -10 16
-10 9 0 12 5 8 13 -4 6 2 4 13 -6 21 -18 59 -23 65 -8 4 12 67 17 95 7 13 -4
23 -13 23 -20 0 -7 6 -13 14 -13 8 0 12 6 8 15 -3 10 -1 13 6 8 13 -8 32 -12
97 -23 38 -6 39 -5 25 13 -9 12 -9 15 -1 7 7 -6 19 -9 27 -6 7 2 21 0 31 -7
15 -9 13 -10 -12 -5 -16 4 -27 3 -23 -1 10 -10 99 -23 115 -17 20 8 5 23 -22
23 -13 0 -27 5 -31 11 -5 9 1 10 20 5 15 -4 26 -2 26 4 0 5 5 10 11 10 5 0 7
-4 4 -10 -3 -5 -1 -10 4 -10 6 0 11 -7 11 -15 0 -8 5 -15 10 -15 6 0 10 7 8
16 -2 10 3 19 10 21 7 3 12 -4 12 -16 0 -16 6 -21 25 -21 30 0 33 16 5 23 -31
8 -23 23 13 24 56 2 59 3 53 18 -7 18 10 20 17 3 4 -10 8 -9 16 2 7 10 11 11
11 3 0 -7 5 -13 11 -13 5 0 9 10 7 23 -3 19 2 22 35 25 20 2 37 7 37 13 0 5
-5 9 -11 9 -5 0 -7 5 -3 11 5 8 9 8 14 -1 4 -7 30 -11 66 -10 32 1 61 1 64 0
3 -2 17 -3 32 -4 15 -1 30 -5 33 -8 4 -4 18 -4 31 -2 13 2 24 0 24 -5 0 -5 7
-12 16 -15 15 -6 15 -4 3 10 -13 16 -11 17 21 10 111 -25 116 -25 95 -9 -19
15 -18 15 14 9 18 -3 37 -6 42 -6 5 0 9 -4 9 -10 0 -20 37 -45 68 -46 18 -1
32 1 32 6 0 4 19 3 43 -2 69 -15 107 -18 107 -8 0 6 -15 10 -34 10 -19 0 -41
7 -50 15 -9 9 -17 11 -21 5 -8 -13 -35 -13 -35 0 0 6 7 10 15 10 8 0 15 4 15
9 0 6 12 6 28 2 30 -8 65 -3 58 8 -8 12 28 9 37 -3 6 -8 10 -7 14 1 3 9 10 10
21 4 23 -11 80 -12 87 0 4 5 12 9 18 9 7 0 6 -4 -3 -10 -12 -8 -10 -10 10 -11
14 0 34 -5 45 -10 17 -8 17 -9 -5 -5 -14 3 -31 1 -39 -3 -14 -9 24 -19 154
-39 l60 -9 -50 -2 c-93 -4 -164 -3 -174 3 -5 4 -12 2 -15 -3 -8 -12 28 -21 83
-21 24 0 42 -3 38 -6 -11 -11 -89 -14 -108 -4 -15 9 -19 7 -19 -7 0 -16 11
-19 111 -20 68 -1 116 -6 125 -14 10 -8 14 -9 14 0 0 6 -7 14 -15 17 -23 9
-18 26 6 19 13 -4 19 -3 16 2 -4 6 4 8 17 6 16 -3 25 1 30 13 8 20 -10 35 -33
27 -14 -4 -14 -3 -1 6 29 21 44 10 56 -41 1 -5 2 -11 3 -15 1 -5 6 2 11 15 11
25 28 29 36 7 4 -8 18 -15 33 -15 14 0 35 -7 45 -15 26 -20 47 -19 39 1 -4 12
-7 13 -14 3 -6 -10 -9 -9 -15 4 -9 25 3 34 27 19 16 -11 25 -10 48 1 23 11 29
11 40 -1 12 -12 11 -13 -8 -7 -15 5 -21 2 -21 -10 0 -9 4 -14 9 -11 5 4 28 7
50 8 43 1 49 6 28 27 -10 10 -3 11 33 5 25 -4 53 -7 63 -6 9 0 28 2 42 3 14 1
25 6 25 11 0 6 7 4 17 -3 13 -11 17 -11 20 -1 7 18 23 15 24 -5 0 -11 3 -13 6
-5 7 18 31 15 29 -5 -1 -23 30 -29 38 -7 5 14 4 15 -9 4 -12 -10 -15 -10 -15
2 0 14 57 43 75 38 6 -2 39 -4 75 -6 36 -1 67 -3 70 -4 3 -1 9 -2 14 -1 5 1
12 -3 16 -10 11 -16 179 -17 189 0 6 9 20 10 47 5 54 -11 53 -11 114 -13 40
-1 51 -4 40 -11 -9 -6 -10 -10 -3 -10 6 0 19 -3 27 -6 12 -5 15 -2 10 11 -5
13 -3 16 7 13 8 -3 13 -10 12 -17 -3 -13 50 -28 54 -15 2 5 43 8 93 8 54 -1
90 2 90 8 0 6 7 5 15 -2 18 -15 20 -31 3 -29 -7 1 -24 0 -38 -2 -14 -1 29 -5
95 -9 66 -3 128 -2 138 3 18 8 18 10 -4 33 -12 13 -28 24 -36 24 -7 0 -13 4
-13 10 0 5 10 8 23 6 12 -3 25 -5 30 -5 4 -1 6 -7 5 -13 -2 -7 4 -11 12 -9 24
6 46 8 33 4 -25 -9 -12 -19 18 -15 20 3 29 9 25 18 -3 8 1 14 10 14 8 0 12 -5
9 -10 -3 -6 3 -10 15 -10 17 0 20 4 15 23 -6 20 -5 21 8 5 17 -21 48 -23 65
-6 9 9 15 10 20 2 4 -6 41 -14 82 -18 136 -13 148 -16 143 -37 -5 -17 1 -19
69 -19 61 0 78 -3 92 -19 10 -11 28 -22 40 -24 12 -3 4 -5 -19 -7 -92 -6 -139
-7 -127 -3 17 6 15 23 -3 23 -8 0 -15 -7 -15 -15 0 -8 -4 -15 -8 -15 -5 0 -18
-9 -30 -21 -23 -21 -47 -17 -38 7 3 9 -1 14 -13 14 -10 0 -21 -6 -24 -14 -5
-12 -13 -13 -43 -4 -20 5 -51 7 -68 4 -17 -4 -39 -8 -49 -9 -31 -5 -42 -24
-18 -32 12 -3 21 -11 21 -16 0 -11 -37 -12 -44 0 -13 20 -209 33 -281 18 -22
-5 -51 -10 -65 -12 -198 -33 -243 -41 -235 -46 6 -3 25 -5 43 -5 20 1 31 -3
28 -10 -3 -7 3 -10 14 -7 10 3 21 -1 25 -7 6 -9 -3 -11 -36 -6 -24 3 -53 6
-65 6 -14 0 -23 10 -30 33 -8 29 -12 32 -42 29 -18 -2 -45 -15 -60 -29 -26
-25 -29 -25 -133 -18 -86 5 -113 4 -136 -9 -26 -13 -34 -13 -73 0 -24 8 -49
13 -55 10 -7 -2 -22 5 -33 17 -16 17 -30 21 -59 19 -164 -11 -199 -15 -208
-22 -5 -4 -30 -11 -55 -15 -25 -4 -49 -10 -54 -13 -6 -3 -27 -6 -47 -7 -21 -1
-53 -9 -72 -19 -20 -9 -42 -13 -50 -10 -21 8 -117 -13 -141 -31 -19 -14 -19
-15 4 -35 13 -11 30 -20 38 -20 12 0 12 3 -4 15 -17 14 -12 15 63 13 63 -2 79
-6 71 -15 -6 -7 -29 -14 -52 -14 -41 -1 -41 -2 10 -9 29 -4 56 -10 61 -13 5
-3 7 7 5 25 -4 28 -3 30 19 23 32 -10 32 -10 19 -35 -12 -22 -11 -23 44 -18
31 3 56 1 56 -3 0 -4 16 -10 35 -13 19 -4 35 -10 35 -14 0 -12 59 -34 71 -26
8 5 4 13 -12 26 -18 15 -19 18 -6 14 10 -3 25 -6 33 -6 8 0 11 -6 8 -15 -4 -8
-1 -15 5 -15 6 0 11 4 11 8 0 5 19 7 43 5 425 -37 502 -50 457 -78 -31 -19 18
-39 64 -27 25 7 26 9 12 21 -23 19 -10 31 22 21 26 -8 103 -17 227 -26 35 -3
69 1 83 8 15 8 29 8 45 1 39 -18 86 -31 91 -26 11 11 126 8 221 -5 181 -25
214 -28 285 -26 38 1 70 -2 70 -7 0 -5 7 -9 16 -9 8 0 13 4 10 9 -3 5 12 8 35
7 35 -1 38 -2 22 -13 -15 -12 -15 -13 7 -13 13 0 20 -3 16 -8 -10 -9 -111 -12
-445 -13 -239 0 -271 -2 -255 -14 18 -14 18 -14 -6 -16 -58 -4 -66 -4 -79 6
-11 8 -13 6 -9 -5 7 -21 114 -25 122 -4 3 8 13 14 23 14 17 -1 17 -1 1 -11
-28 -16 -21 -31 15 -28 41 3 106 -10 132 -25 11 -7 38 -11 61 -8 22 2 58 -1
79 -7 22 -6 41 -8 44 -6 2 3 -5 18 -17 34 l-21 29 22 6 c34 9 40 7 27 -9 -23
-28 -4 -50 46 -51 26 -1 49 -7 54 -14 4 -7 12 -10 18 -6 6 3 22 2 36 -4 20 -7
26 -6 26 4 0 18 43 28 84 20 29 -5 89 -10 174 -13 33 -1 27 -19 -10 -29 -17
-4 -42 -22 -55 -39 -23 -30 -23 -31 -4 -26 11 3 34 0 50 -5 19 -7 33 -7 36 -1
4 5 13 5 25 -1 13 -7 21 -7 25 0 3 5 11 10 16 10 6 0 8 -4 5 -9 -3 -5 15 -6
39 -3 37 4 45 2 45 -12 0 -19 46 -23 53 -3 3 6 3 -6 1 -28 -2 -22 -1 -35 4
-30 4 6 18 11 32 12 24 1 24 0 -5 -13 -38 -17 -62 -17 -68 -1 -3 9 -13 7 -37
-7 -29 -17 -34 -17 -44 -4 -18 25 -71 48 -87 37 -21 -13 -139 -11 -139 2 0 7
11 9 28 6 16 -3 35 0 46 9 11 8 18 14 15 15 -2 0 -29 2 -59 4 -30 2 -75 7
-100 10 -25 4 -83 8 -130 10 -47 2 -92 5 -100 8 -8 3 -67 8 -130 11 -129 6
-113 -10 20 -20 41 -3 111 -11 155 -19 44 -7 107 -14 140 -15 95 -3 103 -4 98
-13 -3 -5 -15 -6 -27 -3 -11 3 -28 1 -36 -4 -17 -11 -17 -12 32 -14 21 -1 41
-5 44 -9 4 -4 29 -7 56 -7 26 0 48 -4 48 -9 0 -12 52 -11 68 1 8 7 12 7 12 0
0 -19 115 -35 258 -34 106 0 152 4 152 13 0 11 -54 18 -61 8 -3 -6 -21 -7 -40
-4 -39 7 -51 15 -23 15 18 1 18 1 -1 17 -20 15 -20 15 2 10 15 -3 23 1 26 14
3 11 4 19 3 19 0 0 -15 -4 -31 -9 -23 -6 -39 -4 -63 9 -18 10 -28 21 -23 25 6
3 20 1 31 -5 12 -7 20 -7 20 -1 0 5 9 9 19 8 11 0 17 -5 14 -11 -4 -5 4 -6 19
-3 14 4 38 3 55 -2 17 -5 37 -5 46 1 13 7 15 5 11 -7 -7 -17 -5 -16 -52 -20
-18 -1 -35 -5 -38 -7 -7 -8 7 -38 18 -38 6 0 8 7 5 14 -4 10 -1 13 8 9 8 -3
28 0 45 5 18 7 30 7 30 1 0 -5 7 -9 16 -9 12 0 15 6 11 21 -4 16 -3 18 9 8 11
-9 14 -8 14 2 0 9 3 10 8 3 4 -6 30 -8 67 -5 53 5 58 8 40 18 -17 10 -17 12
-3 13 9 0 24 -3 33 -6 13 -5 14 -8 3 -15 -8 -6 4 -9 32 -9 25 0 62 -4 83 -9
28 -7 47 -5 70 5 32 14 31 14 -18 8 -41 -5 -54 -3 -65 12 -14 16 -12 17 23 10
43 -8 47 1 11 28 -18 13 -36 17 -60 13 -18 -3 -36 -2 -39 4 -3 5 -20 13 -38
18 l-32 9 29 1 c16 1 38 -6 48 -16 13 -11 18 -12 18 -3 0 10 17 11 70 8 58 -4
70 -3 73 11 4 14 5 14 6 0 1 -11 9 -16 26 -15 23 1 24 2 8 14 -16 11 -10 17
12 12 31 -8 72 -6 83 3 11 8 16 7 23 -6 6 -9 15 -17 20 -17 6 0 7 5 3 11 -3 6
5 3 20 -6 14 -9 33 -15 41 -11 8 3 15 1 15 -5 0 -6 5 -7 12 -3 6 4 8 3 5 -4
-4 -5 -17 -8 -29 -4 -11 3 -19 1 -16 -4 4 -5 -7 -9 -23 -10 -16 -1 -29 3 -29
7 0 5 -5 9 -11 9 -5 0 -7 -4 -4 -10 3 -5 -7 -12 -22 -16 -15 -3 -32 -7 -38 -8
-5 -2 46 -3 115 -2 69 0 187 -2 262 -4 76 -3 139 -2 140 2 2 3 33 3 70 -1 42
-4 64 -3 61 3 -4 5 0 7 9 4 8 -4 21 -3 28 2 17 10 -22 25 -77 28 -13 1 -23 6
-23 11 0 6 16 7 37 4 26 -4 34 -3 29 5 -4 7 -3 12 3 12 5 0 11 -6 14 -12 3
-10 9 -10 25 -1 12 7 47 16 79 19 70 8 73 9 96 19 10 4 37 4 60 0 23 -4 110
-9 192 -11 83 -3 168 -6 190 -8 22 -2 52 -4 68 -5 15 -1 27 -4 27 -8 0 -5 -38
-8 -85 -7 -46 0 -82 -2 -80 -6 3 -4 -8 -10 -24 -13 -16 -3 -31 -13 -34 -20 -5
-13 29 -15 239 -13 165 1 240 -2 231 -9 -8 -5 -12 -16 -10 -22 3 -9 -3 -9 -23
2 -28 14 -50 11 -25 -4 9 -6 10 -11 2 -15 -6 -4 -9 -12 -6 -17 4 -5 1 -9 -4
-9 -6 0 -11 5 -11 10 0 6 -11 10 -25 10 -14 0 -25 -4 -25 -10 0 -5 -23 -10
-50 -10 -55 0 -130 -20 -130 -34 0 -5 15 -6 33 -2 20 4 27 3 18 -3 -23 -15 1
-19 104 -19 65 0 103 4 108 11 5 8 7 5 5 -7 -3 -20 11 -26 101 -41 45 -7 52
-15 15 -15 -19 0 -25 -3 -16 -9 8 -4 34 -4 59 0 26 5 52 5 62 -1 10 -5 22 -5
27 -1 5 5 38 5 72 0 35 -5 69 -6 75 -2 6 4 29 8 52 9 22 2 55 5 72 8 18 2 35
0 38 -5 4 -5 17 -6 29 -3 13 3 52 0 87 -7 35 -6 79 -11 97 -11 36 2 40 -5 14
-24 -14 -11 -1 -12 81 -9 54 2 104 8 111 14 7 6 17 6 26 1 8 -6 24 -9 35 -9
17 1 16 2 -5 10 -25 9 -19 9 134 -8 39 -4 57 -3 53 4 -7 11 -101 25 -161 23
-56 -1 -98 9 -89 23 4 7 -2 5 -12 -3 -15 -12 -17 -12 -10 -1 6 11 4 13 -8 8
-10 -3 -17 -2 -17 3 0 6 4 10 8 10 5 0 17 7 28 15 17 13 2 14 -131 9 -82 -3
-161 -6 -175 -6 -16 0 -19 -2 -7 -5 17 -4 24 -23 9 -23 -5 0 -44 9 -87 20 -84
22 -147 27 -110 9 15 -7 10 -8 -20 -4 -22 3 -62 8 -90 11 -27 3 -60 7 -72 10
-25 5 -31 20 -10 22 6 1 37 6 67 10 30 5 79 9 108 8 49 -1 67 6 40 17 -10 4
-9 8 2 16 13 9 13 11 -2 11 -10 0 -18 -4 -18 -9 0 -11 -7 -11 -100 -11 -35 0
-66 3 -69 5 -2 3 14 5 37 5 33 0 40 3 36 15 -4 11 1 15 17 16 l24 1 -25 9
c-16 5 7 7 65 3 49 -3 93 -10 96 -16 4 -6 12 -7 19 -3 6 4 17 0 23 -9 16 -21
165 -30 191 -11 20 15 14 35 -12 35 -9 0 -24 5 -32 10 -16 10 166 6 268 -6 49
-6 83 -23 45 -23 -10 0 -49 -4 -86 -10 -72 -12 -113 -9 -131 9 -12 12 -26 13
-26 2 0 -28 117 -48 318 -56 51 -2 99 -9 107 -16 16 -13 184 -5 198 9 5 5 22
5 38 1 27 -8 178 -5 240 4 15 2 52 -2 82 -9 42 -10 57 -10 61 -1 2 6 5 3 5 -8
1 -15 4 -16 16 -6 12 10 15 10 15 -1 0 -11 2 -12 9 -1 6 10 43 14 134 15 70 1
127 5 127 10 0 4 -4 7 -8 7 -5 0 -17 6 -27 14 -16 12 -9 14 59 14 47 1 74 -3
71 -8 -4 -6 2 -10 12 -11 16 0 16 -1 -2 -10 -15 -7 -12 -8 13 -3 18 3 32 1 32
-4 0 -13 87 -24 183 -23 43 1 86 -3 95 -8 14 -9 10 -11 -18 -12 -19 -1 -43 -1
-53 -1 -10 1 -16 -2 -12 -7 3 -6 -15 -13 -41 -17 -32 -5 -48 -3 -54 6 -5 9 -9
9 -11 1 -2 -6 -24 -15 -49 -19 l-45 -8 93 -17 c51 -10 97 -15 102 -12 5 3 91
6 192 7 101 1 188 5 194 9 5 5 36 7 67 4 32 -2 57 0 57 6 0 5 -8 9 -17 10 -12
0 -9 3 7 8 14 4 52 5 85 1 32 -4 72 -6 87 -5 15 1 25 -2 22 -7 -3 -4 6 -8 20
-8 13 0 36 -4 50 -10 16 -6 27 -6 31 0 4 6 -1 10 -9 10 -9 0 -16 4 -16 10 0 6
30 8 78 5 71 -5 75 -4 47 9 -29 14 -29 14 25 14 47 0 51 -2 30 -11 -25 -9 -25
-10 10 -18 19 -5 43 -14 53 -20 10 -5 42 -9 70 -8 29 1 64 -4 80 -10 20 -8 27
-8 27 2 0 9 2 9 8 0 6 -9 17 -10 40 -4 20 6 30 6 27 0 -4 -5 1 -12 9 -15 9 -3
16 -12 16 -20 0 -8 10 -14 25 -14 22 0 25 4 25 33 0 18 -5 38 -12 45 -9 9 -9
12 0 12 15 0 17 415 2 425 -6 3 -10 11 -10 16 0 6 5 7 10 4 7 -4 10 94 10 287
l0 293 -37 1 c-21 1 -79 8 -128 15 -55 9 -104 12 -125 7 -53 -12 -198 -19
-204 -10 -3 5 -30 5 -61 2 -30 -3 -58 -4 -60 -2 -2 3 -33 6 -67 7 -35 1 -124
5 -198 9 -74 3 -263 8 -420 12 -157 4 -334 8 -395 9 -60 2 -123 5 -140 8 -53
10 -128 10 -209 -2 -43 -6 -95 -8 -115 -6 -20 3 -135 7 -256 9 -121 2 -235 9
-252 14 -19 6 -35 7 -38 2 -7 -12 -248 -1 -256 11 -7 11 -16 11 -459 7 -184
-2 -341 -7 -348 -12 -8 -4 -84 -7 -170 -6 -86 1 -247 4 -357 5 -110 1 -236 5
-280 7 -44 3 -87 2 -95 -2 -17 -9 -60 5 -60 18 0 5 12 7 26 4 18 -3 30 0 36
12 5 9 18 16 29 16 12 0 17 -4 14 -11 -4 -6 -13 -8 -21 -5 -8 3 -14 1 -14 -4
0 -16 36 -12 50 5 9 11 16 12 25 5 15 -13 366 -20 408 -9 18 5 25 4 21 -2 -4
-7 77 -9 245 -7 138 2 251 7 251 11 0 4 -59 7 -131 6 -71 0 -133 2 -136 5 -6
5 84 11 115 7 6 -1 12 3 12 9 0 7 -109 10 -337 9 -186 -1 -411 2 -500 6 -115
5 -163 3 -163 -4 0 -10 40 -15 110 -13 14 0 19 -2 12 -5 -6 -2 -9 -10 -5 -16
4 -7 0 -8 -13 -2 -18 8 -47 11 -139 14 -30 1 -36 4 -25 11 8 5 22 7 31 5 10
-3 16 1 16 11 0 13 -12 15 -84 11 -46 -3 -87 -8 -91 -12 -4 -3 4 -5 18 -4 40
4 62 0 56 -10 -6 -9 -86 -7 -171 4 -29 4 -36 2 -25 -5 8 -5 26 -10 40 -10 20
0 22 -2 10 -10 -11 -7 3 -10 45 -10 33 0 78 -3 99 -7 32 -5 38 -4 31 8 -7 11
-6 12 6 3 8 -5 42 -10 76 -10 41 1 63 -3 63 -10 0 -19 -32 -22 -146 -12 -60 5
-136 7 -169 3 -33 -3 -76 -7 -95 -9 -19 -2 -117 -7 -216 -11 l-181 -8 -35 27
c-19 14 -40 26 -45 26 -6 0 -15 6 -21 12 -8 10 41 13 241 13 201 0 255 2 269
14 10 8 29 11 45 8 16 -2 37 -1 48 3 11 4 -49 9 -135 12 -91 2 -166 0 -182 -6
-22 -8 -31 -7 -45 7 -16 16 -15 17 20 17 23 0 36 4 32 10 -6 10 -46 7 -66 -5
-19 -13 -92 -15 -105 -4 -8 6 -21 8 -30 5 -22 -8 -222 -9 -259 -1 -24 5 -27 4
-15 -5 12 -9 9 -10 -15 -4 -16 4 -39 7 -50 6 -11 -1 -82 -2 -157 -2 -108 -1
-138 -4 -142 -16 -3 -8 -11 -14 -17 -14 -8 0 -7 5 2 17 13 15 12 15 -8 4 -29
-15 -83 -2 -97 24 -19 34 -40 45 -71 40 -23 -4 -34 0 -47 17 -13 16 -16 17
-12 6 3 -10 2 -18 -4 -18 -6 0 -12 5 -14 11 -3 9 -10 9 -27 0 -14 -8 -26 -9
-34 -3 -11 9 -68 21 -104 22 -7 0 -13 5 -13 10 0 7 19 9 50 6 51 -5 102 5 83
17 -22 14 -162 28 -264 26 -61 0 -115 4 -127 10 -26 14 -42 14 -42 1 0 -5 7
-10 17 -10 9 0 13 -3 10 -7 -4 -3 -24 1 -44 10 -21 9 -55 18 -75 22 -21 3 -38
9 -38 13 0 8 57 7 325 -4 105 -4 280 -7 389 -6 110 1 197 0 194 -3 -6 -7 -64
-14 -120 -14 -27 -1 -48 -6 -48 -11 0 -6 10 -8 23 -6 12 3 101 7 197 10 210 6
275 -8 90 -19 -158 -10 -277 -22 -228 -24 20 0 38 -6 40 -12 2 -7 33 -13 72
-14 37 -2 84 -5 104 -8 20 -2 29 -2 20 0 -10 2 -18 9 -18 14 0 6 49 8 133 6
72 -3 162 -6 200 -7 37 -2 67 -6 67 -9 0 -4 20 -8 45 -10 25 -1 45 2 45 8 0 5
65 9 161 9 95 1 158 -3 153 -8 -11 -11 -29 -12 -178 -10 -60 0 -111 -2 -114
-5 -3 -3 33 -6 79 -6 46 -1 104 -3 129 -4 24 -2 61 2 82 10 21 7 36 9 33 5 -2
-4 75 -8 173 -9 97 0 214 -5 260 -9 46 -4 86 -4 89 1 3 4 12 5 22 2 27 -11
150 -15 156 -5 6 10 349 5 367 -6 6 -4 117 -8 247 -9 l235 -1 33 35 c38 40 37
39 18 65 -12 16 -17 17 -30 6 -12 -10 -16 -8 -25 16 -7 17 -7 31 -1 37 11 11
34 0 26 -13 -3 -5 -1 -11 5 -15 6 -3 13 0 16 9 3 8 13 14 22 14 9 -1 28 2 40
6 21 7 23 5 17 -13 -6 -20 -4 -20 22 -10 15 6 37 15 48 19 11 5 38 11 60 14
22 3 45 13 52 22 18 24 89 31 112 9 23 -20 183 -30 214 -13 13 7 28 6 47 -2
24 -10 33 -9 51 4 23 16 93 13 112 -4 9 -8 77 20 77 32 0 4 12 8 26 8 19 0 24
-4 20 -17 -2 -10 -8 -29 -11 -42 -7 -22 -5 -23 16 -17 49 16 79 18 79 7 0 -6
7 -11 16 -11 8 0 12 -5 9 -10 -5 -7 7 -9 34 -6 22 3 43 0 47 -5 3 -6 13 -7 23
-4 9 4 32 9 51 11 19 3 51 8 70 12 19 4 51 4 71 -2 28 -7 46 -5 79 8 28 11 45
13 49 7 4 -6 34 -11 67 -13 62 -2 70 1 119 49 24 25 54 30 72 12 14 -14 83 15
83 35 0 9 5 16 10 16 6 0 10 -7 10 -15 0 -18 17 -20 22 -3 3 8 12 4 25 -9 21
-21 22 -21 39 -2 13 14 20 16 30 8 11 -9 11 -14 -1 -26 -25 -24 -18 -30 44
-36 33 -3 66 -9 73 -13 7 -5 54 -9 103 -10 50 0 101 -4 115 -9 24 -9 105 -11
185 -6 48 3 113 -8 121 -20 8 -14 68 -11 89 5 14 10 27 11 54 3 20 -5 73 -9
119 -7 45 1 82 -1 82 -5 0 -3 -5 -15 -10 -26 -7 -13 -7 -19 0 -19 5 0 10 -4
10 -10 0 -5 -11 -10 -25 -10 -18 0 -23 4 -19 15 5 11 2 13 -10 9 -10 -4 -15
-12 -12 -20 7 -19 -23 -42 -34 -25 -4 8 -16 11 -29 6 -15 -4 -21 -2 -21 8 0
22 -27 14 -61 -17 -25 -24 -40 -29 -92 -32 -104 -6 -177 -16 -184 -27 -4 -7
11 -7 43 -2 46 8 135 11 359 15 50 1 124 -1 165 -4 41 -4 195 -8 343 -9 l267
-2 0 488 c-1 380 -3 486 -13 480 -7 -4 -7 -1 2 10 12 15 11 17 -3 17 -9 0 -16
4 -16 10 0 5 7 7 15 4 13 -5 15 297 15 2580 l0 2586 -6400 0 -6400 0 0 -3029z
m5430 -753 c-5 -47 -11 -96 -15 -107 -4 -12 -3 -21 2 -20 24 4 54 -16 59 -40
3 -14 7 -30 8 -36 2 -5 -9 -15 -23 -21 l-26 -11 27 1 c16 0 28 5 28 10 0 4 12
6 27 3 22 -4 25 -3 13 6 -19 15 -40 61 -40 87 0 11 -7 20 -15 20 -8 0 -15 6
-15 14 0 8 -6 17 -12 19 -8 4 -9 6 -2 6 6 1 17 -6 24 -14 7 -8 19 -15 26 -15
9 0 13 -12 12 -35 -1 -19 2 -38 5 -42 4 -3 7 6 7 20 0 22 5 27 26 27 32 0 66
-18 59 -31 -6 -9 1 -13 48 -23 16 -4 25 -11 21 -17 -3 -6 -12 -8 -20 -5 -8 3
-14 1 -14 -4 0 -6 9 -10 20 -10 11 0 20 5 20 10 0 6 7 10 15 10 18 0 20 -20 3
-21 -10 0 -10 -2 -1 -6 7 -2 16 -5 19 -6 11 -3 14 36 3 49 -14 18 1 44 25 43
16 -1 17 -2 4 -6 -21 -5 -21 -5 -8 -35 15 -33 -10 -104 -36 -101 -11 1 -13 0
-6 -3 6 -3 12 -10 12 -15 0 -6 -4 -8 -9 -5 -4 3 -6 -6 -3 -21 4 -23 7 -21 26
24 12 28 26 56 31 64 6 8 10 28 9 44 -2 40 4 49 24 33 14 -11 15 -10 9 6 -6
16 -5 17 8 6 17 -14 11 -30 -11 -30 -8 0 -12 -5 -9 -11 5 -7 15 -3 29 10 12
12 28 21 36 21 7 0 -8 -18 -33 -40 -49 -43 -102 -136 -95 -167 4 -14 7 -12 18
12 19 40 18 39 34 26 11 -9 14 -9 13 1 -1 38 4 48 27 48 27 0 54 -25 36 -33
-6 -3 -6 -5 1 -3 7 1 13 12 14 23 1 15 -3 19 -13 15 -10 -3 -13 -1 -8 7 5 7
16 9 28 5 16 -5 20 -3 15 10 -3 8 -3 18 2 20 10 7 10 -26 0 -40 -5 -7 -3 -11
6 -11 8 0 13 2 11 4 -2 2 -1 16 3 31 6 19 3 30 -8 39 -14 10 -14 14 -2 25 12
11 13 10 8 -4 -4 -10 -2 -18 3 -18 6 0 10 5 10 10 0 6 4 10 9 10 15 0 -16
-154 -39 -195 -12 -22 -45 -72 -74 -112 -28 -39 -78 -110 -110 -157 -33 -47
-74 -101 -90 -118 -29 -31 -103 -128 -151 -198 -23 -33 -38 -39 -33 -12 4 24
-37 78 -64 86 -13 3 -33 21 -45 41 -26 39 -29 50 -11 39 18 -11 98 -13 98 -3
0 5 -6 9 -14 9 -8 0 -18 4 -21 10 -4 6 1 7 12 4 17 -5 17 -5 -1 10 -14 11 -34
13 -89 9 -52 -5 -68 -3 -63 5 4 7 18 9 32 6 18 -5 24 -2 24 11 0 13 6 16 23
11 20 -5 23 -1 25 29 2 25 -2 35 -12 35 -8 0 -16 10 -18 23 -2 17 -9 22 -30
22 -22 -1 -28 4 -28 20 0 24 29 114 41 131 5 6 18 39 29 74 11 35 25 69 31 77
6 7 9 22 6 33 -3 13 0 20 9 20 8 0 14 7 14 15 0 8 6 15 13 15 7 0 8 3 2 8 -5
4 -11 21 -13 37 -2 24 0 27 9 15 8 -12 9 -8 5 15 -6 29 -6 29 10 10 8 -11 20
-19 25 -17 16 4 10 -17 -8 -27 -15 -8 -16 -12 -5 -22 10 -11 12 -10 12 3 0 9
10 18 23 22 17 5 19 8 8 15 -7 5 -11 13 -8 19 4 5 -3 18 -15 28 -20 19 -21 19
-14 -6 l7 -25 -14 23 c-7 12 -17 19 -22 15 -4 -4 -5 0 -2 10 4 10 10 55 13
100 6 72 19 126 29 115 1 -1 -1 -42 -5 -90z m1013 -133 c16 5 18 4 8 -3 -11
-8 -9 -11 10 -14 18 -2 23 -9 22 -26 -4 -30 19 -28 34 4 9 19 9 32 2 46 -6 11
-8 22 -5 25 3 3 9 -3 13 -13 4 -10 13 -24 21 -30 8 -6 16 -21 17 -35 1 -13 3
-27 4 -31 0 -5 11 -8 24 -7 16 0 18 2 7 7 -8 4 -15 17 -14 30 2 28 3 30 38 36
23 4 26 3 16 -9 -13 -15 -4 -39 10 -30 12 7 51 -26 44 -37 -3 -4 0 -8 6 -8 7
0 10 6 7 13 -15 41 -17 57 -8 57 6 0 11 -7 11 -15 0 -9 8 -19 18 -22 9 -4 20
-12 25 -19 8 -14 37 -8 37 8 0 6 -6 5 -15 -2 -12 -10 -15 -10 -15 4 0 16 34
23 43 9 2 -5 2 -2 1 5 -2 6 3 12 10 12 8 0 16 -6 19 -12 2 -7 8 -10 12 -5 10
8 -26 38 -37 31 -13 -8 -9 4 13 38 16 25 20 27 16 11 -3 -13 2 -31 13 -43 20
-24 35 -26 26 -5 -3 8 -1 15 5 15 6 0 7 5 4 10 -3 6 0 10 8 10 9 0 13 -9 11
-26 -2 -18 4 -27 19 -33 12 -5 25 -7 30 -4 4 2 7 -1 7 -6 0 -6 -15 -12 -32
-12 l-33 -1 30 -7 c17 -4 32 -4 35 0 11 15 60 29 60 17 0 -25 11 1 15 37 3 20
8 41 11 46 7 12 44 11 44 -1 0 -5 -7 -7 -16 -3 -14 5 -15 1 -9 -25 5 -25 3
-32 -9 -32 -9 0 -16 -4 -16 -9 0 -17 40 1 52 23 11 20 12 20 19 -9 5 -16 4
-32 0 -35 -5 -3 -3 -16 4 -30 12 -23 13 -21 10 23 -4 52 3 57 30 27 16 -18 16
-20 2 -20 -10 0 -17 -3 -17 -8 0 -6 67 -9 108 -4 14 2 17 62 2 62 -5 0 -10
-13 -10 -30 0 -23 -4 -30 -20 -30 -16 0 -20 6 -19 33 l1 32 7 -30 c5 -25 8
-27 14 -12 4 10 7 27 7 38 0 12 7 19 19 19 11 0 23 5 26 10 3 6 11 10 18 10 6
0 2 -6 -8 -14 -26 -19 -13 -45 22 -44 30 0 84 -10 92 -18 3 -3 -1 -10 -9 -15
-12 -9 -12 -10 3 -5 32 10 48 -4 42 -38 -5 -30 -5 -30 6 -6 6 14 12 30 13 35
1 6 5 16 10 23 12 20 -4 29 -18 10 -11 -15 -15 -16 -32 -3 -17 13 -17 14 -1
15 11 0 17 8 18 23 0 12 3 16 6 8 5 -11 7 -11 14 0 7 11 11 10 23 -6 22 -29
27 -55 10 -48 -8 3 -14 0 -14 -6 0 -6 3 -12 8 -12 44 -7 62 -6 57 2 -4 5 1 9
9 9 9 0 16 -5 16 -11 0 -5 5 -7 11 -4 6 5 5 11 -5 18 -14 11 -12 15 9 36 l25
23 0 -26 c0 -14 5 -26 11 -26 5 0 7 -6 3 -12 -6 -10 -5 -10 7 -1 8 7 24 10 36
7 17 -5 22 0 28 33 5 24 10 31 13 20 6 -29 -7 -67 -24 -67 -8 0 -12 -5 -9 -10
4 -7 13 -6 27 1 19 10 20 9 16 -14 -4 -22 -3 -25 12 -17 10 5 21 21 24 35 4
14 11 23 15 20 5 -3 20 7 33 22 23 27 58 40 58 22 0 -5 -9 -9 -19 -9 -12 0
-23 -11 -30 -30 -12 -37 2 -40 25 -5 9 14 19 23 22 21 3 -3 0 -11 -5 -18 -16
-21 -12 -47 6 -40 9 3 19 10 23 16 4 6 8 1 8 -11 0 -17 6 -23 24 -23 16 0 26
7 30 23 9 33 7 57 -4 57 -5 0 -9 -8 -8 -17 3 -35 -2 -50 -17 -50 -8 0 -15 6
-15 14 0 7 6 12 13 10 8 -1 11 10 9 38 -2 30 0 36 7 25 6 -8 11 -11 11 -7 0 5
7 1 16 -7 8 -9 13 -19 11 -24 -9 -13 17 -38 38 -37 24 0 23 33 -1 52 -10 7
-12 13 -4 18 5 3 8 10 5 15 -3 4 -1 19 5 32 9 20 10 18 8 -17 -1 -43 18 -105
34 -105 5 0 6 9 3 20 -4 12 -1 27 5 35 13 15 30 11 30 -6 0 -6 -4 -7 -10 -4
-5 3 -10 0 -10 -8 0 -19 26 -41 34 -28 4 5 -2 11 -11 13 -10 3 5 5 32 5 28 0
58 4 67 8 13 5 19 1 24 -19 3 -14 12 -26 20 -26 8 0 14 -3 14 -7 0 -5 12 -16
26 -27 26 -18 26 -18 19 3 -5 16 -2 21 10 21 11 0 15 -5 11 -15 -3 -9 0 -15
10 -15 11 0 13 6 9 19 -8 26 11 36 24 14 10 -17 10 -17 11 2 0 15 2 17 9 6 12
-19 33 -3 26 20 -4 11 -2 19 4 19 6 0 11 7 11 15 0 8 5 15 10 15 6 0 10 -4 10
-10 0 -5 11 -10 25 -10 14 0 25 -4 25 -10 0 -5 -6 -7 -13 -4 -10 3 -12 -5 -9
-32 l4 -36 15 31 c19 38 26 39 44 4 8 -16 18 -31 24 -35 5 -4 6 -10 2 -15 -5
-4 -12 -1 -18 7 -8 13 -10 13 -18 0 -11 -16 -4 -33 10 -25 5 4 13 -4 18 -17
l10 -23 0 25 c1 36 20 53 39 37 13 -10 15 -9 10 10 -4 13 -2 26 3 29 10 6 13
-15 10 -60 -2 -18 1 -26 8 -21 6 3 11 13 11 21 0 18 16 18 23 0 7 -18 55 -51
63 -43 9 8 -19 47 -34 47 -7 0 -10 5 -7 10 11 18 35 11 45 -12 5 -15 9 -17 9
-7 1 20 71 55 71 35 0 -8 -6 -16 -12 -19 -7 -2 -9 -8 -5 -13 4 -5 13 -2 18 6
8 12 9 11 7 -5 -2 -12 -12 -21 -26 -23 -17 -3 -22 2 -22 20 0 17 -2 20 -9 9
-13 -20 8 -49 30 -44 10 3 32 0 49 -5 18 -7 30 -7 30 -1 0 5 -7 9 -15 9 -8 0
-15 5 -15 11 0 6 9 8 20 4 11 -4 20 -2 20 4 0 6 -6 11 -12 11 -24 1 -49 27
-42 44 9 23 24 20 24 -5 0 -14 4 -18 13 -12 6 4 18 8 25 9 10 2 11 -1 1 -12
-10 -13 -8 -13 15 -4 15 5 32 8 37 4 5 -3 9 0 9 5 0 6 4 11 9 11 5 0 7 -9 4
-20 -4 -15 -11 -19 -24 -15 -11 4 -19 2 -19 -4 0 -6 11 -11 24 -11 13 0 27 -6
30 -12 3 -7 4 -4 1 7 -2 11 0 27 5 35 8 12 13 13 29 3 11 -7 28 -10 37 -6 12
4 15 3 10 -6 -10 -15 2 -64 13 -57 5 3 12 -4 16 -17 4 -14 8 -17 12 -9 3 7 -2
21 -12 32 -22 24 -16 74 9 78 26 5 70 -19 54 -29 -7 -4 -9 -11 -5 -15 4 -4 15
0 25 9 10 10 27 17 38 17 15 -1 13 -4 -10 -16 l-28 -16 23 -12 c13 -7 26 -11
29 -8 3 3 -1 7 -7 9 -14 5 -18 24 -5 22 34 -6 43 2 41 35 -2 19 0 38 4 42 4 4
7 -7 7 -24 0 -22 5 -32 16 -32 11 0 14 6 9 23 -5 19 -4 20 5 4 6 -9 8 -22 5
-27 -3 -6 3 -10 15 -10 13 0 19 4 14 11 -4 8 0 9 15 4 18 -5 22 -2 27 24 5 25
9 29 20 20 13 -11 13 -13 -22 -52 -9 -10 -8 -18 3 -33 15 -19 15 -19 10 2 -8
35 8 48 52 47 47 -2 94 -22 52 -23 -20 0 -21 -2 -11 -15 7 -8 16 -15 21 -15 5
0 9 7 9 15 0 9 10 15 23 16 17 1 15 3 -10 10 -18 5 -33 13 -33 17 1 15 30 45
37 37 5 -4 2 -10 -4 -12 -7 -3 -13 -9 -13 -15 0 -6 6 -8 14 -5 7 3 19 0 25 -6
9 -9 13 -6 18 11 5 21 6 21 19 5 12 -16 13 -15 15 12 1 17 3 23 6 13 5 -21 16
-22 45 -7 15 8 22 8 28 -1 4 -7 12 -10 18 -6 6 3 13 2 16 -3 3 -5 -2 -12 -11
-16 -10 -3 -19 -1 -21 4 -2 6 -10 11 -18 11 -9 0 -12 -5 -9 -10 4 -6 1 -18 -6
-26 -10 -13 -8 -13 14 -5 22 9 28 7 37 -9 13 -24 13 -58 1 -44 -5 5 -11 20
-14 34 -4 22 -4 21 -6 -6 -1 -36 23 -53 37 -27 7 12 11 13 17 3 5 -8 1 -18
-10 -27 -11 -7 -14 -13 -8 -13 7 0 18 7 27 15 19 19 30 19 22 -1 -3 -8 -2 -12
4 -9 6 3 10 13 10 21 0 8 4 13 9 9 6 -3 14 2 20 12 8 16 10 14 16 -10 9 -33
25 -36 26 -4 1 21 1 21 8 -3 5 -17 3 -26 -6 -28 -27 -7 -12 -22 17 -17 22 4
30 1 30 -10 0 -8 4 -15 10 -15 5 0 9 3 9 8 -3 20 2 33 11 27 6 -4 8 -16 5 -28
-2 -12 -2 -16 1 -9 3 6 21 12 39 12 19 0 37 5 40 10 11 18 35 11 35 -10 0 -34
45 -37 75 -4 26 28 48 27 25 -2 -12 -13 -11 -17 1 -25 21 -13 29 -11 29 7 0
11 5 14 16 10 9 -3 27 -6 40 -6 16 0 24 -6 24 -17 0 -12 -3 -14 -11 -6 -11 11
-56 6 -65 -8 -3 -5 -13 -5 -24 1 -13 7 -21 7 -25 0 -3 -5 3 -10 14 -10 13 0
21 -7 21 -16 0 -13 3 -14 15 -4 8 7 12 16 9 21 -3 5 9 9 25 9 17 0 31 -5 31
-11 0 -6 -9 -8 -20 -4 -11 4 -20 2 -20 -4 0 -6 5 -11 10 -11 6 0 10 -5 10 -11
0 -12 25 -39 35 -39 4 0 0 11 -9 25 -14 22 -14 25 -2 25 10 0 13 6 9 18 -6 14
-4 15 9 4 11 -9 18 -10 23 -2 3 5 -1 10 -9 10 -9 0 -16 8 -16 18 0 13 2 14 9
3 12 -19 110 -25 117 -6 4 8 10 12 16 9 5 -3 3 -16 -6 -29 -11 -16 -12 -26 -5
-31 6 -3 9 -14 6 -24 -3 -10 4 -23 15 -31 11 -8 27 -20 34 -27 8 -7 19 -10 24
-7 14 8 -27 45 -49 45 -13 0 -13 2 2 18 15 15 19 15 27 2 5 -8 17 -15 27 -15
9 0 20 -10 23 -22 4 -19 7 -20 24 -7 17 12 18 14 3 14 -9 0 -17 5 -17 11 0 5
10 9 22 7 11 -2 23 3 26 11 3 10 -2 11 -19 6 -23 -7 -24 -7 -5 11 13 14 20 16
23 6 3 -6 10 -9 16 -5 6 4 8 0 4 -10 -4 -11 -1 -17 8 -17 8 0 15 -5 15 -11 0
-7 -9 -9 -21 -6 -17 5 -20 2 -16 -15 5 -16 2 -19 -14 -15 -14 4 -19 0 -19 -14
0 -10 -4 -19 -10 -19 -5 0 -10 5 -10 11 0 5 -5 7 -11 3 -8 -5 -7 -10 4 -16 11
-5 24 -4 37 4 18 11 23 10 34 -4 7 -10 21 -18 32 -18 17 0 17 1 -2 15 -10 8
-15 15 -10 15 5 0 3 7 -4 15 -10 13 -9 15 9 15 12 0 21 -6 21 -15 0 -8 5 -15
10 -15 13 0 13 37 0 45 -6 4 -8 11 -5 16 4 5 1 9 -4 9 -6 0 -11 7 -11 16 0 10
8 6 24 -13 23 -26 25 -26 19 -5 -3 13 -1 22 6 22 7 0 9 -5 6 -11 -4 -6 3 -13
15 -16 15 -4 18 -8 9 -13 -8 -6 -5 -11 11 -20 24 -13 43 -4 20 10 -8 6 -10 10
-4 10 6 0 17 -7 24 -15 14 -17 50 -20 50 -4 0 6 7 9 15 5 13 -4 13 -2 5 14 -9
17 -8 18 22 9 43 -12 64 -33 23 -23 -28 7 -29 6 -15 -11 14 -16 13 -17 -8 -11
-12 4 -22 3 -22 -2 0 -5 9 -12 20 -15 12 -3 20 -14 20 -25 0 -26 17 -37 34
-23 17 14 29 2 15 -16 -16 -19 8 -18 27 2 8 8 21 12 29 9 8 -4 15 -1 15 5 0 6
5 11 10 11 14 0 12 -37 -2 -44 -7 -4 2 -4 20 -1 30 4 33 3 27 -15 -5 -15 -3
-18 9 -14 19 7 22 -12 4 -20 -9 -3 -8 -8 5 -16 9 -6 15 -15 12 -21 -4 -5 1 -9
9 -9 24 0 28 18 6 25 -11 3 -20 11 -20 16 0 15 40 10 46 -6 7 -17 34 -21 34
-5 0 6 -5 10 -11 10 -16 0 10 30 36 40 17 7 15 9 -11 9 -20 1 -34 -5 -38 -14
-7 -20 -30 -19 -47 1 -20 24 -19 44 2 65 15 15 19 16 19 4 0 -8 5 -15 10 -15
14 0 12 16 -3 32 -9 8 -11 21 -6 33 7 19 8 19 8 -2 1 -13 5 -23 10 -23 5 0 12
-8 14 -17 3 -13 5 -10 6 7 1 22 3 23 12 8 7 -12 6 -23 -3 -37 -16 -25 -12 -29
36 -33 25 -2 41 2 43 10 3 8 -1 10 -14 5 -16 -6 -16 -5 -4 11 12 15 16 15 23
2 13 -23 -1 -42 -43 -59 -23 -9 -38 -20 -35 -26 4 -6 18 -3 37 6 31 16 78 11
91 -9 3 -6 23 -11 45 -10 24 1 33 -2 25 -7 -10 -6 -8 -10 9 -14 13 -3 28 -2
35 4 15 12 44 1 38 -16 -3 -7 -17 -12 -31 -12 -14 0 -29 -7 -34 -14 -11 -18
-5 -22 18 -11 10 6 33 16 51 22 17 7 32 19 32 27 0 8 -4 11 -10 8 -5 -3 -7 0
-5 8 4 9 16 12 38 9 l31 -5 -24 -10 -25 -10 23 -5 c22 -3 23 -4 6 -17 -15 -11
-17 -18 -8 -42 6 -17 16 -27 26 -25 10 1 18 -8 23 -25 5 -21 8 -24 15 -13 5 9
5 19 -2 27 -8 10 -6 13 6 13 12 0 16 -9 16 -35 0 -27 4 -35 18 -35 14 0 15 2
2 10 -12 8 -12 10 -1 10 10 0 12 8 8 30 -4 18 -2 30 4 30 6 0 8 -4 5 -9 -7
-10 24 -25 33 -16 3 3 0 10 -8 14 -10 6 -9 10 4 14 19 8 55 -12 55 -31 0 -7 5
-10 10 -7 6 3 10 -1 10 -9 0 -8 -5 -18 -10 -21 -6 -4 -8 -11 -5 -16 4 -5 -1
-9 -10 -9 -11 0 -14 6 -9 25 3 14 2 25 -2 25 -13 -1 -44 -26 -44 -35 0 -4 8
-1 17 6 15 12 16 12 11 -3 -4 -10 -1 -19 8 -22 8 -3 14 -15 14 -26 0 -11 5
-20 11 -20 5 0 7 -6 3 -12 -4 -7 -4 -10 1 -6 4 4 16 3 26 -3 27 -14 24 -4 -8
27 -19 17 -24 28 -15 31 6 3 12 12 12 22 0 9 5 22 12 29 9 9 9 15 0 24 -7 7
-12 19 -12 27 1 23 35 61 57 62 15 0 14 2 -4 9 -30 12 -29 18 2 12 35 -6 41
-20 10 -28 -26 -6 -35 -24 -12 -25 6 0 2 -4 -10 -9 -27 -11 -30 -30 -5 -31 10
0 12 -3 5 -6 -19 -7 -15 -24 5 -21 11 2 18 -4 20 -19 2 -13 8 -23 14 -23 6 0
8 11 6 25 -3 14 -1 25 3 25 5 0 9 -7 9 -15 0 -8 7 -15 15 -15 11 0 15 -12 15
-45 0 -25 4 -45 8 -45 5 0 6 14 4 32 -3 22 0 35 12 44 11 8 13 14 7 19 -6 3
-11 14 -11 23 1 15 2 16 13 1 11 -15 49 -39 61 -39 3 0 3 7 0 15 -5 11 -2 13
10 9 18 -7 21 -30 5 -40 -6 -3 -16 -1 -22 5 -16 16 -47 14 -47 -4 0 -8 5 -15
10 -15 6 0 10 -9 10 -20 0 -31 -18 -24 -25 11 -4 17 -9 28 -12 25 -3 -2 0 -21
7 -41 8 -24 17 -35 26 -31 8 3 14 1 14 -4 0 -6 7 -10 15 -10 17 0 16 18 -2 38
-7 7 -13 18 -13 23 0 15 20 10 27 -6 5 -13 8 -13 20 5 8 11 24 20 36 21 21 1
20 2 -3 9 l-25 8 28 1 c18 1 27 6 27 18 0 14 2 15 13 4 9 -10 9 -15 0 -18 -8
-3 -8 -11 2 -31 17 -32 9 -45 -11 -18 -8 11 -14 14 -14 8 0 -7 -9 -12 -20 -12
-31 0 -24 -20 8 -21 15 -1 33 -1 40 0 6 1 12 -3 12 -9 0 -5 -7 -10 -15 -10 -8
0 -15 -7 -15 -15 0 -8 7 -15 15 -15 8 0 15 -4 15 -10 0 -5 -9 -10 -20 -10 -12
0 -20 7 -20 17 0 14 -2 15 -12 4 -10 -11 -10 -14 0 -18 14 -6 16 -23 2 -23 -5
0 -12 11 -16 25 -7 28 -24 24 -24 -5 0 -13 9 -22 25 -26 30 -7 30 -8 9 -39
-15 -23 -15 -25 0 -25 9 0 16 -3 16 -7 0 -13 59 -13 66 -1 5 7 3 8 -5 3 -17
-10 -61 15 -60 34 0 11 2 12 6 4 2 -7 19 -13 36 -12 l32 1 -29 8 c-54 16 -57
50 -5 50 17 0 28 4 24 9 -3 6 3 15 14 21 22 11 34 0 25 -24 -3 -9 -1 -16 5
-16 6 0 11 7 11 15 0 8 5 15 10 15 6 0 10 -9 10 -20 0 -11 5 -20 10 -20 6 0
10 11 10 25 0 14 -3 25 -8 25 -4 0 -13 9 -19 20 -11 17 -10 18 5 13 29 -10 41
-24 35 -39 -4 -10 0 -12 11 -8 12 5 15 2 10 -10 -3 -9 -11 -16 -18 -16 -6 0
-2 -6 8 -12 19 -11 19 -11 0 -25 -17 -14 -15 -15 24 -11 29 2 42 0 42 -9 0
-21 -77 -17 -89 5 -10 16 -10 16 -11 0 0 -21 29 -38 67 -38 36 0 60 -14 43
-25 -7 -4 -9 -17 -5 -32 4 -17 0 -32 -11 -44 -10 -11 -12 -19 -6 -19 22 0 12
-18 -15 -28 -24 -9 -25 -11 -7 -11 25 -1 49 23 39 39 -3 5 1 13 9 16 9 3 16
12 16 20 0 8 5 14 10 14 15 0 12 -26 -5 -40 -22 -18 -9 -30 20 -17 19 10 23
17 18 37 -3 14 -10 27 -15 28 -11 5 -10 22 1 22 5 0 12 -8 15 -18 7 -21 36
-25 49 -8 6 7 7 6 4 -4 -2 -8 -13 -16 -25 -18 -12 -2 -20 -7 -17 -12 3 -5 19
-7 35 -3 23 4 30 2 30 -10 0 -10 -6 -13 -20 -10 -23 6 -25 -3 -5 -37 l14 -25
1 24 c0 42 12 14 13 -33 2 -37 -1 -45 -13 -41 -10 3 -10 1 3 -9 9 -7 17 -19
17 -25 0 -7 5 -9 10 -6 7 4 7 12 2 18 -4 7 -6 32 -5 57 2 25 4 55 4 68 -1 12
4 22 9 22 6 0 10 -9 10 -20 0 -11 5 -20 10 -20 6 0 10 9 10 20 0 11 5 20 10
20 6 0 10 -9 10 -20 0 -11 6 -20 13 -21 6 0 2 -5 -10 -11 -12 -6 -24 -18 -26
-27 -5 -23 4 -52 14 -45 5 3 9 -2 9 -10 0 -23 -16 -20 -35 6 -14 21 -15 19 -9
-42 5 -62 5 -64 -10 -40 -9 14 -19 33 -22 43 -4 11 -17 17 -40 17 -19 0 -34
-4 -34 -9 0 -4 11 -6 24 -4 13 3 27 0 30 -6 5 -7 -2 -11 -16 -11 -22 -1 -22
-1 -4 -15 20 -15 20 -15 0 -16 -19 0 -19 -1 0 -8 18 -7 18 -8 3 -14 -21 -8
-22 -27 -2 -27 8 0 15 -4 15 -10 0 -16 -19 -12 -50 11 -16 12 -26 28 -23 35 3
8 0 14 -6 14 -6 0 -11 -9 -11 -20 0 -11 -4 -20 -10 -20 -5 0 -10 10 -10 23 0
18 -2 19 -10 7 -7 -10 -10 -11 -10 -2 0 7 7 15 15 18 25 10 17 23 -15 22 -16
-1 -30 -5 -30 -10 0 -4 4 -8 8 -8 5 0 9 -6 9 -12 0 -7 3 -23 7 -35 6 -17 3
-23 -8 -23 -9 0 -16 9 -16 20 0 11 -7 20 -15 20 -8 0 -15 -4 -15 -10 0 -5 5
-10 10 -10 6 0 10 -5 10 -11 0 -5 -8 -9 -17 -8 -31 3 -44 -1 -38 -10 8 -15
-15 -25 -28 -12 -6 6 -22 11 -37 10 -14 0 -20 -3 -14 -5 20 -8 3 -45 -19 -42
-11 2 -22 -3 -24 -9 -3 -8 4 -13 18 -13 12 0 20 -3 16 -6 -3 -4 -18 -4 -32 0
-26 7 -35 36 -11 36 22 0 33 23 25 50 -6 23 -7 23 -8 3 -1 -28 -16 -37 -41
-23 -18 9 -20 8 -20 -14 0 -18 -4 -24 -15 -20 -18 7 -19 0 -5 -27 6 -10 8 -19
4 -19 -11 0 -33 34 -34 52 0 11 -6 15 -21 11 -17 -5 -20 -11 -15 -34 7 -35 0
-37 -25 -4 -13 15 -26 22 -36 18 -14 -5 -13 -8 5 -14 33 -13 26 -26 -10 -21
-32 4 -32 3 -13 -12 11 -8 15 -16 8 -16 -6 0 -20 11 -31 25 -14 17 -21 21 -25
12 -6 -15 15 -47 32 -47 6 0 11 -11 11 -25 0 -27 -17 -34 -26 -10 -4 8 -16 15
-28 15 -21 1 -21 1 -2 15 19 14 19 15 -7 15 -15 0 -30 -7 -33 -15 -4 -8 -10
-15 -15 -15 -5 0 -9 7 -9 15 0 18 -16 20 -24 3 -5 -10 -7 -10 -12 0 -3 6 -12
12 -20 12 -8 0 -14 6 -14 13 -1 6 -8 -1 -17 -18 -9 -16 -18 -25 -20 -18 -2 7
0 21 6 32 6 11 11 28 10 38 0 10 -5 3 -10 -15 -10 -35 -24 -34 -40 2 -9 21 -9
21 -4 -1 3 -13 8 -32 11 -43 4 -11 2 -20 -4 -20 -6 0 -13 8 -15 18 -3 10 -5 6
-6 -10 -1 -30 -27 -39 -37 -13 -4 8 -11 15 -16 15 -6 0 -16 7 -22 15 -9 13
-11 11 -13 -11 -1 -19 1 -23 8 -13 5 8 9 9 9 3 0 -6 -7 -17 -15 -24 -10 -9
-15 -9 -15 -1 0 6 -7 11 -15 11 -18 0 -20 16 -2 23 7 3 6 6 -5 6 -11 1 -18 -8
-20 -26 -3 -29 -28 -45 -28 -18 0 9 -5 13 -10 10 -6 -3 -13 1 -16 9 -3 9 -13
16 -21 16 -13 0 -13 -3 -2 -16 17 -21 -5 -37 -43 -30 -15 3 -30 1 -34 -5 -4
-8 -9 -7 -15 2 -8 12 -11 11 -19 -3 -6 -10 -18 -14 -31 -11 -21 6 -21 6 2 19
29 16 20 18 -16 4 -17 -7 -24 -7 -20 0 3 6 -4 10 -17 10 -16 0 -19 -3 -10 -9
10 -6 9 -12 -5 -30 -13 -16 -33 -23 -76 -28 -51 -5 -60 -9 -69 -32 -9 -24 -11
-24 -17 -7 -6 17 -8 17 -14 4 -4 -11 -16 -15 -37 -14 -22 2 -29 -1 -25 -12 3
-9 -1 -12 -15 -7 -14 4 -20 2 -20 -8 0 -8 -7 -18 -16 -21 -8 -3 -12 -2 -9 4 3
6 0 10 -7 10 -7 0 -24 3 -38 6 -24 6 -24 6 -5 -9 19 -16 19 -16 -12 -12 -17 2
-41 8 -52 15 -12 6 -29 10 -39 8 -10 -2 -16 2 -14 11 3 12 0 12 -12 2 -13 -11
-17 -9 -25 12 -9 23 -29 37 -52 37 -6 0 -7 -6 -3 -12 5 -8 0 -7 -11 2 -11 9
-16 10 -11 3 4 -8 2 -13 -4 -13 -6 0 -8 -4 -5 -10 3 -5 -1 -10 -10 -10 -9 0
-13 4 -10 10 3 6 -1 7 -9 4 -9 -3 -16 -10 -16 -15 0 -5 -7 -9 -15 -9 -9 0 -15
9 -15 21 0 19 -1 19 -16 5 -25 -26 -61 -20 -68 10 -8 29 -12 29 -18 -1 -7 -41
-34 -55 -96 -51 -42 2 -56 7 -54 17 3 11 1 11 -9 2 -6 -6 -18 -9 -26 -6 -9 4
-16 -2 -20 -16 -4 -17 -8 -19 -19 -10 -11 9 -14 8 -15 -2 0 -8 -4 -5 -9 6 -7
17 -9 17 -9 3 -1 -26 -21 -22 -21 3 0 16 -3 19 -12 12 -20 -15 -48 -12 -49 6
0 14 -1 14 -6 1 -5 -13 -41 -50 -49 -50 -1 0 0 10 2 23 2 12 1 16 -2 9 -5 -10
-9 -9 -19 5 -13 17 -14 17 -20 1 -7 -19 -45 -25 -45 -8 0 15 -30 12 -36 -4 -4
-10 -25 -13 -82 -11 -42 1 -87 -2 -99 -6 -13 -5 -25 -4 -28 1 -10 16 -62 12
-79 -6 -14 -14 -17 -14 -22 0 -4 9 -17 14 -34 13 -18 -1 -25 -6 -19 -11 15
-16 10 -25 -12 -23 -16 1 -19 6 -14 24 4 17 1 23 -10 23 -9 0 -14 -4 -11 -9 3
-5 -1 -11 -9 -15 -8 -3 -15 -1 -15 4 0 6 -9 10 -21 10 -13 0 -18 -4 -13 -11 5
-8 -1 -10 -20 -7 -14 3 -26 1 -26 -3 0 -5 -4 -9 -10 -9 -5 0 -7 7 -4 15 7 17
-3 21 -63 28 -33 4 -43 2 -46 -12 -3 -10 -5 -7 -7 9 l-2 25 -7 -25 c-10 -37
-41 -39 -42 -3 -1 17 -3 21 -6 11 -2 -10 -11 -18 -19 -18 -8 0 -13 -3 -11 -7
3 -5 1 -17 -4 -28 -7 -20 -8 -20 -8 1 -1 30 -12 36 -33 17 -11 -9 -18 -11 -18
-5 0 7 -6 12 -13 12 -7 0 -19 6 -25 12 -7 7 -29 11 -49 9 -28 -2 -35 0 -30 12
3 7 1 20 -3 27 -7 11 -11 11 -24 1 -15 -12 -15 -15 1 -27 21 -16 10 -18 -18
-4 -14 8 -19 7 -19 -1 0 -6 -6 -9 -14 -6 -7 3 -18 1 -22 -3 -6 -6 -29 -4 -56
5 -39 11 -47 11 -52 0 -3 -8 0 -16 7 -18 7 -3 -6 -3 -28 0 -22 3 -46 12 -52
21 -11 14 -15 14 -33 -3 -11 -10 -17 -22 -14 -26 9 -15 -6 -10 -23 7 -9 8 -22
13 -31 9 -8 -3 -21 0 -28 6 -11 9 -14 8 -14 -4 0 -8 6 -18 13 -20 6 -3 -1 -4
-18 -2 -20 2 -32 -3 -37 -14 -5 -12 -7 -11 -7 7 -1 13 5 22 14 22 8 0 15 3 15
8 0 12 -63 8 -67 -5 -5 -15 -33 -17 -33 -3 0 6 7 10 15 10 8 0 15 5 15 10 0
16 -28 12 -38 -5 -9 -18 -62 -30 -62 -15 0 5 -7 10 -16 10 -8 0 -12 -4 -9 -10
3 -6 -4 -10 -17 -9 -13 0 -17 3 -10 6 25 10 11 21 -32 25 -49 3 -52 0 -66 -72
l-7 -35 -2 43 -1 43 -42 -6 c-24 -4 -46 -12 -50 -18 -6 -9 -12 -9 -28 1 -25
15 -38 16 -22 0 7 -7 12 -16 12 -20 0 -13 -20 -9 -37 8 -9 8 -22 13 -29 10 -8
-3 -14 -1 -14 3 0 5 6 11 13 14 6 2 -5 7 -26 11 -27 5 -41 3 -52 -8 -17 -17
-20 -30 -5 -21 6 3 10 -3 10 -14 0 -15 -4 -19 -17 -14 -11 4 -14 3 -9 -5 4 -7
1 -12 -8 -12 -9 0 -15 6 -14 13 2 7 -9 13 -25 15 -17 2 -25 8 -21 14 4 7 2 8
-4 4 -7 -4 -12 -13 -12 -21 0 -8 -5 -17 -11 -21 -8 -5 -10 3 -5 27 5 30 3 35
-21 47 -37 17 -45 15 -38 -8 4 -11 2 -20 -4 -20 -6 0 -8 -7 -4 -16 5 -14 0
-16 -33 -11 -21 2 -50 7 -64 11 -24 5 -24 5 2 -6 27 -12 45 -55 22 -55 -7 0
-10 6 -7 13 7 19 -59 45 -120 48 -29 1 -36 -2 -32 -13 4 -11 0 -9 -14 3 -21
19 -47 13 -34 -7 10 -17 11 -47 1 -53 -7 -5 -9 1 -8 24 1 9 -62 22 -74 15 -5
-3 2 -12 15 -20 16 -10 18 -12 5 -8 -11 3 -23 0 -28 -7 -5 -9 -8 -6 -8 10 0
12 -6 22 -14 22 -11 0 -13 -9 -11 -32 4 -29 3 -30 -7 -13 -6 11 -16 23 -22 27
-8 5 -7 8 2 8 20 0 14 38 -9 51 -18 9 -24 8 -31 -5 -5 -9 -19 -15 -31 -15 -17
1 -18 2 -4 6 9 2 17 9 17 14 0 12 -37 12 -45 -1 -4 -6 -15 -6 -31 0 -32 12
-34 12 -34 0 0 -5 11 -10 25 -10 14 0 25 -4 25 -10 0 -13 -21 -13 -55 0 -23 9
-24 13 -15 32 9 20 9 21 -2 7 -7 -8 -25 -24 -41 -34 -21 -14 -25 -20 -16 -31
6 -8 18 -14 26 -14 13 0 13 3 3 15 -7 9 -11 18 -8 20 8 8 30 -23 24 -33 -3 -6
-22 -12 -41 -14 -27 -3 -36 0 -41 14 -3 10 -9 16 -14 13 -12 -7 -21 22 -13 43
6 14 4 15 -8 5 -8 -6 -38 -10 -66 -9 -29 1 -53 -2 -53 -5 0 -8 38 -19 68 -19
13 0 20 -4 17 -10 -3 -5 -15 -10 -26 -10 -10 0 -19 -7 -19 -15 0 -8 -5 -15
-10 -15 -6 0 -8 11 -4 25 5 18 2 25 -9 25 -8 0 -17 -6 -20 -12 -3 -7 -10 -1
-16 15 -6 16 -15 25 -21 22 -13 -8 -13 -35 0 -35 6 0 10 -6 10 -13 0 -8 -6
-14 -14 -14 -8 0 -12 6 -9 14 3 7 0 13 -6 13 -6 0 -11 8 -11 17 0 13 -6 11
-28 -10 -15 -15 -33 -27 -40 -27 -7 0 -12 -4 -12 -10 0 -5 7 -7 15 -4 8 4 15
2 15 -4 0 -5 -9 -12 -20 -15 -11 -3 -18 -1 -14 4 3 5 1 9 -4 9 -5 0 -9 11 -9
24 0 13 -10 33 -21 44 l-20 20 -4 -34 c-2 -18 1 -35 7 -37 6 -3 6 -8 1 -13 -5
-5 -10 -4 -13 2 -2 8 -18 10 -44 7 -34 -5 -38 -3 -33 11 3 9 2 16 -4 16 -5 0
-12 -7 -16 -15 -3 -8 -12 -15 -19 -15 -8 0 -22 -10 -31 -22 -16 -23 -16 -23
-11 8 6 29 4 31 -27 32 -62 2 -75 -5 -76 -39 -1 -38 -12 -53 -12 -16 0 17 -5
27 -15 27 -8 0 -15 -7 -15 -15 0 -8 -4 -15 -10 -15 -14 0 -13 23 2 38 9 9 8
12 -5 12 -9 0 -17 -6 -18 -12 0 -7 -4 -3 -9 10 -9 22 -30 31 -30 12 0 -5 -4
-10 -10 -10 -5 0 -10 10 -10 23 0 17 -2 19 -10 7 -5 -8 -6 -26 -3 -39 4 -17 2
-22 -8 -19 -9 3 -13 17 -11 39 1 21 -1 29 -6 21 -5 -7 -16 -10 -26 -6 -12 5
-19 1 -23 -15 -9 -36 -24 -23 -18 17 l6 37 -25 -30 c-14 -16 -26 -33 -26 -37
0 -5 -7 -8 -16 -8 -12 0 -15 6 -10 24 4 18 1 25 -14 29 -13 3 -20 0 -20 -9 0
-8 -6 -11 -15 -8 -10 4 -13 13 -10 25 4 11 2 19 -4 19 -6 0 -11 -7 -11 -16 0
-8 -4 -12 -10 -9 -5 3 -10 -1 -10 -9 0 -9 5 -15 12 -14 6 2 14 -6 16 -16 2
-11 10 -26 18 -34 8 -7 14 -19 14 -25 0 -7 -7 -4 -14 6 -7 9 -22 17 -32 17
-33 0 -47 16 -40 44 5 20 3 26 -10 26 -10 0 -14 -5 -10 -15 3 -9 0 -15 -9 -15
-8 0 -15 8 -16 18 0 10 -3 12 -6 5 -2 -7 -17 -13 -31 -13 -23 -1 -25 -2 -9
-11 9 -5 22 -7 29 -3 6 4 8 3 5 -3 -4 -6 4 -8 21 -5 27 5 27 4 8 -14 -11 -11
-31 -20 -44 -21 -18 -1 -21 1 -11 8 12 8 12 10 -1 19 -21 14 -40 12 -40 -2 0
-9 -3 -10 -8 -2 -6 9 -30 11 -62 5 -3 -1 2 -6 10 -11 12 -7 11 -9 -6 -8 -31 3
-19 38 12 38 13 0 24 5 24 11 0 7 -12 10 -30 7 -21 -3 -31 0 -34 11 -3 9 -4 5
-3 -9 1 -16 -3 -25 -13 -25 -20 0 -39 -18 -32 -30 3 -5 -3 -3 -14 6 -10 9 -34
22 -51 30 -35 15 -46 35 -14 24 11 -3 24 1 32 11 12 15 11 16 -8 10 -35 -11
-123 -24 -123 -17 0 3 -8 -6 -17 -19 -10 -14 -17 -28 -15 -32 1 -5 -2 -8 -8
-8 -10 0 -14 14 -10 39 1 10 -6 12 -23 7 -21 -5 -24 -2 -24 24 0 17 4 30 9 30
4 0 8 -7 8 -16 0 -12 9 -14 43 -12 34 2 42 7 42 22 0 11 -6 21 -14 24 -9 3
-11 -1 -7 -15 5 -15 2 -19 -11 -18 -19 1 -64 24 -50 25 5 0 6 4 2 10 -3 5 -14
2 -25 -7 -16 -14 -17 -20 -7 -32 9 -11 9 -15 0 -18 -7 -3 -13 -11 -13 -18 0
-7 -6 -16 -12 -19 -7 -3 2 -3 20 0 19 3 32 1 32 -5 0 -6 -7 -8 -16 -4 -14 5
-16 2 -10 -23 l6 -29 -22 27 c-19 21 -30 25 -60 23 -21 -2 -38 1 -38 6 0 5 9
9 19 9 11 0 22 8 26 19 3 10 14 26 25 36 23 21 27 40 6 32 -7 -3 -19 0 -25 6
-6 6 -11 7 -11 1 0 -6 5 -15 12 -22 9 -9 7 -13 -5 -18 -9 -3 -17 -12 -17 -20
0 -13 -15 -18 -48 -17 -10 1 -12 -7 -7 -24 4 -16 2 -22 -5 -18 -5 3 -10 18
-10 33 -1 31 -14 50 -50 73 -37 23 -60 30 -57 17 1 -6 -4 -13 -10 -15 -8 -3
-13 3 -13 13 0 14 -3 15 -12 6 -18 -18 -69 -16 -62 2 4 10 -1 14 -15 13 -29
-2 -33 -21 -10 -45 10 -12 18 -29 18 -39 -1 -15 -2 -16 -6 -2 -5 20 -43 14
-43 -7 0 -8 -5 -14 -11 -14 -6 0 -8 -9 -4 -22 5 -18 4 -20 -4 -7 -7 10 -6 29
4 60 7 24 14 36 14 27 1 -10 8 -18 17 -18 14 0 15 3 2 23 -14 23 -13 57 2 57
5 0 14 26 20 58 7 31 21 78 31 105 10 26 17 47 14 47 -2 0 7 30 19 66 16 45
37 80 68 112 25 26 63 70 85 99 31 40 43 49 53 40 9 -9 11 -7 8 8 -1 12 11 37
30 60 17 22 32 43 32 47 0 21 20 4 33 -29 l15 -38 7 37 c4 21 5 48 1 61 -6 24
4 39 77 121 15 17 50 65 79 106 28 41 77 104 108 140 32 36 90 115 131 175 93
139 142 204 152 205 5 0 6 -4 3 -9 -4 -5 4 -7 16 -3 16 4 19 2 13 -9 -6 -11
-5 -11 5 -2 8 7 12 35 12 70 0 47 1 52 8 28 4 -16 11 -47 15 -68 4 -29 10 -37
23 -35 13 2 18 17 22 57 l5 55 13 -38 c8 -21 16 -35 19 -32 10 9 8 96 -1 96
-6 0 -1 7 10 16 17 14 17 15 1 10 -10 -3 -16 -2 -13 3 7 11 -13 71 -30 91 -9
11 -10 20 -3 30 9 12 10 11 5 -4 -5 -14 -2 -17 9 -12 9 3 13 2 10 -4 -3 -6 -1
-10 5 -10 7 0 10 -6 7 -13 -3 -7 2 -26 9 -42 8 -17 12 -22 9 -12 -6 23 4 22
45 -7 33 -22 36 -23 54 -8 18 16 18 16 12 -4 -5 -15 1 -26 24 -42 16 -12 31
-22 33 -22 3 0 7 13 10 30 6 26 0 35 -44 77 -28 27 -67 54 -87 61 -20 7 -41
17 -47 23 -6 7 -1 7 13 0 15 -8 28 -9 35 -3 7 5 24 12 40 16 15 3 27 11 27 16
0 6 5 10 11 10 8 0 7 -5 -1 -15 -11 -13 -10 -18 6 -30 14 -11 15 -14 3 -9 -32
11 -28 -24 6 -55 33 -30 52 -40 41 -22 -3 5 1 14 9 21 11 9 12 16 5 25 -18 22
7 28 35 8 13 -10 25 -21 25 -25 0 -15 20 -8 20 8 0 8 5 12 10 9 6 -4 8 -11 5
-16 -4 -5 8 -9 24 -9 27 0 31 4 31 26 l0 26 -21 -23 c-15 -17 -19 -19 -15 -6
3 9 2 17 -3 17 -12 0 -20 46 -10 62 6 9 9 4 9 -15 0 -19 4 -27 13 -24 6 2 12
17 11 33 -1 20 0 22 3 6 4 -18 9 -22 26 -17z m-1860 -440 c12 5 14 2 10 -17
-5 -19 -3 -21 8 -10 23 21 33 13 13 -10 -38 -44 -66 -90 -59 -96 4 -4 12 1 19
10 7 10 16 14 20 10 4 -4 7 -2 6 3 -6 28 0 38 15 25 12 -10 15 -10 15 3 0 8 7
20 15 27 12 10 10 1 -5 -36 -15 -33 -19 -59 -15 -81 7 -41 21 -42 29 -3 6 31
12 35 33 22 10 -6 8 -27 -11 -93 -13 -46 -38 -147 -55 -224 -17 -77 -42 -183
-55 -235 -14 -52 -34 -139 -46 -192 -12 -54 -26 -98 -31 -98 -5 0 -9 6 -9 14
0 16 -28 41 -37 33 -3 -4 0 -13 7 -22 10 -12 9 -16 -5 -21 -10 -4 -21 -1 -26
7 -5 8 -9 10 -9 4 0 -5 -5 -3 -10 5 -5 8 -7 23 -4 32 4 13 1 16 -9 12 -8 -3
-18 -1 -22 5 -3 6 1 11 10 11 9 0 23 7 31 15 14 13 14 16 -1 21 -8 4 -24 -1
-34 -10 -20 -18 -37 -81 -96 -361 -43 -203 -44 -205 -56 -205 -10 0 -9 6 15
110 23 97 46 202 50 225 7 45 19 91 26 100 4 6 10 30 13 55 12 93 22 124 37
115 9 -6 24 54 23 93 0 12 4 22 8 22 5 0 12 18 15 40 4 22 10 43 15 46 4 2 6
11 2 20 -3 8 -1 14 5 12 14 -4 16 3 8 29 -4 13 1 61 12 110 35 154 52 238 52
251 0 17 24 42 40 42 8 0 9 7 5 18 -14 34 -16 108 -4 145 7 21 15 33 19 27 4
-6 14 -8 23 -5z m-1088 -304 c-9 -119 -19 -219 -21 -222 -3 -5 -8 -51 -19
-167 -3 -34 -1 -51 5 -47 6 3 10 15 10 26 0 10 5 19 10 19 15 0 0 -53 -19 -67
-18 -13 -21 -44 -6 -55 7 -5 6 -11 -1 -15 -7 -5 -17 -51 -24 -103 -7 -52 -14
-104 -16 -115 -2 -11 -8 -45 -13 -75 -31 -179 -54 -303 -67 -358 -8 -35 -12
-68 -9 -72 3 -5 1 -11 -4 -14 -5 -3 -12 -29 -16 -56 -4 -27 -11 -53 -17 -56
-6 -4 -8 1 -5 12 6 21 17 84 23 127 1 15 -1 27 -5 27 -5 0 2 51 16 113 14 61
26 121 28 132 1 11 4 22 5 25 1 3 1 15 0 27 0 12 6 33 15 46 11 18 13 27 5 32
-8 5 -8 11 1 21 6 8 9 14 5 14 -4 0 0 14 9 30 9 17 14 30 12 30 -2 0 -1 20 3
45 4 28 3 42 -3 38 -6 -4 -8 3 -3 18 3 13 9 62 12 109 3 47 9 87 13 90 4 3 9
32 10 65 1 33 8 116 16 185 8 69 17 157 20 195 3 39 9 87 14 107 5 20 7 39 4
42 -2 2 1 30 9 62 21 93 22 28 3 -215z m-659 188 c1 -8 2 -22 3 -31 1 -11 9
-18 22 -18 11 0 17 -5 14 -10 -4 -6 -12 -7 -18 -4 -9 5 -9 4 0 -6 9 -10 5 -18
-15 -36 -22 -19 -24 -23 -9 -24 9 0 17 5 17 11 0 6 9 8 20 4 12 -4 20 -2 20 6
0 9 3 9 14 -1 8 -6 12 -18 9 -27 -3 -8 0 -19 8 -23 11 -7 9 -14 -11 -34 -30
-33 -51 -33 -78 -1 -14 16 -32 25 -52 25 -32 0 -37 9 -19 27 6 6 8 17 4 23 -6
9 -10 9 -16 -1 -6 -10 -9 -8 -9 9 0 13 6 22 15 22 8 0 15 -4 15 -10 0 -5 5
-10 10 -10 16 0 12 46 -5 60 -8 7 -15 17 -15 23 0 5 8 3 18 -6 10 -10 22 -14
27 -10 4 5 5 2 1 -4 -4 -7 -2 -22 4 -34 16 -29 34 -10 22 22 -20 53 -23 81
-10 77 7 -3 14 -11 14 -19z m1907 -167 c9 -11 14 -9 29 10 l19 23 -3 -28 c-2
-15 -7 -26 -11 -25 -10 4 -37 -57 -37 -83 0 -11 5 -19 10 -19 18 0 10 -57 -11
-85 -21 -26 -26 -43 -34 -115 -3 -29 -109 -362 -147 -462 -12 -32 -29 -29 -20
4 4 16 2 20 -10 16 -13 -5 -11 10 8 94 14 56 23 106 23 112 -1 6 3 24 9 39 7
16 12 39 12 52 0 14 6 44 14 67 13 39 34 126 82 342 18 81 46 128 53 90 2 -10
8 -25 14 -32z m-497 -181 c-3 -5 1 -11 9 -15 8 -3 15 -13 15 -23 1 -17 1 -17
11 0 12 21 29 22 29 2 0 -8 5 -15 11 -15 6 0 8 -9 4 -20 -7 -21 10 -29 18 -7
2 6 5 1 6 -13 2 -55 6 -70 17 -70 7 0 15 6 18 13 7 14 5 6 -20 -114 -16 -77
-21 -87 -46 -98 -16 -7 -32 -10 -35 -7 -4 3 -9 41 -12 84 -5 58 -13 89 -34
126 -30 54 -38 122 -12 112 13 -4 13 -2 5 14 -14 27 -12 40 6 40 8 0 13 -4 10
-9z m657 -3 c2 -7 -2 -26 -10 -41 -8 -15 -12 -31 -9 -36 3 -4 -1 -17 -9 -27
-8 -10 -15 -31 -15 -46 0 -27 35 -98 49 -98 13 0 53 80 47 95 -3 9 0 12 9 9 8
-3 16 3 20 16 4 12 9 19 12 16 3 -3 -7 -35 -21 -72 -15 -37 -41 -108 -57 -158
-17 -50 -39 -106 -50 -124 -24 -42 -25 -65 -1 -60 11 3 16 12 15 26 -2 12 6
39 17 61 12 21 22 48 25 59 2 11 9 31 16 44 7 13 12 26 11 31 -1 4 3 7 8 7 6
0 9 3 8 8 -1 4 6 23 14 42 24 51 21 22 -13 -140 -17 -80 -31 -152 -32 -161 -1
-9 -7 -15 -14 -12 -7 3 -13 1 -13 -5 0 -5 -25 -36 -55 -68 -30 -33 -52 -65
-50 -72 7 -20 -6 -37 -15 -21 -7 10 -11 10 -24 0 -19 -16 -21 -35 -3 -25 6 4
0 -6 -14 -22 -14 -16 -31 -40 -37 -54 -14 -29 -34 -63 -43 -70 -3 -3 -9 -12
-13 -20 -4 -8 -12 -24 -19 -35 -7 -11 -30 -53 -52 -92 -21 -40 -45 -73 -52
-73 -7 0 -13 -9 -13 -20 0 -11 -4 -20 -10 -20 -5 0 -6 -7 -3 -17 5 -12 3 -14
-7 -8 -8 5 -11 3 -8 -6 7 -20 -62 -149 -79 -149 -8 0 -11 -4 -8 -10 3 -5 1
-10 -4 -10 -16 0 -14 6 19 52 38 51 39 72 5 66 -20 -4 -23 -3 -14 8 6 8 15 11
20 8 5 -3 9 0 9 7 0 7 7 4 15 -7 14 -18 14 -17 15 13 0 17 -5 33 -11 35 -14 5
-1 35 19 42 54 21 77 53 75 103 0 7 3 10 8 8 4 -3 16 9 25 27 9 17 23 38 30
46 8 7 14 17 14 21 0 4 9 18 20 31 11 13 20 32 20 42 0 10 14 32 31 49 17 17
32 43 34 61 3 17 12 40 22 51 14 15 15 19 3 15 -8 -2 -22 -17 -30 -34 -52 -97
-51 -96 -66 -84 -7 7 -11 17 -7 23 4 6 0 8 -11 4 -14 -5 -16 -3 -11 12 4 14
-1 21 -24 29 -31 11 -52 0 -29 -14 8 -5 2 -10 -17 -16 -36 -9 -57 6 -32 24 18
14 57 100 57 127 0 9 4 21 9 27 5 5 23 59 41 119 18 61 49 160 70 220 21 61
41 120 45 133 3 12 10 22 15 22 5 0 32 23 60 50 53 52 65 58 73 38z m-3197
-53 c-3 -16 -8 -57 -11 -90 -4 -33 -11 -87 -16 -120 -5 -33 -9 -79 -9 -103 0
-30 -6 -47 -20 -59 -11 -10 -20 -27 -19 -38 1 -17 2 -16 9 5 6 22 8 23 15 8 4
-10 4 -25 1 -33 -4 -11 3 -19 21 -26 14 -5 23 -12 20 -15 -3 -3 -14 -1 -24 5
-19 9 -20 3 -33 -116 -9 -77 -19 -131 -28 -139 -8 -8 -9 -14 -3 -14 8 0 10
-36 9 -110 -2 -76 -7 -110 -15 -110 -8 0 -10 20 -7 65 2 36 0 74 -6 85 -8 15
-6 21 7 28 13 8 14 13 6 24 -11 13 -16 40 -14 68 1 13 3 13 10 1 7 -10 9 -7 8
12 -1 14 -6 23 -10 20 -5 -3 -6 17 -2 43 10 78 15 95 25 89 6 -3 10 -2 10 4 0
5 -5 11 -11 13 -8 3 -6 10 5 20 9 9 16 25 15 35 0 16 -1 16 -8 -2 -5 -13 -9 4
-10 49 -1 57 2 71 19 86 11 9 18 19 15 21 -2 3 0 22 5 44 5 23 5 46 0 56 -7
12 -5 21 5 29 19 16 19 30 0 30 -8 0 -15 8 -15 18 0 15 2 15 11 2 8 -11 9 -5
6 25 -3 22 -3 34 0 28 10 -27 23 -11 23 27 0 22 -4 40 -10 40 -5 0 -10 6 -10
13 0 7 9 13 21 13 17 0 20 -5 15 -31z m3364 -40 c-4 -20 -4 -35 1 -35 5 0 8
-3 7 -7 -2 -11 14 -47 23 -53 4 -3 -3 -39 -16 -80 -13 -41 -28 -93 -34 -115
-10 -37 -49 -95 -65 -95 -8 0 -8 75 1 84 7 6 10 17 16 61 2 11 6 27 10 35 3 8
8 33 11 55 15 112 35 185 51 185 2 0 -1 -16 -5 -35z m-3975 -175 c-20 -146
-51 -342 -70 -445 -8 -44 -17 -107 -20 -140 -3 -33 -9 -62 -12 -65 -3 -3 -3
25 0 63 4 43 3 67 -4 67 -6 0 -7 6 -2 13 4 6 6 22 5 34 -2 11 2 24 8 28 6 4 8
16 4 27 -4 15 -3 18 7 13 9 -6 11 -2 7 13 -4 12 -2 25 4 28 6 4 6 9 -2 14 -8
5 -9 13 -4 21 5 8 7 25 5 38 -2 15 1 21 8 17 6 -4 11 0 11 9 0 9 -4 14 -8 11
-5 -3 -3 29 5 72 7 42 15 85 15 95 1 9 6 17 10 17 4 0 5 14 3 30 -2 17 0 30 4
30 5 0 7 12 5 27 -1 15 0 31 3 36 3 5 6 30 7 56 1 26 7 53 12 61 17 27 16 -49
-1 -170z m3795 -537 c-53 -242 -51 -233 -61 -233 -5 0 -5 10 0 23 5 12 17 64
26 116 9 52 19 101 21 110 6 20 -9 -10 -31 -64 -9 -22 -14 -30 -11 -17 2 12 1
22 -4 22 -4 0 -7 8 -6 17 0 10 -7 19 -18 21 -13 3 -17 0 -13 -11 3 -8 0 -20
-6 -27 -9 -10 -8 -12 6 -7 9 4 17 2 17 -3 0 -11 -23 -13 -33 -3 -4 3 -3 11 3
17 5 7 5 18 1 25 -7 11 -12 8 -22 -10 -6 -13 -18 -29 -25 -36 -7 -7 -14 -18
-17 -25 -2 -7 -7 -11 -10 -8 -10 9 93 141 105 134 7 -4 8 -3 4 4 -6 10 104
154 112 147 2 -2 -15 -88 -38 -192z m3412 -355 c4 -10 38 -13 124 -14 76 0
127 -5 142 -13 15 -8 34 -10 50 -5 15 4 37 8 50 10 13 1 30 8 39 15 12 11 17
10 23 -2 8 -13 39 -15 209 -14 110 1 198 -2 195 -6 -7 -11 -72 -31 -87 -26 -6
2 -17 -3 -24 -12 -11 -14 -12 -14 -13 2 0 16 -15 22 -53 19 -10 -1 -26 2 -36
7 -13 7 -26 5 -48 -9 -23 -13 -34 -15 -42 -7 -8 8 -11 8 -11 -1 0 -16 -43 -15
-58 0 -10 10 -15 10 -21 -1 -7 -11 -11 -10 -22 6 -12 21 -13 21 -47 1 -26 -14
-45 -18 -73 -13 -22 4 -39 11 -39 16 0 14 -78 11 -108 -5 -15 -7 -44 -16 -64
-20 -31 -6 -37 -4 -43 14 -4 14 -12 19 -22 16 -8 -3 -26 -9 -39 -12 -20 -5
-23 -3 -18 12 6 16 5 17 -7 7 -28 -27 -32 -11 -4 16 34 33 42 36 47 19z m4133
-48 c3 -5 -12 -12 -35 -16 -29 -5 -40 -11 -40 -24 0 -23 -23 -42 -43 -34 -10
3 -20 -2 -27 -15 -11 -22 -63 -30 -75 -11 -3 6 -18 10 -33 10 -35 0 -49 10
-61 43 -13 33 -5 34 27 5 23 -22 24 -22 18 -3 -5 19 0 22 51 33 32 6 67 13 78
16 41 8 134 6 140 -4z m-10053 -62 c3 -7 32 -15 65 -18 34 -3 59 -2 57 2 -7
11 115 1 174 -15 28 -8 52 -11 52 -7 0 5 17 4 38 -1 20 -5 70 -11 111 -14 84
-6 142 -32 161 -74 l12 -26 -29 28 c-16 15 -38 27 -49 27 -18 -1 -18 -1 -1
-14 9 -7 17 -18 17 -25 0 -6 6 -11 13 -12 17 -1 -24 -17 -45 -18 -10 -1 -18 6
-18 14 0 8 -6 15 -14 15 -8 0 -24 9 -37 21 -16 14 -19 19 -7 15 9 -3 19 0 22
7 3 8 9 6 19 -6 10 -12 17 -15 22 -7 4 6 4 14 0 18 -8 8 -105 10 -105 1 0 -3
-15 -5 -34 -5 -20 1 -32 5 -29 12 6 17 -27 26 -44 12 -9 -7 -17 -8 -21 -2 -9
12 -23 15 -93 18 -56 3 -57 2 -36 -15 31 -26 13 -23 -39 6 -32 18 -62 25 -109
27 -36 2 -65 6 -65 10 0 3 -3 13 -6 22 -3 9 -2 16 4 16 6 0 12 -5 14 -12z
m8155 -351 c62 -12 113 -26 113 -30 0 -13 -220 -6 -255 8 -16 7 -36 10 -42 8
-7 -3 -13 0 -13 5 0 5 -21 9 -47 9 -57 1 -113 12 -113 23 0 15 244 -1 357 -23z
m-3902 -67 c3 -5 23 -10 43 -10 21 0 46 -6 57 -13 11 -8 36 -17 55 -20 19 -3
29 -3 23 0 -7 2 -13 10 -13 17 0 19 213 6 225 -14 5 -8 86 -14 173 -13 23 0
42 -3 42 -8 0 -5 14 -9 30 -9 17 0 30 -4 30 -10 0 -5 7 -10 15 -10 8 0 15 5
15 10 0 6 11 3 24 -7 l24 -18 -37 -11 -36 -12 43 -1 c23 -1 42 3 42 8 0 5 9 7
20 4 13 -3 20 0 20 9 0 7 -11 15 -26 16 -32 2 -44 10 -44 27 0 13 23 15 36 3
3 -4 15 -2 25 5 15 9 22 8 36 -6 11 -10 13 -17 5 -17 -7 0 -12 5 -12 10 0 6
-8 10 -17 10 -16 -1 -16 -2 2 -16 11 -8 25 -12 33 -9 7 3 26 -2 42 -10 16 -8
33 -15 37 -14 19 3 33 -2 33 -12 0 -5 -5 -7 -10 -4 -6 4 -29 8 -53 10 -23 1
-51 6 -62 11 -20 7 -20 7 -1 -14 11 -12 29 -22 40 -22 16 0 18 -2 7 -9 -11 -7
-6 -11 20 -15 58 -10 210 -14 301 -7 94 7 108 5 108 -11 0 -6 -6 -8 -14 -5 -8
3 -22 -3 -32 -14 -18 -20 -17 -20 22 -13 30 4 45 2 57 -10 8 -9 25 -16 36 -16
21 0 37 17 26 28 -3 3 -9 1 -13 -5 -5 -8 -16 -4 -35 12 -30 27 -35 45 -11 45
8 0 12 5 9 10 -4 6 7 10 24 10 20 0 31 -5 31 -14 0 -16 -27 -29 -32 -16 -2 6
-9 6 -17 1 -12 -8 -12 -12 3 -26 16 -16 18 -16 29 -1 9 13 19 14 43 7 34 -10
72 3 42 14 -9 4 -19 13 -22 21 -4 11 -2 12 14 4 10 -5 46 -9 79 -7 50 3 61 0
62 -12 1 -14 2 -13 6 0 2 10 13 19 24 22 21 6 25 -3 8 -20 -8 -8 -8 -13 0 -17
6 -4 11 -2 11 3 0 6 7 11 16 11 13 0 14 3 4 15 -16 19 -1 24 60 21 25 -1 68
-3 95 -4 35 -2 46 -5 35 -11 -8 -6 -27 -7 -42 -4 -16 3 -28 1 -28 -5 0 -5 -10
-8 -22 -5 -19 4 -20 3 -7 -6 9 -6 20 -22 23 -36 5 -20 13 -25 39 -26 24 0 27
-2 14 -8 -17 -6 -17 -8 -3 -20 24 -20 48 -7 37 21 -6 16 -18 24 -40 26 -23 3
-31 8 -31 24 0 17 6 20 48 17 94 -5 123 0 120 19 -2 10 2 16 10 14 7 -1 24 -3
37 -4 14 -1 25 -6 25 -10 0 -4 7 -8 16 -8 14 0 15 -2 3 -17 -13 -15 -11 -16
10 -10 27 7 65 -9 56 -23 -11 -18 -80 2 -109 32 -15 16 -31 26 -34 23 -4 -3 0
-10 8 -15 12 -8 10 -10 -7 -10 -26 0 -40 -18 -20 -26 9 -3 18 -16 21 -30 5
-20 13 -24 43 -24 20 0 34 -3 31 -6 -8 -8 -54 -13 -132 -13 -104 -1 -69 -16
42 -18 110 -2 142 -5 142 -13 0 -3 15 -4 34 -2 25 3 39 -2 53 -18 11 -11 33
-23 49 -24 22 -3 28 -8 27 -24 -2 -15 5 -21 27 -26 36 -7 39 -21 8 -30 -35 -9
-45 -7 -62 9 -8 8 -30 18 -48 20 -33 5 -33 5 -5 -6 31 -12 28 -30 -4 -22 -12
3 -26 19 -31 34 -11 32 -33 41 -23 10 3 -12 0 -21 -9 -24 -10 -4 -13 -1 -9 9
3 7 0 14 -7 14 -6 0 -14 -8 -17 -19 -3 -13 -12 -18 -31 -16 -46 4 -92 17 -92
26 0 5 -5 9 -11 9 -6 0 -9 -7 -5 -15 4 -13 2 -14 -14 -5 -11 6 -26 8 -32 4 -7
-4 -8 -3 -4 4 4 7 1 12 -8 12 -8 0 -21 6 -28 13 -7 7 -21 16 -32 20 -14 5 -17
4 -12 -8 8 -21 -1 -19 -27 6 -19 17 -22 18 -25 5 -2 -9 -8 -13 -14 -10 -6 4
-14 0 -19 -7 -6 -10 -9 -8 -9 9 0 24 -10 28 -28 10 -9 -9 -12 -9 -12 0 0 18
-17 15 -39 -7 -10 -10 -25 -21 -32 -23 -8 -3 27 -8 76 -12 50 -4 97 -5 105 -2
8 3 38 -5 65 -19 33 -16 43 -24 29 -25 -11 0 -35 7 -53 16 -18 9 -35 13 -38
10 -8 -8 1 -17 19 -19 7 -2 14 -7 15 -12 2 -13 -30 -6 -39 8 -4 7 -11 12 -15
13 -4 0 -33 4 -63 8 -57 9 -67 7 -62 -8 2 -5 -4 -4 -12 3 -8 7 -20 11 -28 11
-7 -1 -24 1 -36 5 -18 6 -20 10 -10 16 12 8 -22 13 -69 12 -24 -1 -13 27 12
33 21 5 23 9 14 21 -10 11 -9 18 5 31 16 16 17 16 10 0 -5 -15 0 -18 29 -18
19 0 40 -7 47 -15 7 -8 17 -15 22 -15 6 0 6 6 -1 14 -16 19 4 26 41 15 16 -4
30 -3 33 2 8 11 67 2 76 -13 4 -6 11 -8 17 -4 6 3 12 0 15 -6 2 -8 8 -9 13 -4
5 5 4 10 -2 13 -6 2 -20 10 -30 18 -18 14 -18 15 4 21 48 14 11 35 -43 24 -20
-3 -26 -8 -17 -13 6 -5 17 -5 22 -2 6 3 10 1 10 -6 0 -7 -13 -10 -34 -7 -19 2
-33 1 -30 -3 8 -14 -111 3 -122 17 -6 8 -17 14 -25 14 -10 -1 -9 -4 4 -14 19
-15 22 -26 7 -26 -5 0 -19 18 -31 41 -11 23 -16 38 -10 35 5 -4 12 -2 16 4 3
5 -3 10 -14 10 -11 0 -23 5 -26 10 -4 7 2 9 19 4 16 -4 26 -2 26 5 0 6 -16 11
-35 11 -19 0 -35 -4 -35 -10 0 -18 -40 -32 -56 -19 -8 6 -18 9 -22 5 -10 -11
30 -37 46 -31 8 3 22 0 30 -7 12 -10 14 -10 8 0 -4 6 -2 12 3 12 17 0 13 -27
-5 -34 -9 -4 -14 -9 -11 -13 4 -3 13 0 22 7 18 15 30 7 22 -15 -4 -8 -16 -15
-27 -15 -17 0 -20 -4 -15 -20 5 -16 2 -20 -17 -20 -13 0 -37 9 -55 20 -22 13
-34 16 -39 8 -4 -6 -23 -8 -46 -5 -33 4 -37 3 -27 -9 6 -7 15 -12 19 -9 5 3
11 1 15 -5 4 -6 12 -7 24 -1 21 12 111 -17 111 -36 0 -6 6 -14 13 -16 6 -3 2
-6 -10 -6 -13 -1 -23 4 -23 9 0 6 -5 10 -11 10 -5 0 -7 -4 -4 -10 3 -5 1 -10
-4 -10 -6 0 -11 -4 -11 -10 0 -5 17 -10 37 -10 20 0 45 -7 55 -17 25 -23 23
-37 -4 -19 -12 9 -27 16 -33 16 -5 0 5 -9 23 -20 18 -11 40 -20 50 -20 14 0
15 2 2 10 -18 11 -12 17 20 20 41 4 50 1 50 -15 0 -19 14 -19 33 -1 15 16 61
10 51 -5 -3 -5 5 -13 18 -18 13 -6 17 -10 8 -10 -9 -1 -26 7 -40 16 -17 12
-25 13 -28 5 -2 -7 -15 -12 -28 -12 -13 0 -24 -5 -24 -12 0 -9 -3 -9 -12 0
-20 20 -48 15 -48 -9 0 -18 2 -19 15 -9 9 8 15 9 15 2 0 -28 -25 -22 -53 11
-16 21 -35 37 -43 37 -19 0 -18 -10 4 -26 16 -13 16 -13 -3 -15 -11 -1 -41 -1
-67 -1 -30 1 -48 -3 -48 -11 0 -7 -3 -8 -10 -1 -8 8 -8 19 0 38 5 15 10 31 10
36 0 17 -33 20 -63 5 -27 -14 -31 -13 -43 3 -7 9 -16 13 -21 8 -4 -5 -2 -11 5
-13 12 -5 18 -33 6 -33 -3 0 -15 5 -27 12 -12 7 -27 13 -34 14 -15 3 -38 -24
-29 -33 4 -4 11 -1 16 7 7 12 13 11 33 -8 21 -20 28 -21 51 -11 14 7 26 18 26
25 0 6 16 14 35 16 19 2 35 2 35 0 0 -12 -33 -33 -60 -38 -35 -8 -46 -19 -25
-28 27 -10 16 -23 -17 -21 -45 4 -79 16 -73 25 10 15 -89 32 -120 20 -22 -8
-30 -8 -37 2 -6 10 -12 9 -23 -6 -15 -20 -15 -20 -30 0 -8 10 -15 26 -15 35 0
27 -34 57 -73 64 -49 9 -54 21 -16 34 22 7 29 15 25 26 -8 20 -14 42 -9 33 3
-5 11 -8 18 -8 14 0 29 -28 26 -47 -1 -7 5 -13 14 -13 8 0 23 -9 32 -20 21
-24 33 -26 33 -5 0 8 -6 15 -12 15 -10 0 -10 2 0 9 8 4 13 12 13 17 0 5 24 9
53 9 30 0 57 3 60 6 10 9 -70 20 -90 12 -11 -4 -15 -3 -11 4 4 6 0 14 -9 17
-8 3 -12 11 -9 16 4 7 -2 9 -19 4 -15 -3 -26 -2 -26 4 0 15 107 7 126 -9 15
-12 16 -11 9 10 -7 22 -5 23 16 17 13 -4 29 -8 34 -9 6 -2 16 -6 23 -10 6 -5
12 -5 12 0 0 4 16 8 35 8 19 0 35 -4 35 -8 0 -5 5 -5 10 -2 16 10 12 25 -6 25
-13 0 -14 3 -4 14 6 8 19 12 27 9 11 -4 14 -2 9 5 -9 16 -39 15 -54 0 -10 -10
-16 -8 -29 5 -16 16 -16 17 0 17 9 0 17 4 17 10 0 5 -10 8 -22 6 -13 -3 -27
-5 -32 -5 -5 -1 -3 -8 4 -16 7 -8 8 -15 3 -15 -5 0 -16 9 -25 19 -13 15 -31
19 -98 20 -47 1 -88 -4 -96 -10 -8 -7 -36 -9 -76 -5 -35 4 -81 6 -103 6 -132
-2 -215 -6 -221 -13 -4 -4 -15 0 -24 8 -14 12 -26 13 -71 5 -50 -10 -55 -9
-71 11 -10 12 -18 29 -18 39 0 26 -23 41 -72 44 -23 1 -52 7 -63 12 -20 11
-93 33 -175 55 -52 13 -57 15 -88 33 -17 10 -20 15 -10 19 21 9 36 8 43 -3z
m153 -384 c9 6 33 9 52 7 39 -5 98 -12 117 -15 7 -1 10 -5 7 -10 -4 -5 2 -16
12 -24 18 -15 18 -15 -3 -11 -28 6 -29 -3 -4 -30 13 -14 32 -21 56 -21 21 0
42 -6 48 -12 9 -10 8 -11 -3 -8 -8 3 -21 -2 -28 -11 -12 -14 -13 -14 -8 2 4
12 0 17 -14 17 -13 0 -17 -5 -14 -14 4 -11 -5 -17 -33 -21 -21 -4 -45 -9 -53
-11 -8 -2 -22 1 -30 7 -12 8 -10 9 7 4 18 -5 22 -3 17 9 -4 11 -17 15 -38 13
-26 -2 -31 2 -34 23 -2 14 -8 29 -13 35 -12 13 -11 23 4 28 6 2 2 2 -10 1 -12
-2 -24 0 -27 5 -8 12 -46 21 -46 10 0 -5 8 -9 18 -9 9 0 27 -11 39 -24 20 -20
21 -25 8 -36 -11 -9 -17 -9 -27 2 -7 7 -13 19 -13 27 0 8 -6 15 -13 17 -7 1
-8 0 -2 -3 7 -3 4 -10 -7 -18 -15 -11 -25 -9 -66 12 -50 25 -94 27 -89 5 3
-17 -13 -15 -29 4 -9 11 -22 14 -47 9 -26 -5 -33 -3 -30 7 6 16 45 23 61 10 8
-7 17 -5 27 6 13 14 12 15 -3 9 -9 -3 -17 -2 -17 3 0 16 30 11 37 -6 4 -10 13
-14 28 -10 12 3 31 -1 43 -10 17 -12 26 -13 44 -3 20 11 20 13 5 24 -27 19
-20 24 19 12 24 -7 41 -8 52 -1z m282 -1 c8 -5 26 -11 39 -13 18 -2 22 1 17
14 -5 13 -2 15 16 10 13 -4 28 -8 33 -9 6 -2 16 -6 22 -10 7 -5 29 -4 48 2 19
5 35 6 35 1 0 -5 20 -7 45 -5 24 2 47 -1 51 -6 3 -6 20 -9 38 -8 17 2 38 -1
46 -6 8 -5 21 -10 29 -12 42 -6 61 -15 61 -28 0 -19 -7 -19 -26 0 -9 8 -20 15
-25 15 -6 0 -3 -8 7 -17 17 -17 17 -18 -2 -22 -10 -2 -24 -7 -30 -12 -7 -6
-16 -3 -25 8 -9 11 -10 14 -2 9 7 -4 20 -3 28 1 12 7 9 12 -15 26 -26 16 -30
16 -30 3 0 -20 -16 -21 -24 -1 -9 25 -38 6 -33 -22 4 -23 2 -25 -24 -19 -100
21 -95 21 -81 3 8 -9 17 -15 20 -14 4 1 8 -2 9 -7 1 -5 7 -13 15 -18 8 -6 1
-7 -22 -3 -32 6 -33 6 -16 -8 18 -14 15 -37 -5 -37 -6 0 -7 5 -4 10 3 6 -1 10
-9 10 -8 0 -18 -4 -21 -10 -3 -5 -24 -10 -45 -10 -29 0 -43 6 -54 22 -8 12
-13 26 -9 31 3 6 8 5 12 -1 3 -5 23 -15 44 -20 34 -9 37 -9 26 4 -7 8 -18 13
-26 10 -7 -3 -13 1 -13 9 0 8 -7 15 -15 15 -22 0 -18 18 5 25 11 3 20 11 20
16 0 13 -28 11 -32 -3 -6 -18 -158 -19 -158 -1 0 7 6 10 14 7 8 -3 17 -1 21 5
3 6 -1 11 -11 11 -11 0 -15 6 -11 19 3 14 1 18 -9 14 -19 -7 -18 2 2 22 17 16
48 16 74 0z m4101 -15 c5 0 9 8 9 18 1 16 1 16 11 0 11 -20 65 -25 71 -7 2 7
31 13 71 14 59 2 67 0 67 -16 0 -11 4 -19 9 -19 5 0 7 10 5 23 -2 12 -1 16 2
8 5 -11 8 -11 15 0 7 11 9 9 10 -6 1 -11 1 -23 0 -27 -2 -13 51 -21 137 -22
61 -1 79 -4 68 -11 -8 -6 -34 -10 -58 -9 -24 2 -71 4 -105 6 -41 1 -63 7 -63
14 0 7 -8 11 -17 9 -10 -1 -22 0 -26 2 -5 3 -65 5 -133 5 l-124 -1 18 24 c12
16 18 19 20 9 2 -8 8 -14 13 -14z m-847 -52 c-5 -9 -2 -9 9 1 13 10 36 12 95
7 42 -3 114 -9 159 -11 45 -3 94 -12 110 -20 l28 -15 -25 0 c-14 0 -65 7 -114
16 -88 15 -147 13 -176 -7 -11 -7 -4 -9 27 -7 28 2 44 -1 47 -9 7 -18 -54 -17
-79 0 -12 10 -30 12 -59 6 -23 -4 -45 -4 -49 1 -5 4 -23 4 -41 0 -26 -6 -35
-3 -45 11 -13 22 -1 25 30 9 13 -7 19 -7 19 0 0 5 -6 10 -12 11 -23 1 26 18
55 18 20 1 26 -3 21 -11z m836 -53 c11 -13 9 -15 -11 -13 -18 2 -25 -2 -27
-19 -2 -15 -11 -23 -25 -24 -17 -1 -18 -2 -4 -6 9 -2 17 -9 17 -15 0 -6 -7 -7
-17 -2 -10 4 -35 9 -55 12 -21 2 -38 8 -38 13 0 5 -27 9 -60 9 -49 0 -58 -3
-54 -15 4 -8 1 -15 -5 -15 -6 0 -11 6 -11 13 0 9 -2 9 -8 -1 -11 -16 -82 -29
-82 -14 0 6 10 9 23 7 23 -5 56 10 45 20 -11 12 -70 8 -78 -5 -6 -10 -9 -8
-11 5 -4 17 -5 18 -21 2 -22 -22 -35 -21 -48 3 -9 16 -8 18 5 14 8 -4 15 -2
15 3 0 12 94 15 124 3 14 -5 26 -6 26 -2 0 4 19 6 42 4 24 -1 63 -3 88 -2 33
0 41 -2 30 -10 -32 -21 2 -9 38 14 33 20 54 29 83 35 4 0 12 -6 19 -14z"/>
<path d="M10590 3482 c0 -5 -20 -13 -45 -17 -25 -3 -43 -10 -40 -16 4 -5 1 -9
-4 -9 -6 0 -11 5 -11 10 0 6 -6 10 -13 10 -8 0 -13 -10 -13 -22 1 -21 -3 -23
-54 -23 -30 0 -60 -3 -66 -7 -6 -4 -22 1 -34 12 -25 22 -24 21 -59 25 -16 2
-25 -4 -28 -16 -5 -16 -15 -18 -87 -17 -71 2 -86 -1 -114 -21 -22 -15 -44 -22
-70 -20 -76 4 -725 -1 -720 -6 6 -6 817 -8 1248 -3 157 2 341 1 410 -2 69 -3
145 -1 170 4 42 10 38 11 -70 18 -133 9 -166 13 -200 24 -23 7 -24 6 -11 -9
20 -25 -1 -21 -22 4 -11 12 -25 18 -34 15 -13 -6 -14 -4 -3 9 8 9 21 14 31 12
9 -3 23 0 30 5 11 8 11 9 -2 5 -9 -3 -22 -1 -30 3 -8 5 -16 5 -19 -1 -6 -9
-23 -10 -128 -8 -23 1 -49 -2 -57 -5 -23 -8 -18 -35 8 -46 16 -6 18 -9 5 -9
-10 -1 -26 9 -37 21 -34 36 -16 46 114 67 28 5 43 9 34 10 -9 0 -31 4 -48 7
-18 4 -31 2 -31 -4z"/>
<path d="M1300 3191 c0 -20 28 -33 49 -22 26 14 32 14 29 -1 -2 -8 7 -12 25
-11 15 1 27 -1 27 -5 0 -4 22 -8 49 -9 27 -1 82 -11 122 -22 67 -18 76 -18 97
-5 13 9 32 17 43 19 16 3 19 0 14 -14 -5 -16 0 -18 45 -13 36 3 50 1 50 -8 0
-7 -7 -10 -16 -6 -8 3 -12 2 -9 -4 3 -5 18 -9 33 -8 15 0 50 -4 77 -9 45 -8
51 -7 51 8 0 10 -4 15 -8 13 -5 -3 -23 -7 -41 -10 -23 -2 -28 -1 -17 6 13 9
13 11 0 21 -12 8 -10 9 10 4 39 -10 90 -11 90 -2 0 14 -31 20 -43 8 -8 -8 -15
-7 -26 3 -9 8 -45 16 -80 19 -35 3 -67 11 -71 18 -5 6 -13 8 -20 4 -10 -6 -9
-11 5 -22 23 -16 12 -17 -18 -1 -22 11 -62 18 -127 21 -19 1 -41 6 -47 10 -8
5 -13 4 -13 -3 0 -6 -4 -8 -10 -5 -5 3 -10 1 -10 -4 0 -6 -8 -11 -17 -11 -16
0 -16 2 -3 11 12 9 12 10 -4 5 -10 -4 -33 -2 -50 3 -59 18 -135 28 -145 18 -5
-5 -11 -4 -15 2 -9 13 -26 15 -26 2z"/>
<path d="M2250 3130 c18 -11 13 -16 -27 -24 -18 -4 -34 -3 -38 3 -8 13 -45 15
-45 2 0 -5 -13 -11 -30 -13 -32 -5 -37 1 -18 20 9 9 7 12 -10 12 -12 0 -22 -4
-22 -10 0 -5 -7 -7 -15 -4 -9 4 -15 0 -15 -9 0 -9 -8 -21 -17 -27 -14 -8 -8
-10 27 -8 25 1 51 6 58 11 8 6 12 5 12 -3 0 -6 6 -10 12 -8 7 3 24 -1 38 -9
21 -11 27 -11 35 0 6 8 20 19 32 25 28 15 123 16 123 1 0 -6 -7 -9 -15 -6 -8
4 -17 2 -21 -4 -4 -6 -11 -6 -19 1 -8 7 -19 9 -25 5 -5 -3 -20 -8 -31 -10 -28
-6 -33 -11 -26 -30 4 -8 14 -15 24 -15 17 1 17 1 -1 15 -17 13 -16 14 12 13
23 -1 29 -5 24 -17 -3 -9 -10 -19 -16 -23 -6 -5 5 -5 24 -2 39 8 52 14 27 14
-29 0 -19 17 12 22 26 4 29 2 20 -13 -14 -26 -12 -28 26 -26 19 1 35 5 35 8 0
4 11 9 24 11 19 4 23 1 19 -11 -3 -11 -2 -12 4 -4 7 9 18 10 42 3 24 -7 31 -6
28 3 -2 7 -13 11 -24 9 -11 -1 -26 4 -33 13 -10 12 -10 15 4 15 9 0 16 -4 16
-10 0 -5 5 -10 10 -10 6 0 10 6 10 14 0 8 4 18 10 21 5 3 7 0 4 -8 -3 -8 1
-18 8 -24 20 -16 66 -24 73 -13 3 5 -3 10 -14 10 -12 0 -21 5 -21 10 0 6 9 10
21 10 11 0 29 5 40 10 11 6 19 7 18 3 -5 -29 3 -33 27 -14 15 11 31 18 38 14
7 -5 5 -9 -6 -11 -10 -2 -18 -11 -18 -20 0 -14 2 -14 9 -3 5 8 16 11 24 8 11
-4 14 -1 11 8 -5 11 8 13 63 9 37 -2 82 -6 98 -9 17 -2 37 0 45 5 8 5 13 10
10 10 -3 1 -22 3 -43 5 -21 2 -44 11 -53 20 -20 20 -60 29 -81 19 -13 -6 -7
-9 25 -12 23 -2 42 -7 42 -13 0 -5 -25 -7 -57 -4 -48 4 -140 6 -162 3 -28 -3
-42 4 -37 17 6 17 3 18 -22 6 -9 -4 -32 -13 -51 -19 -29 -10 -36 -9 -50 7 -12
14 -23 16 -45 10 -16 -5 -34 -5 -40 -1 -6 3 -21 5 -33 4 -14 -2 -23 3 -26 15
-4 16 -5 17 -6 1 -1 -22 -14 -23 -31 -3 -7 8 -18 15 -24 15 -6 0 -4 -4 4 -10z"/>
<path d="M0 3101 c0 -6 5 -11 11 -11 8 0 8 -5 -1 -15 -21 -25 -4 -42 47 -48
26 -3 98 -13 158 -22 61 -9 157 -20 215 -25 58 -6 115 -12 128 -15 12 -3 22
-1 22 5 0 5 5 10 10 10 6 0 10 -7 10 -15 0 -12 13 -15 58 -16 31 0 66 -2 77
-4 26 -4 153 -14 275 -20 91 -5 89 -4 -65 20 -181 27 -157 23 -450 77 -279 51
-305 56 -390 68 -38 6 -78 13 -87 16 -10 3 -18 1 -18 -5z"/>
<path d="M2441 2696 c3 -3 43 -14 89 -25 47 -10 171 -40 275 -65 105 -25 246
-53 315 -61 68 -9 156 -22 195 -30 38 -8 232 -42 430 -75 198 -33 367 -63 375
-67 8 -3 40 -8 70 -10 30 -3 60 -9 66 -14 6 -5 18 -7 27 -3 14 5 193 -9 279
-23 30 -4 38 -2 47 15 10 19 7 21 -46 28 -40 5 -58 3 -61 -5 -2 -6 -13 -11
-25 -10 -21 0 -21 1 -2 8 16 7 12 10 -23 16 -24 4 -46 4 -49 1 -4 -3 3 -6 15
-6 11 0 24 -5 28 -12 5 -8 2 -9 -10 -5 -10 4 -41 7 -69 7 -37 0 -48 3 -37 10
12 8 11 10 -7 10 -12 0 -30 3 -40 6 -15 5 -15 4 -3 -5 13 -9 12 -11 -3 -11
-30 0 -162 22 -169 29 -4 4 12 5 35 4 75 -4 16 8 -353 72 -248 43 -353 62
-400 75 -19 5 -116 21 -215 35 -248 35 -490 73 -613 96 -106 20 -129 22 -121
15z"/>
<path d="M10344 2016 c-8 -8 -5 -16 15 -29 24 -17 24 -18 4 -12 -28 8 -31 -10
-4 -25 26 -14 31 -13 31 5 0 12 4 13 19 5 24 -12 31 -13 31 -1 0 5 -8 12 -17
14 -10 3 -1 5 19 6 20 0 40 -3 43 -9 3 -5 11 -10 16 -10 6 0 7 5 4 10 -9 15
11 12 24 -3 14 -18 4 -27 -30 -27 -15 0 -31 -5 -35 -12 -4 -6 -3 -8 2 -5 18
11 294 19 294 8 0 -5 -10 -12 -22 -14 -13 -2 2 -5 32 -6 51 -2 53 -3 36 -16
-18 -14 -14 -15 40 -10 118 11 163 11 161 1 -1 -6 12 -9 30 -8 34 4 153 -23
193 -43 20 -10 37 -9 88 2 35 8 61 18 57 21 -4 4 -43 12 -88 18 -45 6 -107 18
-137 27 -30 8 -98 23 -150 32 -52 10 -99 22 -104 26 -13 12 30 11 71 0 35 -10
153 -3 153 10 0 4 -25 5 -57 2 -39 -4 -54 -3 -49 5 8 13 116 14 116 1 0 -5 5
-9 10 -9 16 0 11 27 -6 34 -23 9 -358 -3 -362 -13 -1 -5 -28 -6 -60 -3 -31 2
-69 5 -84 6 -32 1 -26 16 8 16 13 0 24 4 24 9 0 13 -303 11 -316 -3z"/>
</g>
</svg>
